<?xml version="1.0" encoding="UTF-8" standalone="no"?>
<!-- Created with Inkscape (http://www.inkscape.org/) -->

<svg
   xmlns:dc="http://purl.org/dc/elements/1.1/"
   xmlns:cc="http://creativecommons.org/ns#"
   xmlns:rdf="http://www.w3.org/1999/02/22-rdf-syntax-ns#"
   xmlns:svg="http://www.w3.org/2000/svg"
   xmlns="http://www.w3.org/2000/svg"
   xmlns:sodipodi="http://sodipodi.sourceforge.net/DTD/sodipodi-0.dtd"
   xmlns:inkscape="http://www.inkscape.org/namespaces/inkscape"
   width="168.5121mm"
   height="73.882462mm"
   viewBox="0 0 168.5121 73.882462"
   version="1.1"
   id="svg8"
   inkscape:version="0.92.5 (2060ec1f9f, 2020-04-08)"
   sodipodi:docname="structure_while.svg">
  <defs
     id="defs2" />
  <sodipodi:namedview
     id="base"
     pagecolor="#ffffff"
     bordercolor="#666666"
     borderopacity="1.0"
     inkscape:pageopacity="0.0"
     inkscape:pageshadow="2"
     inkscape:zoom="1.4"
     inkscape:cx="207.05777"
     inkscape:cy="95.474723"
     inkscape:document-units="mm"
     inkscape:current-layer="layer1"
     showgrid="false"
     inkscape:measure-start="0,0"
     inkscape:measure-end="0,0"
     inkscape:window-width="1890"
     inkscape:window-height="1200"
     inkscape:window-x="31"
     inkscape:window-y="0"
     inkscape:window-maximized="1"
     fit-margin-top="5"
     fit-margin-left="10"
     fit-margin-right="10"
     fit-margin-bottom="5" />
  <metadata
     id="metadata5">
    <rdf:RDF>
      <cc:Work
         rdf:about="">
        <dc:format>image/svg+xml</dc:format>
        <dc:type
           rdf:resource="http://purl.org/dc/dcmitype/StillImage" />
        <dc:title />
      </cc:Work>
    </rdf:RDF>
  </metadata>
  <g
     inkscape:label="Calque 1"
     inkscape:groupmode="layer"
     id="layer1"
     transform="translate(-26.848093,-53.337045)">
    <path
       style="opacity:1;vector-effect:none;fill:#f3f3f3;fill-opacity:1;fill-rule:evenodd;stroke:none;stroke-width:2.14623141;stroke-linecap:butt;stroke-linejoin:miter;stroke-miterlimit:4;stroke-dasharray:none;stroke-dashoffset:0;stroke-opacity:1;paint-order:stroke markers fill"
       d="m 35.56757,76.602081 h 110.93599 c 1e-5,0 1e-5,7e-6 1e-5,1.6e-5 v 42.900263 c 0,1e-5 0,2e-5 -1e-5,2e-5 H 35.56757 c -9e-6,0 -1.6e-5,-1e-5 -1.6e-5,-2e-5 V 76.602097 c 0,-9e-6 7e-6,-1.6e-5 1.6e-5,-1.6e-5 z"
       id="rect1116" />
    <path
       inkscape:connector-curvature="0"
       id="path5675"
       style="font-style:normal;font-variant:normal;font-weight:500;font-stretch:normal;font-size:7.05555534px;line-height:1.39999998;font-family:'FiraCode Nerd Font Mono';-inkscape-font-specification:'FiraCode Nerd Font Mono, Medium';font-variant-ligatures:normal;font-variant-caps:normal;font-variant-numeric:normal;font-feature-settings:normal;text-align:start;letter-spacing:0px;word-spacing:0px;writing-mode:lr-tb;text-anchor:start;fill:#000000;fill-opacity:1;stroke:none;stroke-width:0.26458332"
       d="m 42.713147,85.557571 0.622336,-3.820854 h -0.752592 l -0.398006,3.31792 -0.495698,-2.833077 h -0.810484 l -0.531881,2.833077 -0.398005,-3.31792 h -0.781539 l 0.647664,3.820854 h 0.991396 l 0.463134,-2.713675 0.43057,2.713675 z" />
    <path
       inkscape:connector-curvature="0"
       id="path5677"
       style="font-style:normal;font-variant:normal;font-weight:500;font-stretch:normal;font-size:7.05555534px;line-height:1.39999998;font-family:'FiraCode Nerd Font Mono';-inkscape-font-specification:'FiraCode Nerd Font Mono, Medium';font-variant-ligatures:normal;font-variant-caps:normal;font-variant-numeric:normal;font-feature-settings:normal;text-align:start;letter-spacing:0px;word-spacing:0px;writing-mode:lr-tb;text-anchor:start;fill:#000000;fill-opacity:1;stroke:none;stroke-width:0.26458332"
       d="m 44.87684,80.122985 -0.810484,0.08684 v 5.347749 h 0.810484 v -2.731766 c 0.20624,-0.296695 0.528262,-0.571681 0.890086,-0.571681 0.387151,0 0.549971,0.18453 0.549971,0.644046 v 2.659401 h 0.810484 v -2.786039 c 0,-0.716411 -0.34735,-1.136126 -1.067378,-1.136126 -0.441425,0 -0.875613,0.191767 -1.183163,0.568063 z" />
    <path
       inkscape:connector-curvature="0"
       id="path5679"
       style="font-style:normal;font-variant:normal;font-weight:500;font-stretch:normal;font-size:7.05555534px;line-height:1.39999998;font-family:'FiraCode Nerd Font Mono';-inkscape-font-specification:'FiraCode Nerd Font Mono, Medium';font-variant-ligatures:normal;font-variant-caps:normal;font-variant-numeric:normal;font-feature-settings:normal;text-align:start;letter-spacing:0px;word-spacing:0px;writing-mode:lr-tb;text-anchor:start;fill:#000000;fill-opacity:1;stroke:none;stroke-width:0.26458332"
       d="m 49.931502,79.86609 c -0.311168,0 -0.528262,0.220712 -0.528262,0.506553 0,0.293077 0.217094,0.513789 0.528262,0.513789 0.318405,0 0.53188,-0.220712 0.53188,-0.513789 0,-0.285841 -0.213475,-0.506553 -0.53188,-0.506553 z m 0.564444,1.870627 h -1.917663 v 0.59339 h 1.107179 v 2.634074 H 48.5421 v 0.59339 h 2.99228 v -0.59339 h -1.038434 z" />
    <path
       inkscape:connector-curvature="0"
       id="path5681"
       style="font-style:normal;font-variant:normal;font-weight:500;font-stretch:normal;font-size:7.05555534px;line-height:1.39999998;font-family:'FiraCode Nerd Font Mono';-inkscape-font-specification:'FiraCode Nerd Font Mono, Medium';font-variant-ligatures:normal;font-variant-caps:normal;font-variant-numeric:normal;font-feature-settings:normal;text-align:start;letter-spacing:0px;word-spacing:0px;writing-mode:lr-tb;text-anchor:start;fill:#000000;fill-opacity:1;stroke:none;stroke-width:0.26458332"
       d="m 54.428956,80.202586 h -1.9647 v 0.597008 h 1.154216 v 3.643561 c 0,0.748975 0.445043,1.212109 1.215727,1.212109 0.426951,0 0.75621,-0.101311 0.984159,-0.217094 l -0.206239,-0.564445 c -0.188148,0.07598 -0.387151,0.126638 -0.604245,0.126638 -0.343732,0 -0.578918,-0.133874 -0.578918,-0.484843 z" />
    <path
       inkscape:connector-curvature="0"
       id="path5683"
       style="font-style:normal;font-variant:normal;font-weight:500;font-stretch:normal;font-size:7.05555534px;line-height:1.39999998;font-family:'FiraCode Nerd Font Mono';-inkscape-font-specification:'FiraCode Nerd Font Mono, Medium';font-variant-ligatures:normal;font-variant-caps:normal;font-variant-numeric:normal;font-feature-settings:normal;text-align:start;letter-spacing:0px;word-spacing:0px;writing-mode:lr-tb;text-anchor:start;fill:#000000;fill-opacity:1;stroke:none;stroke-width:0.26458332"
       d="m 57.764957,83.907657 h 2.532763 c 0.01085,-0.09769 0.01809,-0.231567 0.01809,-0.361823 0,-1.186781 -0.63319,-1.910428 -1.646296,-1.910428 -1.08547,0 -1.743988,0.868376 -1.743988,2.015356 0,1.186781 0.651282,2.004502 1.841681,2.004502 0.542735,0 1.038433,-0.188148 1.393019,-0.477607 l -0.350968,-0.484843 c -0.322023,0.213475 -0.629573,0.332877 -1.002251,0.332877 -0.55359,0 -0.995014,-0.332877 -1.04205,-1.118034 z m 0.911795,-1.671624 c 0.539116,0 0.83943,0.401624 0.853903,1.118034 h -1.769316 c 0.05065,-0.763447 0.405242,-1.118034 0.915413,-1.118034 z" />
    <path
       inkscape:connector-curvature="0"
       id="path5685"
       style="font-style:normal;font-variant:normal;font-weight:normal;font-stretch:normal;font-size:7.05555534px;line-height:1;font-family:'FiraCode Nerd Font Mono';-inkscape-font-specification:'FiraCode Nerd Font Mono, Normal';font-variant-ligatures:normal;font-variant-caps:normal;font-variant-numeric:normal;font-feature-settings:normal;text-align:start;letter-spacing:0px;word-spacing:0px;writing-mode:lr-tb;text-anchor:start;fill:#37abc8;fill-opacity:1;stroke:none;stroke-width:0.26458332"
       d="m 66.66941,83.024808 c 0,-1.51604 0.506552,-2.286724 1.548604,-3.212991 l -0.318405,-0.332878 c -1.175926,0.958832 -1.867008,1.895954 -1.867008,3.545869 0,1.649914 0.691082,2.587037 1.867008,3.545869 l 0.318405,-0.332878 C 67.183199,85.322386 66.66941,84.533611 66.66941,83.024808 Z" />
    <path
       inkscape:connector-curvature="0"
       id="path5687"
       style="font-style:normal;font-variant:normal;font-weight:normal;font-stretch:normal;font-size:7.05555534px;line-height:1;font-family:'FiraCode Nerd Font Mono';-inkscape-font-specification:'FiraCode Nerd Font Mono, Normal';font-variant-ligatures:normal;font-variant-caps:normal;font-variant-numeric:normal;font-feature-settings:normal;text-align:start;letter-spacing:0px;word-spacing:0px;writing-mode:lr-tb;text-anchor:start;fill:#37abc8;fill-opacity:1;stroke:none;stroke-width:0.26458332"
       d="m 70.569855,85.557571 1.056524,-1.635441 1.042051,1.635441 h 0.745356 l -1.403874,-2.037065 1.230199,-1.772934 H 72.54541 l -0.893704,1.418347 -0.882849,-1.418347 h -0.720028 l 1.233818,1.798262 -1.407493,2.011737 z" />
    <path
       inkscape:connector-curvature="0"
       id="path5689"
       style="font-style:normal;font-variant:normal;font-weight:normal;font-stretch:normal;font-size:7.05555534px;line-height:1;font-family:'FiraCode Nerd Font Mono';-inkscape-font-specification:'FiraCode Nerd Font Mono, Normal';font-variant-ligatures:normal;font-variant-caps:normal;font-variant-numeric:normal;font-feature-settings:normal;text-align:start;letter-spacing:0px;word-spacing:0px;writing-mode:lr-tb;text-anchor:start;fill:#37abc8;fill-opacity:1;stroke:none;stroke-width:0.26458332"
       d="m 81.576499,81.25911 -2.782421,1.718661 v 0.622336 l 2.749857,1.718661 0.325641,-0.445043 -2.554473,-1.581168 2.554473,-1.566695 z" />
    <path
       inkscape:connector-curvature="0"
       id="path5691"
       style="font-style:normal;font-variant:normal;font-weight:normal;font-stretch:normal;font-size:7.05555534px;line-height:1;font-family:'FiraCode Nerd Font Mono';-inkscape-font-specification:'FiraCode Nerd Font Mono, Normal';font-variant-ligatures:normal;font-variant-caps:normal;font-variant-numeric:normal;font-feature-settings:normal;text-align:start;letter-spacing:0px;word-spacing:0px;writing-mode:lr-tb;text-anchor:start;fill:#37abc8;fill-opacity:1;stroke:none;stroke-width:0.26458332"
       d="m 89.011947,80.495663 c -1.070997,0 -1.631823,0.919031 -1.631823,2.568946 0,1.65715 0.560826,2.576182 1.631823,2.576182 1.070997,0 1.631824,-0.919032 1.631824,-2.576182 0,-1.649915 -0.560827,-2.568946 -1.631824,-2.568946 z m 0,0.488461 c 0.285841,0 0.506553,0.09769 0.662137,0.322023 l -1.523276,3.061026 C 88.06397,84.04515 88.02417,83.618198 88.02417,83.064609 c 0,-1.47624 0.376296,-2.080485 0.987777,-2.080485 z m 0,4.164587 c -0.282222,0 -0.495698,-0.09769 -0.6549,-0.318405 l 1.51604,-3.075498 c 0.09046,0.322023 0.130256,0.752593 0.130256,1.309801 0,1.476239 -0.372678,2.084102 -0.991396,2.084102 z" />
    <path
       inkscape:connector-curvature="0"
       id="path5693"
       style="font-style:normal;font-variant:normal;font-weight:normal;font-stretch:normal;font-size:7.05555534px;line-height:1;font-family:'FiraCode Nerd Font Mono';-inkscape-font-specification:'FiraCode Nerd Font Mono, Normal';font-variant-ligatures:normal;font-variant-caps:normal;font-variant-numeric:normal;font-feature-settings:normal;text-align:start;letter-spacing:0px;word-spacing:0px;writing-mode:lr-tb;text-anchor:start;fill:#37abc8;fill-opacity:1;stroke:none;stroke-width:0.26458332"
       d="m 92.713393,85.000363 c 0,0.358206 0.274986,0.640428 0.633191,0.640428 0.365442,0 0.640427,-0.282222 0.640427,-0.640428 0,-0.350968 -0.274985,-0.63319 -0.640427,-0.63319 -0.358205,0 -0.633191,0.282222 -0.633191,0.63319 z" />
    <path
       inkscape:connector-curvature="0"
       id="path5695"
       style="font-style:normal;font-variant:normal;font-weight:normal;font-stretch:normal;font-size:7.05555534px;line-height:1;font-family:'FiraCode Nerd Font Mono';-inkscape-font-specification:'FiraCode Nerd Font Mono, Normal';font-variant-ligatures:normal;font-variant-caps:normal;font-variant-numeric:normal;font-feature-settings:normal;text-align:start;letter-spacing:0px;word-spacing:0px;writing-mode:lr-tb;text-anchor:start;fill:#37abc8;fill-opacity:1;stroke:none;stroke-width:0.26458332"
       d="m 99.048909,80.575264 h -2.637692 v 2.489345 h 0.488461 c 0.289459,-0.108547 0.481226,-0.166439 0.777921,-0.166439 0.499316,0 0.897322,0.260513 0.897322,1.06376 0,0.774302 -0.387151,1.175926 -1.042052,1.175926 -0.430569,0 -0.774302,-0.148347 -1.074615,-0.459515 l -0.376296,0.361823 c 0.387151,0.376296 0.843048,0.600627 1.443675,0.600627 1.027578,0 1.686097,-0.665755 1.686097,-1.660769 0,-0.995015 -0.546354,-1.563077 -1.360456,-1.563077 -0.300313,0 -0.557208,0.05066 -0.86114,0.213476 v -1.570314 h 1.968319 z" />
    <path
       inkscape:connector-curvature="0"
       id="path5697"
       style="font-style:normal;font-variant:normal;font-weight:normal;font-stretch:normal;font-size:7.05555534px;line-height:1;font-family:'FiraCode Nerd Font Mono';-inkscape-font-specification:'FiraCode Nerd Font Mono, Normal';font-variant-ligatures:normal;font-variant-caps:normal;font-variant-numeric:normal;font-feature-settings:normal;text-align:start;letter-spacing:0px;word-spacing:0px;writing-mode:lr-tb;text-anchor:start;fill:#37abc8;fill-opacity:1;stroke:none;stroke-width:0.26458332"
       d="m 102.67075,83.024808 c 0,1.508803 -0.51379,2.297578 -1.5486,3.212991 l 0.3184,0.332878 c 1.17593,-0.958832 1.86701,-1.895955 1.86701,-3.545869 0,-1.649915 -0.69108,-2.587037 -1.86701,-3.545869 l -0.3184,0.332878 c 1.04205,0.926267 1.5486,1.696951 1.5486,3.212991 z" />
    <path
       inkscape:connector-curvature="0"
       id="path5699"
       style="font-style:normal;font-variant:normal;font-weight:300;font-stretch:normal;font-size:7.05555534px;line-height:1.39999998;font-family:'FiraCode Nerd Font Mono';-inkscape-font-specification:'FiraCode Nerd Font Mono, Light';font-variant-ligatures:normal;font-variant-caps:normal;font-variant-numeric:normal;font-feature-settings:normal;text-align:start;letter-spacing:0px;word-spacing:0px;writing-mode:lr-tb;text-anchor:start;fill:#000000;fill-opacity:1;stroke:none;stroke-width:0.26458332"
       d="m 111.78506,79.522358 c -0.65852,0 -1.48348,0.206239 -1.39302,1.063761 l 0.1592,1.487094 c 0.0507,0.477606 -0.047,0.774302 -1.12527,0.774302 v 0.354586 c 1.07462,0 1.17593,0.30755 1.12527,0.781539 l -0.1592,1.476239 c -0.0941,0.864758 0.7345,1.067379 1.39302,1.067379 v -0.383533 c -0.56083,0 -1.02758,-0.137493 -0.98054,-0.611481 l 0.16282,-1.610114 c 0.0579,-0.586154 -0.11579,-0.814103 -0.54274,-0.897322 0.42334,-0.08684 0.59701,-0.350969 0.54274,-0.897322 l -0.16282,-1.610114 c -0.047,-0.463134 0.42333,-0.611481 0.98054,-0.611481 z" />
    <path
       inkscape:connector-curvature="0"
       id="path5701"
       style="font-style:normal;font-variant:normal;font-weight:300;font-stretch:normal;font-size:7.05555534px;line-height:1;font-family:'FiraCode Nerd Font Mono';-inkscape-font-specification:'FiraCode Nerd Font Mono, Light';font-variant-ligatures:normal;font-variant-caps:normal;font-variant-numeric:normal;font-feature-settings:normal;text-align:start;letter-spacing:0px;word-spacing:0px;writing-mode:lr-tb;text-anchor:start;fill:#000000;fill-opacity:1;stroke:none;stroke-width:0.26458332"
       d="m 48.770049,95.435349 1.154217,-1.693334 1.12527,1.693334 h 0.582536 L 50.20287,93.40552 51.465633,91.636204 h -0.539117 l -0.984159,1.472621 -0.96245,-1.472621 h -0.55359 l 1.244672,1.791025 -1.43282,2.00812 z" />
    <path
       inkscape:connector-curvature="0"
       id="path5703"
       style="font-style:normal;font-variant:normal;font-weight:300;font-stretch:normal;font-size:7.05555534px;line-height:1;font-family:'FiraCode Nerd Font Mono';-inkscape-font-specification:'FiraCode Nerd Font Mono, Light';font-variant-ligatures:normal;font-variant-caps:normal;font-variant-numeric:normal;font-feature-settings:normal;text-align:start;letter-spacing:0px;word-spacing:0px;writing-mode:lr-tb;text-anchor:start;fill:#000000;fill-opacity:1;stroke:none;stroke-width:0.26458332"
       d="m 59.288222,91.035577 -1.903191,2.134758 1.903191,2.134757 0.361824,-0.303931 -1.190399,-1.309801 c -0.09769,-0.104929 -0.206239,-0.22433 -0.347351,-0.311168 h 6.082251 v -0.419715 h -6.075014 c 0.173675,-0.112165 0.173675,-0.12302 0.340114,-0.311168 l 1.190399,-1.309801 z" />
    <path
       inkscape:connector-curvature="0"
       id="path5705"
       style="font-style:normal;font-variant:normal;font-weight:300;font-stretch:normal;font-size:7.05555534px;line-height:1;font-family:'FiraCode Nerd Font Mono';-inkscape-font-specification:'FiraCode Nerd Font Mono, Light';font-variant-ligatures:normal;font-variant-caps:normal;font-variant-numeric:normal;font-feature-settings:normal;text-align:start;letter-spacing:0px;word-spacing:0px;writing-mode:lr-tb;text-anchor:start;fill:#000000;fill-opacity:1;stroke:none;stroke-width:0.26458332"
       d="m 72.72994,91.560221 c -0.709174,0 -1.08547,0.369059 -1.382165,0.987777 l -0.08322,-0.911794 h -0.96245 v 0.379914 h 0.618718 v 3.042934 h -0.618718 v 0.376297 h 1.848918 v -0.376297 h -0.781539 v -1.765698 c 0.271368,-0.90094 0.691083,-1.302564 1.306182,-1.302564 0.03256,0 0.06151,0 0.09046,0.0036 l -0.0072,0.09407 v 0.741738 h 0.434188 l 0.05066,-1.194017 c -0.173675,-0.04342 -0.314786,-0.07598 -0.513789,-0.07598 z" />
    <path
       inkscape:connector-curvature="0"
       id="path5707"
       style="font-style:normal;font-variant:normal;font-weight:300;font-stretch:normal;font-size:7.05555534px;line-height:1;font-family:'FiraCode Nerd Font Mono';-inkscape-font-specification:'FiraCode Nerd Font Mono, Light';font-variant-ligatures:normal;font-variant-caps:normal;font-variant-numeric:normal;font-feature-settings:normal;text-align:start;letter-spacing:0px;word-spacing:0px;writing-mode:lr-tb;text-anchor:start;fill:#000000;fill-opacity:1;stroke:none;stroke-width:0.26458332"
       d="m 75.056453,91.636204 h -0.448661 v 2.771566 c 0,0.698319 0.365442,1.099943 1.099943,1.099943 0.441425,0 0.919032,-0.217094 1.2302,-0.604245 l 0.05066,0.531881 h 0.376296 V 91.636204 H 76.91623 v 2.833076 c -0.220712,0.347351 -0.672991,0.662137 -1.143362,0.662137 -0.499316,0 -0.71641,-0.238803 -0.71641,-0.77792 z" />
    <path
       inkscape:connector-curvature="0"
       id="path5709"
       style="font-style:normal;font-variant:normal;font-weight:300;font-stretch:normal;font-size:7.05555534px;line-height:1;font-family:'FiraCode Nerd Font Mono';-inkscape-font-specification:'FiraCode Nerd Font Mono, Light';font-variant-ligatures:normal;font-variant-caps:normal;font-variant-numeric:normal;font-feature-settings:normal;text-align:start;letter-spacing:0px;word-spacing:0px;writing-mode:lr-tb;text-anchor:start;fill:#000000;fill-opacity:1;stroke:none;stroke-width:0.26458332"
       d="m 78.949662,95.435349 h 0.448661 v -2.800513 c 0.195384,-0.303932 0.622336,-0.694701 1.132507,-0.694701 0.662136,0 0.738119,0.358205 0.738119,1.226581 v 2.268633 h 0.448661 v -2.749858 c 0,-0.698319 -0.300313,-1.118034 -1.078233,-1.118034 -0.426952,0 -0.976923,0.227949 -1.277237,0.622336 l -0.03618,-0.553589 h -0.376296 z" />
    <path
       inkscape:connector-curvature="0"
       id="path5711"
       style="font-style:normal;font-variant:normal;font-weight:300;font-stretch:normal;font-size:7.05555534px;line-height:1;font-family:'FiraCode Nerd Font Mono';-inkscape-font-specification:'FiraCode Nerd Font Mono, Light';font-variant-ligatures:normal;font-variant-caps:normal;font-variant-numeric:normal;font-feature-settings:normal;text-align:start;letter-spacing:0px;word-spacing:0px;writing-mode:lr-tb;text-anchor:start;fill:#000000;fill-opacity:1;stroke:none;stroke-width:0.26458332"
       d="m 84.673696,89.917543 c -0.217094,0 -0.365441,0.159202 -0.365441,0.358205 0,0.213476 0.148347,0.372678 0.365441,0.372678 0.231567,0 0.376297,-0.159202 0.376297,-0.372678 0,-0.199003 -0.14473,-0.358205 -0.376297,-0.358205 z m 0.423334,1.718661 h -1.613733 v 0.390769 h 1.165072 v 3.017607 h -1.201254 v 0.390769 h 2.753476 V 95.04458 H 85.09703 Z" />
    <path
       inkscape:connector-curvature="0"
       id="path5713"
       style="font-style:normal;font-variant:normal;font-weight:300;font-stretch:normal;font-size:7.05555534px;line-height:1;font-family:'FiraCode Nerd Font Mono';-inkscape-font-specification:'FiraCode Nerd Font Mono, Light';font-variant-ligatures:normal;font-variant-caps:normal;font-variant-numeric:normal;font-feature-settings:normal;text-align:start;letter-spacing:0px;word-spacing:0px;writing-mode:lr-tb;text-anchor:start;fill:#000000;fill-opacity:1;stroke:none;stroke-width:0.26458332"
       d="m 89.82605,90.036944 c -0.71641,0 -1.327892,0.401624 -1.327892,1.089089 v 0.821339 h -0.940741 v 0.383532 h 0.940741 v 3.104445 h 0.448661 v -3.104445 h 1.259145 l 0.04704,-0.383532 h -1.306182 v -0.850285 c 0,-0.441425 0.296695,-0.665755 0.850285,-0.665755 0.296695,0 0.578917,0.05427 0.814103,0.166439 l 0.16282,-0.365442 c -0.289462,-0.126638 -0.582539,-0.195385 -0.94798,-0.195385 z" />
    <path
       inkscape:connector-curvature="0"
       id="path5715"
       style="font-style:normal;font-variant:normal;font-weight:300;font-stretch:normal;font-size:7.05555534px;line-height:1;font-family:'FiraCode Nerd Font Mono';-inkscape-font-specification:'FiraCode Nerd Font Mono, Light';font-variant-ligatures:normal;font-variant-caps:normal;font-variant-numeric:normal;font-feature-settings:normal;text-align:start;letter-spacing:0px;word-spacing:0px;writing-mode:lr-tb;text-anchor:start;fill:#000000;fill-opacity:1;stroke:none;stroke-width:0.26458332"
       d="m 92.619319,92.902585 c 0,-1.613732 0.535499,-2.369943 1.599259,-3.25641 l -0.217094,-0.253276 c -1.183162,0.951595 -1.867008,1.841681 -1.867008,3.509686 0,1.668006 0.683846,2.558091 1.867008,3.509687 l 0.217094,-0.253277 c -1.034814,-0.853903 -1.599259,-1.653532 -1.599259,-3.25641 z" />
    <path
       inkscape:connector-curvature="0"
       id="path5717"
       style="font-style:normal;font-variant:normal;font-weight:300;font-stretch:normal;font-size:7.05555534px;line-height:1;font-family:'FiraCode Nerd Font Mono';-inkscape-font-specification:'FiraCode Nerd Font Mono, Light';font-variant-ligatures:normal;font-variant-caps:normal;font-variant-numeric:normal;font-feature-settings:normal;text-align:start;letter-spacing:0px;word-spacing:0px;writing-mode:lr-tb;text-anchor:start;fill:#000000;fill-opacity:1;stroke:none;stroke-width:0.26458332"
       d="m 98.12626,95.048198 v -4.584302 h -0.39077 l -1.443675,0.897322 0.199003,0.329259 1.175926,-0.709174 v 4.066895 h -1.230199 v 0.387151 h 2.760712 v -0.387151 z" />
    <path
       inkscape:connector-curvature="0"
       id="path5719"
       style="font-style:normal;font-variant:normal;font-weight:300;font-stretch:normal;font-size:7.05555534px;line-height:1;font-family:'FiraCode Nerd Font Mono';-inkscape-font-specification:'FiraCode Nerd Font Mono, Light';font-variant-ligatures:normal;font-variant-caps:normal;font-variant-numeric:normal;font-feature-settings:normal;text-align:start;letter-spacing:0px;word-spacing:0px;writing-mode:lr-tb;text-anchor:start;fill:#000000;fill-opacity:1;stroke:none;stroke-width:0.26458332"
       d="m 102.77206,92.902585 c 0,1.602878 -0.56444,2.402507 -1.59926,3.25641 l 0.2171,0.253277 c 1.18316,-0.951596 1.867,-1.841681 1.867,-3.509687 0,-1.668005 -0.68384,-2.558091 -1.867,-3.509686 l -0.2171,0.253276 c 1.06376,0.886467 1.59926,1.642678 1.59926,3.25641 z" />
    <path
       inkscape:connector-curvature="0"
       id="path5721"
       style="font-style:normal;font-variant:normal;font-weight:300;font-stretch:normal;font-size:7.05555534px;line-height:1;font-family:'FiraCode Nerd Font Mono';-inkscape-font-specification:'FiraCode Nerd Font Mono, Light';font-variant-ligatures:normal;font-variant-caps:normal;font-variant-numeric:normal;font-feature-settings:normal;text-align:start;letter-spacing:0px;word-spacing:0px;writing-mode:lr-tb;text-anchor:start;fill:#000000;fill-opacity:1;stroke:none;stroke-width:0.26458332"
       d="m 50.134123,101.44523 c -0.488461,0 -0.886467,0.24243 -1.157835,0.62958 l -0.05065,-0.56083 h -0.36906 v 5.31157 l 0.448661,-0.0615 v -1.83083 c 0.260513,0.30393 0.607864,0.45228 1.034815,0.45228 1.005869,0 1.465385,-0.82857 1.465385,-1.97194 0,-1.17954 -0.350969,-1.96832 -1.371311,-1.96832 z m -0.0796,0.38354 c 0.665755,0 0.958832,0.56806 0.958832,1.57755 0,1.06014 -0.343732,1.57031 -1.04567,1.57031 -0.394387,0 -0.752592,-0.20262 -0.96245,-0.51741 v -1.96832 c 0.217094,-0.3184 0.578918,-0.66213 1.049288,-0.66213 z" />
    <path
       inkscape:connector-curvature="0"
       id="path5723"
       style="font-style:normal;font-variant:normal;font-weight:300;font-stretch:normal;font-size:7.05555534px;line-height:1;font-family:'FiraCode Nerd Font Mono';-inkscape-font-specification:'FiraCode Nerd Font Mono, Light';font-variant-ligatures:normal;font-variant-caps:normal;font-variant-numeric:normal;font-feature-settings:normal;text-align:start;letter-spacing:0px;word-spacing:0px;writing-mode:lr-tb;text-anchor:start;fill:#000000;fill-opacity:1;stroke:none;stroke-width:0.26458332"
       d="m 55.362461,101.438 c -0.709174,0 -1.08547,0.36906 -1.382166,0.98778 l -0.08322,-0.9118 h -0.96245 v 0.37992 h 0.618718 v 3.04293 h -0.618718 v 0.3763 h 1.848917 v -0.3763 h -0.781538 v -1.7657 c 0.271367,-0.90094 0.691082,-1.30256 1.306182,-1.30256 0.03256,0 0.06151,0 0.09046,0.004 l -0.0072,0.0941 v 0.74174 h 0.434188 l 0.05065,-1.19402 c -0.173675,-0.0434 -0.314787,-0.076 -0.513789,-0.076 z" />
    <path
       inkscape:connector-curvature="0"
       id="path5725"
       style="font-style:normal;font-variant:normal;font-weight:300;font-stretch:normal;font-size:7.05555534px;line-height:1;font-family:'FiraCode Nerd Font Mono';-inkscape-font-specification:'FiraCode Nerd Font Mono, Light';font-variant-ligatures:normal;font-variant-caps:normal;font-variant-numeric:normal;font-feature-settings:normal;text-align:start;letter-spacing:0px;word-spacing:0px;writing-mode:lr-tb;text-anchor:start;fill:#000000;fill-opacity:1;stroke:none;stroke-width:0.26458332"
       d="m 58.622478,99.79532 c -0.217094,0 -0.365441,0.159202 -0.365441,0.35821 0,0.21347 0.148347,0.37267 0.365441,0.37267 0.231567,0 0.376296,-0.1592 0.376296,-0.37267 0,-0.199008 -0.144729,-0.35821 -0.376296,-0.35821 z m 0.423334,1.71866 h -1.613733 v 0.39077 h 1.165072 v 3.01761 h -1.201254 v 0.39077 h 2.753476 v -0.39077 h -1.103561 z" />
    <path
       inkscape:connector-curvature="0"
       id="path5727"
       style="font-style:normal;font-variant:normal;font-weight:300;font-stretch:normal;font-size:7.05555534px;line-height:1;font-family:'FiraCode Nerd Font Mono';-inkscape-font-specification:'FiraCode Nerd Font Mono, Light';font-variant-ligatures:normal;font-variant-caps:normal;font-variant-numeric:normal;font-feature-settings:normal;text-align:start;letter-spacing:0px;word-spacing:0px;writing-mode:lr-tb;text-anchor:start;fill:#000000;fill-opacity:1;stroke:none;stroke-width:0.26458332"
       d="m 61.582182,105.31313 h 0.448661 v -2.80052 c 0.195385,-0.30393 0.622336,-0.6947 1.132507,-0.6947 0.662137,0 0.73812,0.35821 0.73812,1.22658 v 2.26864 h 0.448661 v -2.74986 c 0,-0.69832 -0.300313,-1.11804 -1.078234,-1.11804 -0.426951,0 -0.976923,0.22795 -1.277236,0.62234 l -0.03618,-0.55359 h -0.376297 z" />
    <path
       inkscape:connector-curvature="0"
       id="path5729"
       style="font-style:normal;font-variant:normal;font-weight:300;font-stretch:normal;font-size:7.05555534px;line-height:1;font-family:'FiraCode Nerd Font Mono';-inkscape-font-specification:'FiraCode Nerd Font Mono, Light';font-variant-ligatures:normal;font-variant-caps:normal;font-variant-numeric:normal;font-feature-settings:normal;text-align:start;letter-spacing:0px;word-spacing:0px;writing-mode:lr-tb;text-anchor:start;fill:#000000;fill-opacity:1;stroke:none;stroke-width:0.26458332"
       d="m 68.822259,105.13221 -0.195385,-0.32202 c -0.213476,0.11217 -0.455897,0.18453 -0.745356,0.18453 -0.564444,0 -0.781539,-0.24966 -0.781539,-0.68746 v -2.41698 h 1.277237 l 0.06151,-0.3763 h -1.338747 v -0.92989 l -0.44866,0.0543 v 0.87561 h -0.897322 v 0.3763 h 0.897322 v 2.42783 c 0,0.61148 0.455897,1.06738 1.219344,1.06738 0.303932,0 0.701938,-0.0905 0.951596,-0.25328 z" />
    <path
       inkscape:connector-curvature="0"
       id="path5731"
       style="font-style:normal;font-variant:normal;font-weight:300;font-stretch:normal;font-size:7.05555534px;line-height:1;font-family:'FiraCode Nerd Font Mono';-inkscape-font-specification:'FiraCode Nerd Font Mono, Light';font-variant-ligatures:normal;font-variant-caps:normal;font-variant-numeric:normal;font-feature-settings:normal;text-align:start;letter-spacing:0px;word-spacing:0px;writing-mode:lr-tb;text-anchor:start;fill:#000000;fill-opacity:1;stroke:none;stroke-width:0.26458332"
       d="m 70.909969,102.78036 c 0,-1.61373 0.535498,-2.36994 1.599259,-3.256408 l -0.217094,-0.253276 c -1.183163,0.951594 -1.867009,1.841684 -1.867009,3.509684 0,1.66801 0.683846,2.55809 1.867009,3.50969 l 0.217094,-0.25328 c -1.034815,-0.8539 -1.599259,-1.65353 -1.599259,-3.25641 z" />
    <path
       inkscape:connector-curvature="0"
       id="path5733"
       style="font-style:normal;font-variant:normal;font-weight:300;font-stretch:normal;font-size:7.05555534px;line-height:1;font-family:'FiraCode Nerd Font Mono';-inkscape-font-specification:'FiraCode Nerd Font Mono, Light';font-variant-ligatures:normal;font-variant-caps:normal;font-variant-numeric:normal;font-feature-settings:normal;text-align:start;letter-spacing:0px;word-spacing:0px;writing-mode:lr-tb;text-anchor:start;fill:#000000;fill-opacity:1;stroke:none;stroke-width:0.26458332"
       d="m 74.821268,105.31313 1.154217,-1.69334 1.12527,1.69334 h 0.582536 l -1.429202,-2.02983 1.262763,-1.76932 h -0.539117 l -0.984159,1.47262 -0.96245,-1.47262 h -0.55359 l 1.244672,1.79103 -1.43282,2.00812 z" />
    <path
       inkscape:connector-curvature="0"
       id="path5735"
       style="font-style:normal;font-variant:normal;font-weight:300;font-stretch:normal;font-size:7.05555534px;line-height:1;font-family:'FiraCode Nerd Font Mono';-inkscape-font-specification:'FiraCode Nerd Font Mono, Light';font-variant-ligatures:normal;font-variant-caps:normal;font-variant-numeric:normal;font-feature-settings:normal;text-align:start;letter-spacing:0px;word-spacing:0px;writing-mode:lr-tb;text-anchor:start;fill:#000000;fill-opacity:1;stroke:none;stroke-width:0.26458332"
       d="m 81.06271,102.78036 c 0,1.60288 -0.564444,2.40251 -1.599259,3.25641 l 0.217094,0.25328 c 1.183162,-0.9516 1.867008,-1.84168 1.867008,-3.50969 0,-1.668 -0.683846,-2.55809 -1.867008,-3.509684 l -0.217094,0.253276 c 1.06376,0.886468 1.599259,1.642678 1.599259,3.256408 z" />
    <path
       inkscape:connector-curvature="0"
       id="path5737"
       style="font-style:normal;font-variant:normal;font-weight:300;font-stretch:normal;font-size:7.05555534px;line-height:1.39999998;font-family:'FiraCode Nerd Font Mono';-inkscape-font-specification:'FiraCode Nerd Font Mono, Light';font-variant-ligatures:normal;font-variant-caps:normal;font-variant-numeric:normal;font-feature-settings:normal;text-align:start;letter-spacing:0px;word-spacing:0px;writing-mode:lr-tb;text-anchor:start;fill:#000000;fill-opacity:1;stroke:none;stroke-width:0.26458332"
       d="m 40.18762,109.15569 v 0.38353 c 0.560826,0 1.027578,0.14835 0.980541,0.61148 l -0.16282,1.61012 c -0.05427,0.54273 0.137493,0.8141 0.647664,0.90817 -0.549972,0.076 -0.705556,0.2967 -0.647664,0.88647 l 0.16282,1.61012 c 0.04704,0.47398 -0.423333,0.61148 -0.980541,0.61148 v 0.38353 c 0.658518,0 1.483476,-0.20624 1.39302,-1.06376 l -0.159202,-1.47986 c -0.05066,-0.47399 0.151965,-0.78154 1.12527,-0.78154 v -0.35458 c -0.973305,0 -1.175926,-0.2967 -1.12527,-0.77431 l 0.159202,-1.48347 c 0.09407,-0.86476 -0.734502,-1.06738 -1.39302,-1.06738 z" />
    <text
       xml:space="preserve"
       style="font-style:normal;font-weight:normal;font-size:4.95146227px;line-height:1;font-family:sans-serif;letter-spacing:0px;word-spacing:0px;fill:#000000;fill-opacity:1;stroke:none;stroke-width:0.61893278"
       x="187.95634"
       y="83.962624"
       id="text921"
       transform="scale(0.83889549,1.1920436)"><tspan
         sodipodi:role="line"
         id="tspan919"
         x="187.95634"
         y="87.803741"
         style="font-style:normal;font-variant:normal;font-weight:normal;font-stretch:normal;font-size:16.50487328px;font-family:'Roboto Condensed';-inkscape-font-specification:'Roboto Condensed, Normal';font-variant-ligatures:normal;font-variant-caps:normal;font-variant-numeric:normal;font-feature-settings:normal;text-align:start;writing-mode:lr-tb;text-anchor:start;stroke-width:0.61893278" /></text>
    <g
       aria-label="}"
       transform="scale(1.0105062,0.98960303)"
       style="font-style:normal;font-weight:normal;font-size:2.09465981px;line-height:1;font-family:sans-serif;letter-spacing:0px;word-spacing:0px;fill:#d40000;fill-opacity:1;stroke:none;stroke-width:0.26183248"
       id="text979">
      <path
         d="m 152.72437,99.327802 v 1.011878 q -1.82328,0 -1.82328,2.52013 v 2.09057 q 0,1.50827 -0.5823,2.68242 -0.57276,1.1837 -2.14785,1.73737 l -0.24819,-0.77323 q 1.04051,-0.42002 1.47962,-1.38416 0.43912,-0.96415 0.43912,-2.2624 v -2.06193 q 0,-2.37695 1.58463,-3.054711 -1.58463,-0.677765 -1.58463,-3.045167 v -2.071476 q 0,-1.298253 -0.42957,-2.281488 -0.42002,-0.983236 -1.47008,-1.393713 l 0.2291,-0.763678 q 1.57509,0.553667 2.14785,1.746914 0.5823,1.183701 0.5823,2.691965 v 2.10966 q 0,2.501046 1.82328,2.501046 z"
         style="font-style:normal;font-variant:normal;font-weight:300;font-stretch:normal;font-size:19.55015755px;font-family:'Roboto Condensed';-inkscape-font-specification:'Roboto Condensed, Light';font-variant-ligatures:normal;font-variant-caps:normal;font-variant-numeric:normal;font-feature-settings:normal;text-align:start;writing-mode:lr-tb;text-anchor:start;fill:#d40000;fill-opacity:1;stroke-width:0.26183248"
         id="path5672" />
    </g>
    <g
       aria-label="}"
       transform="matrix(0,-0.75925666,1.3170777,0,0,0)"
       style="font-style:normal;font-weight:normal;font-size:2.78781438px;line-height:1;font-family:sans-serif;letter-spacing:0px;word-spacing:0px;fill:#00aad4;fill-opacity:1;stroke:none;stroke-width:0.3484768"
       id="text979-3-9">
      <path
         d="m -93.208857,63.526389 v 1.346717 q -2.426633,0 -2.426633,3.35409 v 2.782369 q 0,2.007372 -0.774998,3.570073 -0.762293,1.575405 -2.858599,2.312288 l -0.330327,-1.029095 q 1.384833,-0.559015 1.969257,-1.842208 0.584425,-1.283194 0.584425,-3.011058 V 68.26531 q 0,-3.163516 2.109011,-4.065562 -2.109011,-0.902047 -2.109011,-4.052858 v -2.75696 q 0,-1.727864 -0.57172,-3.036467 -0.559015,-1.308603 -1.956552,-1.854913 l 0.304917,-1.016391 q 2.096306,0.736883 2.858599,2.324994 0.774998,1.575405 0.774998,3.582777 v 2.807779 q 0,3.32868 2.426633,3.32868 z"
         style="font-style:normal;font-variant:normal;font-weight:300;font-stretch:normal;font-size:26.01960182px;font-family:'Roboto Condensed';-inkscape-font-specification:'Roboto Condensed, Light';font-variant-ligatures:normal;font-variant-caps:normal;font-variant-numeric:normal;font-feature-settings:normal;text-align:start;writing-mode:lr-tb;text-anchor:start;fill:#00aad4;fill-opacity:1;stroke-width:0.3484768"
         id="path5669" />
    </g>
    <g
       aria-label="Condition"
       style="font-style:normal;font-weight:normal;font-size:2.11666656px;line-height:1;font-family:sans-serif;letter-spacing:0px;word-spacing:0px;fill:#00aad4;fill-opacity:1;stroke:none;stroke-width:0.26458332"
       id="text1056-7">
      <path
         d="m 75.560451,65.724852 h 0.570508 q -0.03101,0.697632 -0.390674,1.097607 -0.359668,0.399976 -1.063501,0.399976 -0.679029,0 -1.079004,-0.514697 -0.396875,-0.517798 -0.396875,-1.389063 v -0.834057 q 0,-0.868164 0.403076,-1.382862 0.406177,-0.517797 1.125513,-0.517797 0.657324,0 1.013891,0.390673 0.356568,0.390674 0.387574,1.119312 h -0.570508 q -0.03411,-0.533301 -0.223242,-0.775147 -0.189136,-0.244946 -0.607715,-0.244946 -0.496094,0 -0.728638,0.384473 -0.229443,0.384472 -0.229443,1.020092 v 0.840259 q 0,0.592212 0.201538,1.00459 0.204638,0.412378 0.703833,0.412378 0.468188,0 0.654223,-0.235645 0.186036,-0.235644 0.229444,-0.775146 z"
         style="font-style:normal;font-variant:normal;font-weight:normal;font-stretch:normal;font-size:6.3499999px;font-family:'Roboto Condensed';-inkscape-font-specification:'Roboto Condensed, Normal';font-variant-ligatures:normal;font-variant-caps:normal;font-variant-numeric:normal;font-feature-settings:normal;text-align:start;writing-mode:lr-tb;text-anchor:start;fill:#00aad4;fill-opacity:1;stroke-width:0.26458332"
         id="path5650" />
      <path
         d="m 76.710768,65.324876 q 0,-0.784448 0.375171,-1.181323 0.375171,-0.399975 0.917773,-0.399975 0.548804,0 0.923975,0.399975 0.378272,0.396875 0.378272,1.181323 v 0.319361 q 0,0.784448 -0.378272,1.181323 -0.375171,0.396875 -0.917773,0.396875 -0.545703,0 -0.923975,-0.396875 -0.375171,-0.396875 -0.375171,-1.181323 z m 0.548804,0.319361 q 0,0.555005 0.21394,0.834057 0.213941,0.275953 0.536402,0.275953 0.725537,0 0.747241,-1.047999 v -0.381372 q 0,-0.548803 -0.217041,-0.827856 -0.213941,-0.282153 -0.536402,-0.282153 -0.31936,0 -0.5333,0.282153 -0.21084,0.279053 -0.21084,0.827856 z"
         style="font-style:normal;font-variant:normal;font-weight:normal;font-stretch:normal;font-size:6.3499999px;font-family:'Roboto Condensed';-inkscape-font-specification:'Roboto Condensed, Normal';font-variant-ligatures:normal;font-variant-caps:normal;font-variant-numeric:normal;font-feature-settings:normal;text-align:start;writing-mode:lr-tb;text-anchor:start;fill:#00aad4;fill-opacity:1;stroke-width:0.26458332"
         id="path5652" />
      <path
         d="m 81.191115,64.227269 q -0.201538,0 -0.365869,0.136426 -0.161231,0.136426 -0.26355,0.356567 v 2.440161 h -0.548804 v -3.354834 h 0.517798 l 0.0155,0.356568 q 0.31936,-0.418579 0.815454,-0.418579 0.412378,0 0.657324,0.279052 0.244947,0.279053 0.244947,0.939478 v 2.198315 h -0.548804 v -2.204516 q 0,-0.393775 -0.130225,-0.561206 -0.130224,-0.167432 -0.393774,-0.167432 z"
         style="font-style:normal;font-variant:normal;font-weight:normal;font-stretch:normal;font-size:6.3499999px;font-family:'Roboto Condensed';-inkscape-font-specification:'Roboto Condensed, Normal';font-variant-ligatures:normal;font-variant-caps:normal;font-variant-numeric:normal;font-feature-settings:normal;text-align:start;writing-mode:lr-tb;text-anchor:start;fill:#00aad4;fill-opacity:1;stroke-width:0.26458332"
         id="path5654" />
      <path
         d="m 84.893214,67.160423 -0.0248,-0.362768 q -0.266651,0.42478 -0.778248,0.42478 -0.496093,0 -0.809252,-0.390674 -0.310059,-0.390674 -0.310059,-1.187524 v -0.313159 q 0,-0.827857 0.310059,-1.206128 0.310058,-0.381372 0.815454,-0.381372 0.486792,0 0.750341,0.390673 v -1.736328 h 0.545704 v 4.7625 z m -1.373559,-1.516186 q 0,0.561206 0.167431,0.827856 0.167432,0.26355 0.545703,0.26355 0.409278,0 0.613916,-0.415478 v -1.683619 q -0.21394,-0.409277 -0.607714,-0.409277 -0.378272,0 -0.548804,0.26665 -0.167432,0.266651 -0.170532,0.815455 z"
         style="font-style:normal;font-variant:normal;font-weight:normal;font-stretch:normal;font-size:6.3499999px;font-family:'Roboto Condensed';-inkscape-font-specification:'Roboto Condensed, Normal';font-variant-ligatures:normal;font-variant-caps:normal;font-variant-numeric:normal;font-feature-settings:normal;text-align:start;writing-mode:lr-tb;text-anchor:start;fill:#00aad4;fill-opacity:1;stroke-width:0.26458332"
         id="path5656" />
      <path
         d="m 86.251271,62.915721 q 0,-0.139526 0.07751,-0.235644 0.07752,-0.09612 0.232544,-0.09612 0.151929,0 0.232544,0.09612 0.08061,0.09612 0.08061,0.235644 0,0.133325 -0.08061,0.229444 -0.08062,0.09302 -0.232544,0.09302 -0.155029,0 -0.232544,-0.09302 -0.07751,-0.09612 -0.07751,-0.229444 z m 0.576709,0.889868 v 3.354834 h -0.545703 v -3.354834 z"
         style="font-style:normal;font-variant:normal;font-weight:normal;font-stretch:normal;font-size:6.3499999px;font-family:'Roboto Condensed';-inkscape-font-specification:'Roboto Condensed, Normal';font-variant-ligatures:normal;font-variant-caps:normal;font-variant-numeric:normal;font-feature-settings:normal;text-align:start;writing-mode:lr-tb;text-anchor:start;fill:#00aad4;fill-opacity:1;stroke-width:0.26458332"
         id="path5658" />
      <path
         d="m 88.917775,67.160423 q -0.15813,0.06201 -0.384473,0.06201 -0.26665,0 -0.468189,-0.195337 -0.198437,-0.195337 -0.198437,-0.700732 v -2.080493 h -0.511597 v -0.440284 h 0.511597 v -0.815454 h 0.548804 v 0.815454 h 0.505395 v 0.440284 H 88.41548 v 2.083593 q 0,0.257349 0.08682,0.328662 0.08992,0.07131 0.201538,0.07131 0.117822,0 0.217041,-0.03721 z"
         style="font-style:normal;font-variant:normal;font-weight:normal;font-stretch:normal;font-size:6.3499999px;font-family:'Roboto Condensed';-inkscape-font-specification:'Roboto Condensed, Normal';font-variant-ligatures:normal;font-variant-caps:normal;font-variant-numeric:normal;font-feature-settings:normal;text-align:start;writing-mode:lr-tb;text-anchor:start;fill:#00aad4;fill-opacity:1;stroke-width:0.26458332"
         id="path5660" />
      <path
         d="m 89.587502,62.915721 q 0,-0.139526 0.07752,-0.235644 0.07751,-0.09612 0.232543,-0.09612 0.151929,0 0.232544,0.09612 0.08062,0.09612 0.08062,0.235644 0,0.133325 -0.08062,0.229444 -0.08062,0.09302 -0.232544,0.09302 -0.155029,0 -0.232543,-0.09302 -0.07752,-0.09612 -0.07752,-0.229444 z m 0.576709,0.889868 v 3.354834 h -0.545703 v -3.354834 z"
         style="font-style:normal;font-variant:normal;font-weight:normal;font-stretch:normal;font-size:6.3499999px;font-family:'Roboto Condensed';-inkscape-font-specification:'Roboto Condensed, Normal';font-variant-ligatures:normal;font-variant-caps:normal;font-variant-numeric:normal;font-feature-settings:normal;text-align:start;writing-mode:lr-tb;text-anchor:start;fill:#00aad4;fill-opacity:1;stroke-width:0.26458332"
         id="path5662" />
      <path
         d="m 90.917653,65.324876 q 0,-0.784448 0.375171,-1.181323 0.375171,-0.399975 0.917774,-0.399975 0.548803,0 0.923974,0.399975 0.378272,0.396875 0.378272,1.181323 v 0.319361 q 0,0.784448 -0.378272,1.181323 -0.375171,0.396875 -0.917773,0.396875 -0.545703,0 -0.923975,-0.396875 -0.375171,-0.396875 -0.375171,-1.181323 z m 0.548804,0.319361 q 0,0.555005 0.21394,0.834057 0.213941,0.275953 0.536402,0.275953 0.725537,0 0.747241,-1.047999 v -0.381372 q 0,-0.548803 -0.217041,-0.827856 -0.21394,-0.282153 -0.536401,-0.282153 -0.319361,0 -0.533301,0.282153 -0.21084,0.279053 -0.21084,0.827856 z"
         style="font-style:normal;font-variant:normal;font-weight:normal;font-stretch:normal;font-size:6.3499999px;font-family:'Roboto Condensed';-inkscape-font-specification:'Roboto Condensed, Normal';font-variant-ligatures:normal;font-variant-caps:normal;font-variant-numeric:normal;font-feature-settings:normal;text-align:start;writing-mode:lr-tb;text-anchor:start;fill:#00aad4;fill-opacity:1;stroke-width:0.26458332"
         id="path5664" />
      <path
         d="m 95.397998,64.227269 q -0.201538,0 -0.365869,0.136426 -0.16123,0.136426 -0.26355,0.356567 v 2.440161 h -0.548803 v -3.354834 h 0.517798 l 0.0155,0.356568 q 0.31936,-0.418579 0.815454,-0.418579 0.412378,0 0.657324,0.279052 0.244946,0.279053 0.244946,0.939478 v 2.198315 h -0.548804 v -2.204516 q 0,-0.393775 -0.130224,-0.561206 -0.130225,-0.167432 -0.393775,-0.167432 z"
         style="font-style:normal;font-variant:normal;font-weight:normal;font-stretch:normal;font-size:6.3499999px;font-family:'Roboto Condensed';-inkscape-font-specification:'Roboto Condensed, Normal';font-variant-ligatures:normal;font-variant-caps:normal;font-variant-numeric:normal;font-feature-settings:normal;text-align:start;writing-mode:lr-tb;text-anchor:start;fill:#00aad4;fill-opacity:1;stroke-width:0.26458332"
         id="path5666" />
    </g>
    <g
       aria-label="Code à répéter
tant que la
condition 
est vraie
"
       style="font-style:normal;font-weight:normal;font-size:2.11666656px;line-height:1;font-family:sans-serif;letter-spacing:0px;word-spacing:0px;fill:#d40000;fill-opacity:1;stroke:none;stroke-width:0.26458332"
       id="text1056-7-4-8">
      <path
         d="m 160.54285,90.905448 h 0.50712 q -0.0276,0.620117 -0.34727,0.975651 -0.3197,0.355533 -0.94533,0.355533 -0.60358,0 -0.95912,-0.457508 -0.35277,-0.460265 -0.35277,-1.234722 v -0.741385 q 0,-0.771701 0.35829,-1.22921 0.36104,-0.460265 1.00045,-0.460265 0.58429,0 0.90124,0.347266 0.31695,0.347265 0.34451,0.994943 h -0.50712 q -0.0303,-0.474045 -0.19844,-0.689019 -0.16812,-0.21773 -0.54019,-0.21773 -0.44097,0 -0.64768,0.341754 -0.20394,0.341753 -0.20394,0.906749 v 0.746897 q 0,0.52641 0.17914,0.892968 0.1819,0.366558 0.62563,0.366558 0.41617,0 0.58153,-0.209461 0.16537,-0.209462 0.20395,-0.689019 z"
         style="font-style:normal;font-variant:normal;font-weight:normal;font-stretch:normal;font-size:5.64444447px;font-family:'Roboto Condensed';-inkscape-font-specification:'Roboto Condensed, Normal';font-variant-ligatures:normal;font-variant-caps:normal;font-variant-numeric:normal;font-feature-settings:normal;text-align:start;writing-mode:lr-tb;text-anchor:start;fill:#d40000;fill-opacity:1;stroke-width:0.26458332"
         id="path5573" />
      <path
         d="m 161.56536,90.549914 q 0,-0.697288 0.33348,-1.050065 0.33349,-0.355534 0.8158,-0.355534 0.48782,0 0.82131,0.355534 0.33624,0.352777 0.33624,1.050065 v 0.283876 q 0,0.697287 -0.33624,1.050065 -0.33349,0.352777 -0.8158,0.352777 -0.48507,0 -0.82131,-0.352777 -0.33348,-0.352778 -0.33348,-1.050065 z m 0.48782,0.283876 q 0,0.493337 0.19017,0.741384 0.19017,0.245291 0.4768,0.245291 0.64492,0 0.66422,-0.931554 v -0.338997 q 0,-0.487826 -0.19293,-0.735873 -0.19017,-0.250803 -0.4768,-0.250803 -0.28388,0 -0.47405,0.250803 -0.18741,0.248047 -0.18741,0.735873 z"
         style="font-style:normal;font-variant:normal;font-weight:normal;font-stretch:normal;font-size:5.64444447px;font-family:'Roboto Condensed';-inkscape-font-specification:'Roboto Condensed, Normal';font-variant-ligatures:normal;font-variant-caps:normal;font-variant-numeric:normal;font-feature-settings:normal;text-align:start;writing-mode:lr-tb;text-anchor:start;fill:#d40000;fill-opacity:1;stroke-width:0.26458332"
         id="path5575" />
      <path
         d="m 166.10461,92.181511 -0.0221,-0.322461 q -0.23702,0.377582 -0.69177,0.377582 -0.44097,0 -0.71934,-0.347265 -0.2756,-0.347266 -0.2756,-1.055577 v -0.278364 q 0,-0.735873 0.2756,-1.072114 0.27561,-0.338997 0.72485,-0.338997 0.43271,0 0.66697,0.347265 v -1.543402 h 0.48507 v 4.233333 z m -1.22094,-1.347721 q 0,0.498849 0.14883,0.735872 0.14883,0.234266 0.48507,0.234266 0.3638,0 0.5457,-0.369314 v -1.496549 q -0.19017,-0.363802 -0.54019,-0.363802 -0.33624,0 -0.48782,0.237022 -0.14883,0.237023 -0.15159,0.724848 z"
         style="font-style:normal;font-variant:normal;font-weight:normal;font-stretch:normal;font-size:5.64444447px;font-family:'Roboto Condensed';-inkscape-font-specification:'Roboto Condensed, Normal';font-variant-ligatures:normal;font-variant-caps:normal;font-variant-numeric:normal;font-feature-settings:normal;text-align:start;writing-mode:lr-tb;text-anchor:start;fill:#d40000;fill-opacity:1;stroke-width:0.26458332"
         id="path5577" />
      <path
         d="m 169.33474,91.787392 q -0.12127,0.170877 -0.35278,0.311437 -0.22876,0.137803 -0.61461,0.137803 -0.53468,0 -0.84611,-0.319704 -0.31144,-0.322461 -0.3142,-0.9977 v -0.350022 q 0,-0.788238 0.34176,-1.105186 0.34175,-0.319705 0.76343,-0.319705 0.55948,0 0.80202,0.361046 0.24253,0.361046 0.24253,1.044553 v 0.283876 h -1.66191 v 0.07166 q 0,0.476801 0.17914,0.697287 0.18191,0.21773 0.5209,0.21773 0.24529,0 0.40239,-0.09371 0.15985,-0.09646 0.28112,-0.24529 z m -1.02251,-2.224154 q -0.25356,0 -0.42168,0.176389 -0.16812,0.173633 -0.19292,0.677995 h 1.17133 v -0.0689 q -0.0193,-0.344509 -0.12954,-0.564996 -0.10748,-0.220486 -0.42719,-0.220486 z"
         style="font-style:normal;font-variant:normal;font-weight:normal;font-stretch:normal;font-size:5.64444447px;font-family:'Roboto Condensed';-inkscape-font-specification:'Roboto Condensed, Normal';font-variant-ligatures:normal;font-variant-caps:normal;font-variant-numeric:normal;font-feature-settings:normal;text-align:start;writing-mode:lr-tb;text-anchor:start;fill:#d40000;fill-opacity:1;stroke-width:0.26458332"
         id="path5579" />
      <path
         d="m 172.77707,92.181511 q -0.0469,-0.107487 -0.0661,-0.322461 -0.10198,0.151584 -0.2701,0.264583 -0.16812,0.112999 -0.3886,0.112999 -0.39137,0 -0.62839,-0.220486 -0.23427,-0.220486 -0.23427,-0.647678 0,-0.429948 0.2949,-0.711067 0.2949,-0.283876 0.88195,-0.283876 h 0.33624 V 90.05382 q 0,-0.264583 -0.12127,-0.377583 -0.11851,-0.112999 -0.35829,-0.112999 -0.23426,0 -0.36656,0.137804 -0.12953,0.137804 -0.12953,0.325217 h -0.48783 q 0,-0.319705 0.27286,-0.600824 0.27285,-0.28112 0.73587,-0.28112 0.41341,0 0.67799,0.206705 0.26459,0.206706 0.26459,0.708312 v 1.422136 q 0,0.421679 0.0909,0.655946 v 0.0441 z m -0.65043,-0.388607 q 0.20671,0 0.35829,-0.107487 0.15158,-0.107487 0.21773,-0.239778 v -0.713824 h -0.25631 q -0.35003,0 -0.55949,0.148828 -0.20946,0.148828 -0.20946,0.427192 0,0.267339 0.11024,0.377582 0.113,0.107487 0.339,0.107487 z m -0.091,-3.844726 0.53192,0.810286 h -0.43821 l -0.71107,-0.810286 z"
         style="font-style:normal;font-variant:normal;font-weight:normal;font-stretch:normal;font-size:5.64444447px;font-family:'Roboto Condensed';-inkscape-font-specification:'Roboto Condensed, Normal';font-variant-ligatures:normal;font-variant-caps:normal;font-variant-numeric:normal;font-feature-settings:normal;text-align:start;writing-mode:lr-tb;text-anchor:start;fill:#d40000;fill-opacity:1;stroke-width:0.26458332"
         id="path5581" />
      <path
         d="m 176.25249,89.634896 q -0.37483,0 -0.52366,0.4079 v 2.138715 h -0.48782 v -2.982075 h 0.47129 l 0.011,0.300413 q 0.19568,-0.355534 0.55397,-0.355534 0.12954,0 0.19293,0.03858 l 0.003,0.474045 q -0.10748,-0.02205 -0.22048,-0.02205 z"
         style="font-style:normal;font-variant:normal;font-weight:normal;font-stretch:normal;font-size:5.64444447px;font-family:'Roboto Condensed';-inkscape-font-specification:'Roboto Condensed, Normal';font-variant-ligatures:normal;font-variant-caps:normal;font-variant-numeric:normal;font-feature-settings:normal;text-align:start;writing-mode:lr-tb;text-anchor:start;fill:#d40000;fill-opacity:1;stroke-width:0.26458332"
         id="path5583" />
      <path
         d="m 178.94242,91.787392 q -0.12127,0.170877 -0.35278,0.311437 -0.22876,0.137803 -0.61461,0.137803 -0.53468,0 -0.84611,-0.319704 -0.31144,-0.322461 -0.31419,-0.9977 v -0.350022 q 0,-0.788238 0.34175,-1.105186 0.34175,-0.319705 0.76343,-0.319705 0.55949,0 0.80202,0.361046 0.24254,0.361046 0.24254,1.044553 v 0.283876 h -1.66192 v 0.07166 q 0,0.476801 0.17915,0.697287 0.1819,0.21773 0.52089,0.21773 0.2453,0 0.40239,-0.09371 0.15985,-0.09646 0.28112,-0.24529 z m -1.02251,-2.224154 q -0.25356,0 -0.42168,0.176389 -0.16812,0.173633 -0.19292,0.677995 h 1.17133 v -0.0689 q -0.0193,-0.344509 -0.12954,-0.564996 -0.10748,-0.220486 -0.42719,-0.220486 z m -0.29765,-0.804774 0.53467,-0.810286 h 0.61461 l -0.73863,0.810286 z"
         style="font-style:normal;font-variant:normal;font-weight:normal;font-stretch:normal;font-size:5.64444447px;font-family:'Roboto Condensed';-inkscape-font-specification:'Roboto Condensed, Normal';font-variant-ligatures:normal;font-variant-caps:normal;font-variant-numeric:normal;font-feature-settings:normal;text-align:start;writing-mode:lr-tb;text-anchor:start;fill:#d40000;fill-opacity:1;stroke-width:0.26458332"
         id="path5585" />
      <path
         d="m 180.73111,92.236632 q -0.44648,0 -0.68902,-0.341753 v 1.43316 h -0.48782 v -4.128603 h 0.44372 l 0.0248,0.325217 q 0.24253,-0.380338 0.7028,-0.380338 0.46853,0 0.72209,0.327973 0.25356,0.325217 0.26183,1.036285 v 0.325217 q 0,0.708311 -0.25632,1.055577 -0.25356,0.347265 -0.72209,0.347265 z m -0.1571,-2.662369 q -0.34451,0 -0.53192,0.350021 v 1.554427 q 0.18466,0.341754 0.53744,0.341754 0.62563,0 0.64216,-0.937066 v -0.327973 q 0,-0.981163 -0.64768,-0.981163 z"
         style="font-style:normal;font-variant:normal;font-weight:normal;font-stretch:normal;font-size:5.64444447px;font-family:'Roboto Condensed';-inkscape-font-specification:'Roboto Condensed, Normal';font-variant-ligatures:normal;font-variant-caps:normal;font-variant-numeric:normal;font-feature-settings:normal;text-align:start;writing-mode:lr-tb;text-anchor:start;fill:#d40000;fill-opacity:1;stroke-width:0.26458332"
         id="path5587" />
      <path
         d="m 184.37189,91.787392 q -0.12127,0.170877 -0.35278,0.311437 -0.22876,0.137803 -0.61461,0.137803 -0.53468,0 -0.84611,-0.319704 -0.31144,-0.322461 -0.31419,-0.9977 v -0.350022 q 0,-0.788238 0.34175,-1.105186 0.34175,-0.319705 0.76343,-0.319705 0.55949,0 0.80202,0.361046 0.24254,0.361046 0.24254,1.044553 v 0.283876 h -1.66192 v 0.07166 q 0,0.476801 0.17915,0.697287 0.1819,0.21773 0.52089,0.21773 0.2453,0 0.40239,-0.09371 0.15985,-0.09646 0.28112,-0.24529 z m -1.02251,-2.224154 q -0.25356,0 -0.42168,0.176389 -0.16812,0.173633 -0.19292,0.677995 h 1.17133 v -0.0689 q -0.0193,-0.344509 -0.12954,-0.564996 -0.10748,-0.220486 -0.42719,-0.220486 z m -0.29765,-0.804774 0.53467,-0.810286 h 0.61461 l -0.73863,0.810286 z"
         style="font-style:normal;font-variant:normal;font-weight:normal;font-stretch:normal;font-size:5.64444447px;font-family:'Roboto Condensed';-inkscape-font-specification:'Roboto Condensed, Normal';font-variant-ligatures:normal;font-variant-caps:normal;font-variant-numeric:normal;font-feature-settings:normal;text-align:start;writing-mode:lr-tb;text-anchor:start;fill:#d40000;fill-opacity:1;stroke-width:0.26458332"
         id="path5589" />
      <path
         d="m 186.06963,92.181511 q -0.14056,0.05512 -0.34175,0.05512 -0.23703,0 -0.41617,-0.173632 -0.17639,-0.173633 -0.17639,-0.622874 v -1.849327 h -0.45475 v -0.391363 h 0.45475 v -0.724848 h 0.48783 v 0.724848 h 0.44924 v 0.391363 h -0.44924 v 1.852083 q 0,0.228755 0.0772,0.292145 0.0799,0.06339 0.17914,0.06339 0.10473,0 0.19293,-0.03307 z"
         style="font-style:normal;font-variant:normal;font-weight:normal;font-stretch:normal;font-size:5.64444447px;font-family:'Roboto Condensed';-inkscape-font-specification:'Roboto Condensed, Normal';font-variant-ligatures:normal;font-variant-caps:normal;font-variant-numeric:normal;font-feature-settings:normal;text-align:start;writing-mode:lr-tb;text-anchor:start;fill:#d40000;fill-opacity:1;stroke-width:0.26458332"
         id="path5591" />
      <path
         d="m 188.6879,91.787392 q -0.12126,0.170877 -0.35277,0.311437 -0.22876,0.137803 -0.61461,0.137803 -0.53468,0 -0.84611,-0.319704 -0.31144,-0.322461 -0.3142,-0.9977 v -0.350022 q 0,-0.788238 0.34176,-1.105186 0.34175,-0.319705 0.76343,-0.319705 0.55948,0 0.80202,0.361046 0.24253,0.361046 0.24253,1.044553 v 0.283876 h -1.66191 v 0.07166 q 0,0.476801 0.17914,0.697287 0.1819,0.21773 0.5209,0.21773 0.24529,0 0.40239,-0.09371 0.15985,-0.09646 0.28112,-0.24529 z m -1.0225,-2.224154 q -0.25356,0 -0.42168,0.176389 -0.16812,0.173633 -0.19293,0.677995 h 1.17134 v -0.0689 q -0.0193,-0.344509 -0.12954,-0.564996 -0.10749,-0.220486 -0.42719,-0.220486 z"
         style="font-style:normal;font-variant:normal;font-weight:normal;font-stretch:normal;font-size:5.64444447px;font-family:'Roboto Condensed';-inkscape-font-specification:'Roboto Condensed, Normal';font-variant-ligatures:normal;font-variant-caps:normal;font-variant-numeric:normal;font-feature-settings:normal;text-align:start;writing-mode:lr-tb;text-anchor:start;fill:#d40000;fill-opacity:1;stroke-width:0.26458332"
         id="path5593" />
      <path
         d="m 190.31123,89.634896 q -0.37482,0 -0.52365,0.4079 v 2.138715 h -0.48783 v -2.982075 h 0.47129 l 0.011,0.300413 q 0.19569,-0.355534 0.55398,-0.355534 0.12953,0 0.19292,0.03858 l 0.003,0.474045 q -0.10749,-0.02205 -0.22049,-0.02205 z"
         style="font-style:normal;font-variant:normal;font-weight:normal;font-stretch:normal;font-size:5.64444447px;font-family:'Roboto Condensed';-inkscape-font-specification:'Roboto Condensed, Normal';font-variant-ligatures:normal;font-variant-caps:normal;font-variant-numeric:normal;font-feature-settings:normal;text-align:start;writing-mode:lr-tb;text-anchor:start;fill:#d40000;fill-opacity:1;stroke-width:0.26458332"
         id="path5595" />
      <path
         d="m 159.55342,97.825955 q -0.14056,0.05512 -0.34175,0.05512 -0.23703,0 -0.41617,-0.173633 -0.17639,-0.173633 -0.17639,-0.622873 v -1.849327 h -0.45475 v -0.391363 h 0.45475 v -0.724848 h 0.48783 v 0.724848 h 0.44924 v 0.391363 h -0.44924 v 1.852083 q 0,0.228754 0.0772,0.292144 0.0799,0.06339 0.17914,0.06339 0.10473,0 0.19293,-0.03307 z"
         style="font-style:normal;font-variant:normal;font-weight:normal;font-stretch:normal;font-size:5.64444447px;font-family:'Roboto Condensed';-inkscape-font-specification:'Roboto Condensed, Normal';font-variant-ligatures:normal;font-variant-caps:normal;font-variant-numeric:normal;font-feature-settings:normal;text-align:start;writing-mode:lr-tb;text-anchor:start;fill:#d40000;fill-opacity:1;stroke-width:0.26458332"
         id="path5597" />
      <path
         d="m 161.67284,97.825955 q -0.0469,-0.107487 -0.0661,-0.322461 -0.10198,0.151585 -0.2701,0.264584 -0.16812,0.112999 -0.38861,0.112999 -0.39136,0 -0.62838,-0.220486 -0.23427,-0.220486 -0.23427,-0.647678 0,-0.429948 0.2949,-0.711068 0.2949,-0.283876 0.88195,-0.283876 h 0.33624 v -0.319705 q 0,-0.264583 -0.12127,-0.377582 -0.11851,-0.112999 -0.35829,-0.112999 -0.23427,0 -0.36656,0.137804 -0.12953,0.137803 -0.12953,0.325217 h -0.48783 q 0,-0.319705 0.27285,-0.600825 0.27285,-0.28112 0.73588,-0.28112 0.41341,0 0.67799,0.206706 0.26458,0.206706 0.26458,0.708312 v 1.422135 q 0,0.42168 0.0909,0.655946 v 0.0441 z m -0.65043,-0.388606 q 0.2067,0 0.35829,-0.107487 0.15158,-0.107487 0.21773,-0.239779 v -0.713824 h -0.25632 q -0.35002,0 -0.55948,0.148828 -0.20946,0.148828 -0.20946,0.427192 0,0.26734 0.11024,0.377583 0.113,0.107487 0.339,0.107487 z"
         style="font-style:normal;font-variant:normal;font-weight:normal;font-stretch:normal;font-size:5.64444447px;font-family:'Roboto Condensed';-inkscape-font-specification:'Roboto Condensed, Normal';font-variant-ligatures:normal;font-variant-caps:normal;font-variant-numeric:normal;font-feature-settings:normal;text-align:start;writing-mode:lr-tb;text-anchor:start;fill:#d40000;fill-opacity:1;stroke-width:0.26458332"
         id="path5599" />
      <path
         d="m 163.88873,95.218707 q -0.17915,0 -0.32522,0.121267 -0.14332,0.121268 -0.23427,0.316949 v 2.169032 h -0.48782 v -2.982074 h 0.46026 l 0.0138,0.316949 q 0.28388,-0.372071 0.72485,-0.372071 0.36656,0 0.58429,0.248047 0.21773,0.248047 0.21773,0.835091 v 1.954058 h -0.48783 v -1.95957 q 0,-0.350022 -0.11575,-0.49885 -0.11576,-0.148828 -0.35002,-0.148828 z"
         style="font-style:normal;font-variant:normal;font-weight:normal;font-stretch:normal;font-size:5.64444447px;font-family:'Roboto Condensed';-inkscape-font-specification:'Roboto Condensed, Normal';font-variant-ligatures:normal;font-variant-caps:normal;font-variant-numeric:normal;font-feature-settings:normal;text-align:start;writing-mode:lr-tb;text-anchor:start;fill:#d40000;fill-opacity:1;stroke-width:0.26458332"
         id="path5601" />
      <path
         d="m 166.66134,97.825955 q -0.14056,0.05512 -0.34175,0.05512 -0.23703,0 -0.41617,-0.173633 -0.17639,-0.173633 -0.17639,-0.622873 v -1.849327 h -0.45475 v -0.391363 h 0.45475 v -0.724848 h 0.48783 v 0.724848 h 0.44924 v 0.391363 h -0.44924 v 1.852083 q 0,0.228754 0.0772,0.292144 0.0799,0.06339 0.17914,0.06339 0.10473,0 0.19293,-0.03307 z"
         style="font-style:normal;font-variant:normal;font-weight:normal;font-stretch:normal;font-size:5.64444447px;font-family:'Roboto Condensed';-inkscape-font-specification:'Roboto Condensed, Normal';font-variant-ligatures:normal;font-variant-caps:normal;font-variant-numeric:normal;font-feature-settings:normal;text-align:start;writing-mode:lr-tb;text-anchor:start;fill:#d40000;fill-opacity:1;stroke-width:0.26458332"
         id="path5603" />
      <path
         d="m 170.58875,94.843881 v 4.128602 h -0.48783 v -1.411111 q -0.23702,0.319705 -0.6587,0.319705 -0.46853,0 -0.73863,-0.347266 -0.26734,-0.347265 -0.26734,-1.055577 V 96.19987 q 0,-0.735872 0.26734,-1.072113 0.26734,-0.338998 0.74414,-0.338998 0.43546,0 0.67249,0.347266 l 0.0221,-0.292144 z m -1.66467,1.634353 q 0,0.986675 0.64492,0.986675 0.34727,0 0.53192,-0.333485 v -1.593012 q -0.19843,-0.330729 -0.52641,-0.330729 -0.63389,0 -0.65043,0.942578 z"
         style="font-style:normal;font-variant:normal;font-weight:normal;font-stretch:normal;font-size:5.64444447px;font-family:'Roboto Condensed';-inkscape-font-specification:'Roboto Condensed, Normal';font-variant-ligatures:normal;font-variant-caps:normal;font-variant-numeric:normal;font-feature-settings:normal;text-align:start;writing-mode:lr-tb;text-anchor:start;fill:#d40000;fill-opacity:1;stroke-width:0.26458332"
         id="path5605" />
      <path
         d="m 172.89834,97.825955 -0.008,-0.261827 q -0.24804,0.316949 -0.71106,0.316949 -0.36932,0 -0.59532,-0.259071 -0.226,-0.259071 -0.226,-0.854384 v -1.923741 h 0.48507 v 1.943034 q 0.003,0.394119 0.1323,0.529166 0.13229,0.132292 0.28663,0.132292 0.44097,0 0.61185,-0.399631 v -2.204861 h 0.48782 v 2.982074 z"
         style="font-style:normal;font-variant:normal;font-weight:normal;font-stretch:normal;font-size:5.64444447px;font-family:'Roboto Condensed';-inkscape-font-specification:'Roboto Condensed, Normal';font-variant-ligatures:normal;font-variant-caps:normal;font-variant-numeric:normal;font-feature-settings:normal;text-align:start;writing-mode:lr-tb;text-anchor:start;fill:#d40000;fill-opacity:1;stroke-width:0.26458332"
         id="path5607" />
      <path
         d="m 176.12846,97.431836 q -0.12126,0.170877 -0.35277,0.311437 -0.22876,0.137804 -0.61461,0.137804 -0.53468,0 -0.84612,-0.319705 -0.31143,-0.322461 -0.31419,-0.9977 v -0.350021 q 0,-0.788238 0.34176,-1.105187 0.34175,-0.319705 0.76343,-0.319705 0.55948,0 0.80202,0.361046 0.24253,0.361046 0.24253,1.044553 v 0.283876 h -1.66191 v 0.07166 q 0,0.476801 0.17914,0.697287 0.1819,0.21773 0.5209,0.21773 0.24529,0 0.40239,-0.09371 0.15985,-0.09646 0.28112,-0.245291 z m -1.0225,-2.224153 q -0.25356,0 -0.42168,0.176389 -0.16812,0.173633 -0.19293,0.677994 h 1.17134 v -0.0689 q -0.0193,-0.34451 -0.12954,-0.564996 -0.10749,-0.220486 -0.42719,-0.220486 z"
         style="font-style:normal;font-variant:normal;font-weight:normal;font-stretch:normal;font-size:5.64444447px;font-family:'Roboto Condensed';-inkscape-font-specification:'Roboto Condensed, Normal';font-variant-ligatures:normal;font-variant-caps:normal;font-variant-numeric:normal;font-feature-settings:normal;text-align:start;writing-mode:lr-tb;text-anchor:start;fill:#d40000;fill-opacity:1;stroke-width:0.26458332"
         id="path5609" />
      <path
         d="m 178.55932,93.592622 v 4.233333 h -0.48507 v -4.233333 z"
         style="font-style:normal;font-variant:normal;font-weight:normal;font-stretch:normal;font-size:5.64444447px;font-family:'Roboto Condensed';-inkscape-font-specification:'Roboto Condensed, Normal';font-variant-ligatures:normal;font-variant-caps:normal;font-variant-numeric:normal;font-feature-settings:normal;text-align:start;writing-mode:lr-tb;text-anchor:start;fill:#d40000;fill-opacity:1;stroke-width:0.26458332"
         id="path5611" />
      <path
         d="m 180.86616,97.825955 q -0.0469,-0.107487 -0.0662,-0.322461 -0.10197,0.151585 -0.27009,0.264584 -0.16812,0.112999 -0.38861,0.112999 -0.39136,0 -0.62838,-0.220486 -0.23427,-0.220486 -0.23427,-0.647678 0,-0.429948 0.2949,-0.711068 0.2949,-0.283876 0.88194,-0.283876 h 0.33624 v -0.319705 q 0,-0.264583 -0.12126,-0.377582 -0.11851,-0.112999 -0.35829,-0.112999 -0.23427,0 -0.36656,0.137804 -0.12954,0.137803 -0.12954,0.325217 h -0.48782 q 0,-0.319705 0.27285,-0.600825 0.27285,-0.28112 0.73587,-0.28112 0.41341,0 0.678,0.206706 0.26458,0.206706 0.26458,0.708312 v 1.422135 q 0,0.42168 0.0909,0.655946 v 0.0441 z m -0.65044,-0.388606 q 0.20671,0 0.35829,-0.107487 0.15159,-0.107487 0.21773,-0.239779 v -0.713824 h -0.25631 q -0.35002,0 -0.55948,0.148828 -0.20947,0.148828 -0.20947,0.427192 0,0.26734 0.11025,0.377583 0.113,0.107487 0.33899,0.107487 z"
         style="font-style:normal;font-variant:normal;font-weight:normal;font-stretch:normal;font-size:5.64444447px;font-family:'Roboto Condensed';-inkscape-font-specification:'Roboto Condensed, Normal';font-variant-ligatures:normal;font-variant-caps:normal;font-variant-numeric:normal;font-feature-settings:normal;text-align:start;writing-mode:lr-tb;text-anchor:start;fill:#d40000;fill-opacity:1;stroke-width:0.26458332"
         id="path5613" />
      <path
         d="m 159.50105,103.10935 q 0.21773,0 0.37483,-0.13504 0.1571,-0.13781 0.17639,-0.44649 h 0.45751 q -0.0165,0.44924 -0.31144,0.72485 -0.2949,0.27285 -0.69729,0.27285 -0.57602,0 -0.85162,-0.35553 -0.27561,-0.35829 -0.28112,-0.9977 v -0.36105 q 0,-0.65043 0.2756,-1.01423 0.27837,-0.36381 0.85714,-0.36381 0.45476,0 0.7221,0.28664 0.27009,0.28387 0.28663,0.79375 h -0.45751 q -0.0386,-0.66146 -0.55122,-0.66146 -0.38585,0 -0.51538,0.26182 -0.12954,0.26183 -0.12954,0.69729 v 0.33624 q 0,0.43822 0.12678,0.70005 0.12954,0.26182 0.51814,0.26182 z"
         style="font-style:normal;font-variant:normal;font-weight:normal;font-stretch:normal;font-size:5.64444447px;font-family:'Roboto Condensed';-inkscape-font-specification:'Roboto Condensed, Normal';font-variant-ligatures:normal;font-variant-caps:normal;font-variant-numeric:normal;font-feature-settings:normal;text-align:start;writing-mode:lr-tb;text-anchor:start;fill:#d40000;fill-opacity:1;stroke-width:0.26458332"
         id="path5615" />
      <path
         d="m 160.9728,101.8388 q 0,-0.69728 0.33348,-1.05006 0.33349,-0.35554 0.8158,-0.35554 0.48783,0 0.82131,0.35554 0.33624,0.35278 0.33624,1.05006 v 0.28388 q 0,0.69729 -0.33624,1.05006 -0.33348,0.35278 -0.81579,0.35278 -0.48507,0 -0.82132,-0.35278 -0.33348,-0.35277 -0.33348,-1.05006 z m 0.48782,0.28388 q 0,0.49334 0.19017,0.74138 0.19017,0.24529 0.47681,0.24529 0.64492,0 0.66421,-0.93155 v -0.339 q 0,-0.48782 -0.19293,-0.73587 -0.19017,-0.2508 -0.4768,-0.2508 -0.28387,0 -0.47404,0.2508 -0.18742,0.24805 -0.18742,0.73587 z"
         style="font-style:normal;font-variant:normal;font-weight:normal;font-stretch:normal;font-size:5.64444447px;font-family:'Roboto Condensed';-inkscape-font-specification:'Roboto Condensed, Normal';font-variant-ligatures:normal;font-variant-caps:normal;font-variant-numeric:normal;font-feature-settings:normal;text-align:start;writing-mode:lr-tb;text-anchor:start;fill:#d40000;fill-opacity:1;stroke-width:0.26458332"
         id="path5617" />
      <path
         d="m 164.95533,100.86315 q -0.17915,0 -0.32522,0.12127 -0.14331,0.12127 -0.23426,0.31695 v 2.16903 h -0.48783 v -2.98207 h 0.46026 l 0.0138,0.31694 q 0.28387,-0.37207 0.72484,-0.37207 0.36656,0 0.58429,0.24805 0.21773,0.24805 0.21773,0.83509 v 1.95406 h -0.48782 v -1.95957 q 0,-0.35002 -0.11576,-0.49885 -0.11575,-0.14883 -0.35002,-0.14883 z"
         style="font-style:normal;font-variant:normal;font-weight:normal;font-stretch:normal;font-size:5.64444447px;font-family:'Roboto Condensed';-inkscape-font-specification:'Roboto Condensed, Normal';font-variant-ligatures:normal;font-variant-caps:normal;font-variant-numeric:normal;font-feature-settings:normal;text-align:start;writing-mode:lr-tb;text-anchor:start;fill:#d40000;fill-opacity:1;stroke-width:0.26458332"
         id="path5619" />
      <path
         d="m 168.24608,103.4704 -0.022,-0.32246 q -0.23703,0.37758 -0.69178,0.37758 -0.44097,0 -0.71934,-0.34726 -0.2756,-0.34727 -0.2756,-1.05558 v -0.27837 q 0,-0.73587 0.2756,-1.07211 0.27561,-0.339 0.72485,-0.339 0.43271,0 0.66697,0.34727 v -1.543403 h 0.48507 v 4.233333 z m -1.22094,-1.34772 q 0,0.49885 0.14883,0.73587 0.14883,0.23427 0.48507,0.23427 0.3638,0 0.5457,-0.36932 v -1.49655 q -0.19017,-0.3638 -0.54019,-0.3638 -0.33624,0 -0.48782,0.23702 -0.14883,0.23703 -0.15159,0.72485 z"
         style="font-style:normal;font-variant:normal;font-weight:normal;font-stretch:normal;font-size:5.64444447px;font-family:'Roboto Condensed';-inkscape-font-specification:'Roboto Condensed, Normal';font-variant-ligatures:normal;font-variant-caps:normal;font-variant-numeric:normal;font-feature-settings:normal;text-align:start;writing-mode:lr-tb;text-anchor:start;fill:#d40000;fill-opacity:1;stroke-width:0.26458332"
         id="path5621" />
      <path
         d="m 169.45325,99.697331 q 0,-0.124023 0.0689,-0.209462 0.0689,-0.08544 0.2067,-0.08544 0.13505,0 0.20671,0.08544 0.0717,0.08544 0.0717,0.209462 0,0.118512 -0.0717,0.20395 -0.0717,0.08268 -0.20671,0.08268 -0.1378,0 -0.2067,-0.08268 -0.0689,-0.08544 -0.0689,-0.20395 z m 0.51263,0.790999 v 2.98207 h -0.48507 v -2.98207 z"
         style="font-style:normal;font-variant:normal;font-weight:normal;font-stretch:normal;font-size:5.64444447px;font-family:'Roboto Condensed';-inkscape-font-specification:'Roboto Condensed, Normal';font-variant-ligatures:normal;font-variant-caps:normal;font-variant-numeric:normal;font-feature-settings:normal;text-align:start;writing-mode:lr-tb;text-anchor:start;fill:#d40000;fill-opacity:1;stroke-width:0.26458332"
         id="path5623" />
      <path
         d="m 171.82347,103.4704 q -0.14056,0.0551 -0.34175,0.0551 -0.23702,0 -0.41617,-0.17363 -0.17639,-0.17363 -0.17639,-0.62287 v -1.84933 h -0.45475 v -0.39136 h 0.45475 v -0.724853 h 0.48783 v 0.724853 h 0.44924 v 0.39136 h -0.44924 v 1.85208 q 0,0.22876 0.0772,0.29215 0.0799,0.0634 0.17914,0.0634 0.10473,0 0.19293,-0.0331 z"
         style="font-style:normal;font-variant:normal;font-weight:normal;font-stretch:normal;font-size:5.64444447px;font-family:'Roboto Condensed';-inkscape-font-specification:'Roboto Condensed, Normal';font-variant-ligatures:normal;font-variant-caps:normal;font-variant-numeric:normal;font-feature-settings:normal;text-align:start;writing-mode:lr-tb;text-anchor:start;fill:#d40000;fill-opacity:1;stroke-width:0.26458332"
         id="path5625" />
      <path
         d="m 172.41878,99.697331 q 0,-0.124023 0.0689,-0.209462 0.0689,-0.08544 0.2067,-0.08544 0.13505,0 0.20671,0.08544 0.0717,0.08544 0.0717,0.209462 0,0.118512 -0.0717,0.20395 -0.0717,0.08268 -0.20671,0.08268 -0.1378,0 -0.2067,-0.08268 -0.0689,-0.08544 -0.0689,-0.20395 z m 0.51263,0.790999 v 2.98207 h -0.48507 v -2.98207 z"
         style="font-style:normal;font-variant:normal;font-weight:normal;font-stretch:normal;font-size:5.64444447px;font-family:'Roboto Condensed';-inkscape-font-specification:'Roboto Condensed, Normal';font-variant-ligatures:normal;font-variant-caps:normal;font-variant-numeric:normal;font-feature-settings:normal;text-align:start;writing-mode:lr-tb;text-anchor:start;fill:#d40000;fill-opacity:1;stroke-width:0.26458332"
         id="path5627" />
      <path
         d="m 173.60114,101.8388 q 0,-0.69728 0.33349,-1.05006 0.33348,-0.35554 0.81579,-0.35554 0.48783,0 0.82132,0.35554 0.33624,0.35278 0.33624,1.05006 v 0.28388 q 0,0.69729 -0.33624,1.05006 -0.33349,0.35278 -0.8158,0.35278 -0.48507,0 -0.82131,-0.35278 -0.33349,-0.35277 -0.33349,-1.05006 z m 0.48783,0.28388 q 0,0.49334 0.19017,0.74138 0.19016,0.24529 0.4768,0.24529 0.64492,0 0.66421,-0.93155 v -0.339 q 0,-0.48782 -0.19292,-0.73587 -0.19017,-0.2508 -0.47681,-0.2508 -0.28387,0 -0.47404,0.2508 -0.18741,0.24805 -0.18741,0.73587 z"
         style="font-style:normal;font-variant:normal;font-weight:normal;font-stretch:normal;font-size:5.64444447px;font-family:'Roboto Condensed';-inkscape-font-specification:'Roboto Condensed, Normal';font-variant-ligatures:normal;font-variant-caps:normal;font-variant-numeric:normal;font-feature-settings:normal;text-align:start;writing-mode:lr-tb;text-anchor:start;fill:#d40000;fill-opacity:1;stroke-width:0.26458332"
         id="path5629" />
      <path
         d="m 177.58367,100.86315 q -0.17914,0 -0.32522,0.12127 -0.14331,0.12127 -0.23426,0.31695 v 2.16903 h -0.48783 v -2.98207 h 0.46027 l 0.0138,0.31694 q 0.28387,-0.37207 0.72485,-0.37207 0.36655,0 0.58428,0.24805 0.21773,0.24805 0.21773,0.83509 v 1.95406 h -0.48782 v -1.95957 q 0,-0.35002 -0.11576,-0.49885 -0.11575,-0.14883 -0.35002,-0.14883 z"
         style="font-style:normal;font-variant:normal;font-weight:normal;font-stretch:normal;font-size:5.64444447px;font-family:'Roboto Condensed';-inkscape-font-specification:'Roboto Condensed, Normal';font-variant-ligatures:normal;font-variant-caps:normal;font-variant-numeric:normal;font-feature-settings:normal;text-align:start;writing-mode:lr-tb;text-anchor:start;fill:#d40000;fill-opacity:1;stroke-width:0.26458332"
         id="path5631" />
      <path
         d="m 160.50151,108.72073 q -0.12127,0.17087 -0.35278,0.31143 -0.22875,0.13781 -0.6146,0.13781 -0.53468,0 -0.84612,-0.31971 -0.31143,-0.32246 -0.31419,-0.9977 v -0.35002 q 0,-0.78824 0.34175,-1.10519 0.34176,-0.3197 0.76344,-0.3197 0.55948,0 0.80201,0.36104 0.24254,0.36105 0.24254,1.04456 v 0.28387 h -1.66192 v 0.0717 q 0,0.4768 0.17915,0.69729 0.1819,0.21773 0.5209,0.21773 0.24529,0 0.40239,-0.0937 0.15985,-0.0965 0.28111,-0.24529 z m -1.0225,-2.22416 q -0.25356,0 -0.42168,0.17639 -0.16812,0.17363 -0.19293,0.678 h 1.17133 v -0.0689 q -0.0193,-0.34451 -0.12953,-0.56499 -0.10749,-0.22049 -0.42719,-0.22049 z"
         style="font-style:normal;font-variant:normal;font-weight:normal;font-stretch:normal;font-size:5.64444447px;font-family:'Roboto Condensed';-inkscape-font-specification:'Roboto Condensed, Normal';font-variant-ligatures:normal;font-variant-caps:normal;font-variant-numeric:normal;font-feature-settings:normal;text-align:start;writing-mode:lr-tb;text-anchor:start;fill:#d40000;fill-opacity:1;stroke-width:0.26458332"
         id="path5633" />
      <path
         d="m 162.5603,108.35141 q 0,-0.17088 -0.13229,-0.28663 -0.12954,-0.11576 -0.49885,-0.27285 -0.36932,-0.1571 -0.58153,-0.31971 -0.23978,-0.18465 -0.23978,-0.54846 0,-0.35553 0.25907,-0.60082 0.25907,-0.24529 0.68626,-0.24529 0.45751,0 0.71107,0.25907 0.25356,0.25907 0.25356,0.64492 h -0.48507 q 0,-0.18466 -0.12403,-0.33348 -0.12402,-0.15159 -0.35553,-0.15159 -0.24529,0 -0.35278,0.12403 -0.10473,0.12402 -0.10473,0.28663 0,0.16261 0.10473,0.25356 0.10473,0.0882 0.41617,0.22599 0.452,0.17915 0.69178,0.37207 0.23977,0.19293 0.23977,0.55398 0,0.39412 -0.27009,0.62563 -0.2701,0.23151 -0.71382,0.23151 -0.50712,0 -0.77446,-0.28939 -0.26734,-0.28939 -0.26734,-0.6587 h 0.48782 q 0.0138,0.31694 0.19017,0.42443 0.17639,0.10473 0.36381,0.10473 0.49609,0 0.49609,-0.39963 z"
         style="font-style:normal;font-variant:normal;font-weight:normal;font-stretch:normal;font-size:5.64444447px;font-family:'Roboto Condensed';-inkscape-font-specification:'Roboto Condensed, Normal';font-variant-ligatures:normal;font-variant-caps:normal;font-variant-numeric:normal;font-feature-settings:normal;text-align:start;writing-mode:lr-tb;text-anchor:start;fill:#d40000;fill-opacity:1;stroke-width:0.26458332"
         id="path5635" />
      <path
         d="m 164.77343,109.11484 q -0.14056,0.0551 -0.34175,0.0551 -0.23703,0 -0.41617,-0.17364 -0.17639,-0.17363 -0.17639,-0.62287 v -1.84933 h -0.45475 v -0.39136 h 0.45475 v -0.72485 h 0.48782 v 0.72485 h 0.44924 v 0.39136 h -0.44924 v 1.85209 q 0,0.22875 0.0772,0.29214 0.0799,0.0634 0.17915,0.0634 0.10473,0 0.19292,-0.0331 z"
         style="font-style:normal;font-variant:normal;font-weight:normal;font-stretch:normal;font-size:5.64444447px;font-family:'Roboto Condensed';-inkscape-font-specification:'Roboto Condensed, Normal';font-variant-ligatures:normal;font-variant-caps:normal;font-variant-numeric:normal;font-feature-settings:normal;text-align:start;writing-mode:lr-tb;text-anchor:start;fill:#d40000;fill-opacity:1;stroke-width:0.26458332"
         id="path5637" />
      <path
         d="m 168.56028,106.13277 -0.8847,2.98207 h -0.36656 l -0.89573,-2.98207 h 0.4961 l 0.58704,2.23518 0.56775,-2.23518 z"
         style="font-style:normal;font-variant:normal;font-weight:normal;font-stretch:normal;font-size:5.64444447px;font-family:'Roboto Condensed';-inkscape-font-specification:'Roboto Condensed, Normal';font-variant-ligatures:normal;font-variant-caps:normal;font-variant-numeric:normal;font-feature-settings:normal;text-align:start;writing-mode:lr-tb;text-anchor:start;fill:#d40000;fill-opacity:1;stroke-width:0.26458332"
         id="path5639" />
      <path
         d="m 170.07888,106.56823 q -0.37483,0 -0.52366,0.4079 v 2.13871 h -0.48782 v -2.98207 h 0.47128 l 0.011,0.30041 q 0.19568,-0.35553 0.55397,-0.35553 0.12954,0 0.19293,0.0386 l 0.003,0.47405 q -0.10749,-0.0221 -0.22048,-0.0221 z"
         style="font-style:normal;font-variant:normal;font-weight:normal;font-stretch:normal;font-size:5.64444447px;font-family:'Roboto Condensed';-inkscape-font-specification:'Roboto Condensed, Normal';font-variant-ligatures:normal;font-variant-caps:normal;font-variant-numeric:normal;font-feature-settings:normal;text-align:start;writing-mode:lr-tb;text-anchor:start;fill:#d40000;fill-opacity:1;stroke-width:0.26458332"
         id="path5641" />
      <path
         d="m 172.21208,109.11484 q -0.0468,-0.10748 -0.0661,-0.32246 -0.10197,0.15159 -0.27009,0.26459 -0.16812,0.113 -0.38861,0.113 -0.39136,0 -0.62839,-0.22049 -0.23426,-0.22049 -0.23426,-0.64768 0,-0.42995 0.2949,-0.71107 0.2949,-0.28387 0.88194,-0.28387 h 0.33624 v -0.31971 q 0,-0.26458 -0.12126,-0.37758 -0.11851,-0.113 -0.35829,-0.113 -0.23427,0 -0.36656,0.13781 -0.12954,0.1378 -0.12954,0.32521 h -0.48782 q 0,-0.3197 0.27285,-0.60082 0.27285,-0.28112 0.73587,-0.28112 0.41341,0 0.678,0.2067 0.26458,0.20671 0.26458,0.70832 v 1.42213 q 0,0.42168 0.0909,0.65595 v 0.0441 z m -0.65044,-0.3886 q 0.20671,0 0.35829,-0.10749 0.15159,-0.10749 0.21773,-0.23978 v -0.71382 h -0.25631 q -0.35002,0 -0.55948,0.14883 -0.20947,0.14882 -0.20947,0.42719 0,0.26734 0.11025,0.37758 0.113,0.10749 0.33899,0.10749 z"
         style="font-style:normal;font-variant:normal;font-weight:normal;font-stretch:normal;font-size:5.64444447px;font-family:'Roboto Condensed';-inkscape-font-specification:'Roboto Condensed, Normal';font-variant-ligatures:normal;font-variant-caps:normal;font-variant-numeric:normal;font-feature-settings:normal;text-align:start;writing-mode:lr-tb;text-anchor:start;fill:#d40000;fill-opacity:1;stroke-width:0.26458332"
         id="path5643" />
      <path
         d="m 173.39168,105.34178 q 0,-0.12403 0.0689,-0.20947 0.0689,-0.0854 0.20671,-0.0854 0.13505,0 0.2067,0.0854 0.0717,0.0854 0.0717,0.20947 0,0.11851 -0.0717,0.20395 -0.0717,0.0827 -0.2067,0.0827 -0.13781,0 -0.20671,-0.0827 -0.0689,-0.0854 -0.0689,-0.20395 z m 0.51263,0.79099 v 2.98207 h -0.48507 v -2.98207 z"
         style="font-style:normal;font-variant:normal;font-weight:normal;font-stretch:normal;font-size:5.64444447px;font-family:'Roboto Condensed';-inkscape-font-specification:'Roboto Condensed, Normal';font-variant-ligatures:normal;font-variant-caps:normal;font-variant-numeric:normal;font-feature-settings:normal;text-align:start;writing-mode:lr-tb;text-anchor:start;fill:#d40000;fill-opacity:1;stroke-width:0.26458332"
         id="path5645" />
      <path
         d="m 176.70999,108.72073 q -0.12126,0.17087 -0.35277,0.31143 -0.22876,0.13781 -0.61461,0.13781 -0.53468,0 -0.84611,-0.31971 -0.31144,-0.32246 -0.3142,-0.9977 v -0.35002 q 0,-0.78824 0.34176,-1.10519 0.34175,-0.3197 0.76343,-0.3197 0.55948,0 0.80202,0.36104 0.24253,0.36105 0.24253,1.04456 v 0.28387 h -1.66191 v 0.0717 q 0,0.4768 0.17914,0.69729 0.18191,0.21773 0.5209,0.21773 0.24529,0 0.40239,-0.0937 0.15985,-0.0965 0.28112,-0.24529 z m -1.0225,-2.22416 q -0.25356,0 -0.42168,0.17639 -0.16812,0.17363 -0.19292,0.678 h 1.17133 v -0.0689 q -0.0193,-0.34451 -0.12954,-0.56499 -0.10748,-0.22049 -0.42719,-0.22049 z"
         style="font-style:normal;font-variant:normal;font-weight:normal;font-stretch:normal;font-size:5.64444447px;font-family:'Roboto Condensed';-inkscape-font-specification:'Roboto Condensed, Normal';font-variant-ligatures:normal;font-variant-caps:normal;font-variant-numeric:normal;font-feature-settings:normal;text-align:start;writing-mode:lr-tb;text-anchor:start;fill:#d40000;fill-opacity:1;stroke-width:0.26458332"
         id="path5647" />
    </g>
  </g>
</svg>
