<?xml version="1.0" encoding="UTF-8" standalone="no"?>
<!-- Created with Inkscape (http://www.inkscape.org/) -->

<svg
   xmlns:dc="http://purl.org/dc/elements/1.1/"
   xmlns:cc="http://creativecommons.org/ns#"
   xmlns:rdf="http://www.w3.org/1999/02/22-rdf-syntax-ns#"
   xmlns:svg="http://www.w3.org/2000/svg"
   xmlns="http://www.w3.org/2000/svg"
   xmlns:sodipodi="http://sodipodi.sourceforge.net/DTD/sodipodi-0.dtd"
   xmlns:inkscape="http://www.inkscape.org/namespaces/inkscape"
   width="162.79196mm"
   height="30.032738mm"
   viewBox="0 0 162.79196 30.032738"
   version="1.1"
   id="svg8"
   inkscape:version="0.92.5 (2060ec1f9f, 2020-04-08)"
   sodipodi:docname="schema_fonction.svg">
  <defs
     id="defs2">
    <marker
       inkscape:stockid="Arrow1Send"
       orient="auto"
       refY="0"
       refX="0"
       id="Arrow1Send"
       style="overflow:visible"
       inkscape:isstock="true">
      <path
         id="path878"
         d="M 0,0 5,-5 -12.5,0 5,5 Z"
         style="fill:#000000;fill-opacity:1;fill-rule:evenodd;stroke:#000000;stroke-width:1.00000003pt;stroke-opacity:1"
         transform="matrix(-0.2,0,0,-0.2,-1.2,0)"
         inkscape:connector-curvature="0" />
    </marker>
    <marker
       inkscape:stockid="Arrow2Send"
       orient="auto"
       refY="0"
       refX="0"
       id="marker1245"
       style="overflow:visible"
       inkscape:isstock="true">
      <path
         id="path1243"
         style="fill:#000000;fill-opacity:1;fill-rule:evenodd;stroke:#000000;stroke-width:0.625;stroke-linejoin:round;stroke-opacity:1"
         d="M 8.7185878,4.0337352 -2.2072895,0.01601326 8.7185884,-4.0017078 c -1.7454984,2.3720609 -1.7354408,5.6174519 -6e-7,8.035443 z"
         transform="matrix(-0.3,0,0,-0.3,0.69,0)"
         inkscape:connector-curvature="0" />
    </marker>
    <marker
       inkscape:stockid="Arrow2Send"
       orient="auto"
       refY="0"
       refX="0"
       id="Arrow2Send"
       style="overflow:visible"
       inkscape:isstock="true">
      <path
         id="path896"
         style="fill:#d1d1d1;fill-opacity:1;fill-rule:evenodd;stroke:#d1d1d1;stroke-width:0.625;stroke-linejoin:round;stroke-opacity:1"
         d="M 8.7185878,4.0337352 -2.2072895,0.01601326 8.7185884,-4.0017078 c -1.7454984,2.3720609 -1.7354408,5.6174519 -6e-7,8.035443 z"
         transform="matrix(-0.3,0,0,-0.3,0.69,0)"
         inkscape:connector-curvature="0" />
    </marker>
    <marker
       inkscape:stockid="Arrow2Mend"
       orient="auto"
       refY="0"
       refX="0"
       id="Arrow2Mend"
       style="overflow:visible"
       inkscape:isstock="true">
      <path
         id="path890"
         style="fill:#000000;fill-opacity:1;fill-rule:evenodd;stroke:#000000;stroke-width:0.625;stroke-linejoin:round;stroke-opacity:1"
         d="M 8.7185878,4.0337352 -2.2072895,0.01601326 8.7185884,-4.0017078 c -1.7454984,2.3720609 -1.7354408,5.6174519 -6e-7,8.035443 z"
         transform="scale(-0.6)"
         inkscape:connector-curvature="0" />
    </marker>
    <marker
       inkscape:stockid="Arrow2Lend"
       orient="auto"
       refY="0"
       refX="0"
       id="marker1147"
       style="overflow:visible"
       inkscape:isstock="true">
      <path
         id="path1145"
         style="fill:#000000;fill-opacity:1;fill-rule:evenodd;stroke:#000000;stroke-width:0.625;stroke-linejoin:round;stroke-opacity:1"
         d="M 8.7185878,4.0337352 -2.2072895,0.01601326 8.7185884,-4.0017078 c -1.7454984,2.3720609 -1.7354408,5.6174519 -6e-7,8.035443 z"
         transform="matrix(-1.1,0,0,-1.1,-1.1,0)"
         inkscape:connector-curvature="0" />
    </marker>
    <marker
       inkscape:stockid="Arrow2Lend"
       orient="auto"
       refY="0"
       refX="0"
       id="Arrow2Lend"
       style="overflow:visible"
       inkscape:isstock="true">
      <path
         id="path884"
         style="fill:#000000;fill-opacity:1;fill-rule:evenodd;stroke:#000000;stroke-width:0.625;stroke-linejoin:round;stroke-opacity:1"
         d="M 8.7185878,4.0337352 -2.2072895,0.01601326 8.7185884,-4.0017078 c -1.7454984,2.3720609 -1.7354408,5.6174519 -6e-7,8.035443 z"
         transform="matrix(-1.1,0,0,-1.1,-1.1,0)"
         inkscape:connector-curvature="0" />
    </marker>
    <marker
       inkscape:stockid="Arrow2Send"
       orient="auto"
       refY="0"
       refX="0"
       id="Arrow2Send-7"
       style="overflow:visible"
       inkscape:isstock="true">
      <path
         inkscape:connector-curvature="0"
         id="path896-4"
         style="fill:#d1d1d1;fill-opacity:1;fill-rule:evenodd;stroke:#d1d1d1;stroke-width:0.625;stroke-linejoin:round;stroke-opacity:1"
         d="M 8.7185878,4.0337352 -2.2072895,0.01601326 8.7185884,-4.0017078 c -1.7454984,2.3720609 -1.7354408,5.6174519 -6e-7,8.035443 z"
         transform="matrix(-0.3,0,0,-0.3,0.69,0)" />
    </marker>
  </defs>
  <sodipodi:namedview
     id="base"
     pagecolor="#ffffff"
     bordercolor="#666666"
     borderopacity="1.0"
     inkscape:pageopacity="0.0"
     inkscape:pageshadow="2"
     inkscape:zoom="1.4"
     inkscape:cx="398.00567"
     inkscape:cy="-47.994402"
     inkscape:document-units="mm"
     inkscape:current-layer="layer1"
     showgrid="false"
     showguides="false"
     inkscape:window-width="1890"
     inkscape:window-height="1200"
     inkscape:window-x="31"
     inkscape:window-y="0"
     inkscape:window-maximized="1"
     fit-margin-top="5"
     fit-margin-left="10"
     fit-margin-right="10"
     fit-margin-bottom="5" />
  <metadata
     id="metadata5">
    <rdf:RDF>
      <cc:Work
         rdf:about="">
        <dc:format>image/svg+xml</dc:format>
        <dc:type
           rdf:resource="http://purl.org/dc/dcmitype/StillImage" />
        <dc:title />
      </cc:Work>
    </rdf:RDF>
  </metadata>
  <g
     inkscape:label="Calque 1"
     inkscape:groupmode="layer"
     id="layer1"
     transform="translate(-10.461182,-45.370537)">
    <rect
       style="opacity:1;vector-effect:none;fill:#dcdcf0;fill-opacity:1;fill-rule:evenodd;stroke:none;stroke-width:0.31392589;stroke-linecap:butt;stroke-linejoin:miter;stroke-miterlimit:10;stroke-dasharray:none;stroke-dashoffset:0;stroke-opacity:1;paint-order:stroke markers fill"
       id="rect855"
       width="41.38839"
       height="20.032738"
       x="75.061089"
       y="50.370537"
       ry="5.6563025" />
    <g
       aria-label="Arguments"
       style="font-style:normal;font-variant:normal;font-weight:300;font-stretch:normal;font-size:7.05555534px;line-height:1;font-family:'Roboto Condensed';-inkscape-font-specification:'Roboto Condensed, Light';font-variant-ligatures:normal;font-variant-caps:normal;font-variant-numeric:normal;font-feature-settings:normal;text-align:start;letter-spacing:0px;word-spacing:0px;writing-mode:lr-tb;text-anchor:start;fill:#000000;fill-opacity:1;stroke:none;stroke-width:0.26458332"
       id="text817">
      <path
         d="m 20.461182,62.152515 1.598524,-5.016058 h 0.36518 l 1.598524,5.016058 h -0.409966 l -0.430637,-1.402153 h -1.881022 l -0.430637,1.402153 z m 0.954291,-1.770779 h 1.653646 l -0.826823,-2.694064 z"
         style="font-style:normal;font-variant:normal;font-weight:300;font-stretch:normal;font-size:7.05555534px;font-family:'Roboto Condensed';-inkscape-font-specification:'Roboto Condensed, Light';font-variant-ligatures:normal;font-variant-caps:normal;font-variant-numeric:normal;font-feature-settings:normal;text-align:start;writing-mode:lr-tb;text-anchor:start;stroke-width:0.26458332"
         id="path909" />
      <path
         d="m 25.911323,58.759096 q -0.334175,0 -0.544325,0.223932 -0.206706,0.223931 -0.292834,0.578776 v 2.590711 h -0.382405 v -3.727593 h 0.37207 l 0.01034,0.558106 q 0.268718,-0.627008 0.854384,-0.627008 0.141249,0 0.230821,0.04134 l -0.01034,0.385851 q -0.110243,-0.02412 -0.237711,-0.02412 z"
         style="font-style:normal;font-variant:normal;font-weight:300;font-stretch:normal;font-size:7.05555534px;font-family:'Roboto Condensed';-inkscape-font-specification:'Roboto Condensed, Light';font-variant-ligatures:normal;font-variant-caps:normal;font-variant-numeric:normal;font-feature-settings:normal;text-align:start;writing-mode:lr-tb;text-anchor:start;stroke-width:0.26458332"
         id="path911" />
      <path
         d="m 27.923258,63.637352 q -0.279052,0 -0.592556,-0.137804 -0.313504,-0.134359 -0.502984,-0.375516 l 0.179145,-0.275607 q 0.382405,0.434082 0.888834,0.434082 0.427192,0 0.658014,-0.230822 0.230821,-0.227376 0.234266,-0.775146 v -0.592557 q -0.316949,0.54088 -0.954291,0.54088 -0.561551,0 -0.88539,-0.427191 -0.323839,-0.430637 -0.323839,-1.333252 v -0.347955 q 0,-0.933621 0.323839,-1.347032 0.327284,-0.413412 0.89228,-0.413412 0.644233,0 0.957736,0.589112 l 0.01723,-0.52021 h 0.354845 v 3.834391 q -0.0034,0.720025 -0.341065,1.047309 -0.337619,0.33073 -0.90606,0.33073 z m -0.91295,-3.172933 q 0,1.391818 0.902615,1.391818 0.34451,0 0.55466,-0.168809 0.210151,-0.16881 0.320394,-0.423747 V 59.361988 Q 28.688069,59.107051 28.481364,58.914126 28.278103,58.7212 27.916368,58.7212 q -0.878499,0 -0.90606,1.312582 z"
         style="font-style:normal;font-variant:normal;font-weight:300;font-stretch:normal;font-size:7.05555534px;font-family:'Roboto Condensed';-inkscape-font-specification:'Roboto Condensed, Light';font-variant-ligatures:normal;font-variant-caps:normal;font-variant-numeric:normal;font-feature-settings:normal;text-align:start;writing-mode:lr-tb;text-anchor:start;stroke-width:0.26458332"
         id="path913" />
      <path
         d="m 32.202067,62.152515 -0.0069,-0.447862 q -0.310059,0.516764 -0.981852,0.516764 -0.461643,0 -0.747586,-0.323839 -0.282498,-0.323839 -0.282498,-1.085205 v -2.387451 h 0.382406 v 2.415012 q 0.0034,0.578776 0.210151,0.795817 0.206705,0.217041 0.485758,0.217041 0.396186,0 0.616672,-0.19637 0.220486,-0.199816 0.310059,-0.509874 v -2.721626 h 0.382405 v 3.727593 z"
         style="font-style:normal;font-variant:normal;font-weight:300;font-stretch:normal;font-size:7.05555534px;font-family:'Roboto Condensed';-inkscape-font-specification:'Roboto Condensed, Light';font-variant-ligatures:normal;font-variant-caps:normal;font-variant-numeric:normal;font-feature-settings:normal;text-align:start;writing-mode:lr-tb;text-anchor:start;stroke-width:0.26458332"
         id="path915" />
      <path
         d="m 34.83412,58.7212 q -0.368625,0 -0.578776,0.251492 -0.206706,0.248047 -0.292833,0.568441 v 2.611382 H 33.57666 v -3.727593 h 0.368625 l 0.01378,0.551215 q 0.155029,-0.282497 0.406521,-0.451307 0.251492,-0.16881 0.589111,-0.16881 0.720025,0 0.930176,0.685574 0.148139,-0.299723 0.416857,-0.492648 0.268717,-0.192926 0.637342,-0.192926 0.492649,0 0.761366,0.320394 0.272163,0.320394 0.272163,1.043864 v 2.432237 h -0.385851 v -2.456353 q -0.0034,-0.571885 -0.210151,-0.775146 -0.20326,-0.203261 -0.533989,-0.199816 -0.413412,0.0034 -0.633898,0.316949 -0.217041,0.313504 -0.244602,0.637343 v 2.477023 H 35.581706 V 59.665157 Q 35.578261,59.127722 35.371555,58.924461 35.164849,58.7212 34.83412,58.7212 Z"
         style="font-style:normal;font-variant:normal;font-weight:300;font-stretch:normal;font-size:7.05555534px;font-family:'Roboto Condensed';-inkscape-font-specification:'Roboto Condensed, Light';font-variant-ligatures:normal;font-variant-caps:normal;font-variant-numeric:normal;font-feature-settings:normal;text-align:start;writing-mode:lr-tb;text-anchor:start;stroke-width:0.26458332"
         id="path917" />
      <path
         d="m 41.314344,61.721878 q -0.151584,0.203261 -0.416856,0.354845 -0.265273,0.148139 -0.692464,0.148139 -0.623563,0 -1.019749,-0.413411 -0.39274,-0.413411 -0.39274,-1.27813 v -0.427192 q 0,-0.933621 0.406521,-1.340142 0.406521,-0.409967 0.940511,-0.409967 0.613227,0 0.923285,0.399631 0.313504,0.396186 0.323839,1.192003 v 0.372071 H 39.17494 v 0.213596 q 0,0.678683 0.285943,1.005967 0.289388,0.327284 0.761366,0.327284 0.551215,0 0.888835,-0.399631 z M 40.139567,58.71431 q -0.406521,0 -0.671794,0.289388 -0.261827,0.285943 -0.289388,0.957737 h 1.825901 v -0.09646 Q 40.99395,59.320647 40.7838,59.017479 40.573649,58.71431 40.139567,58.71431 Z"
         style="font-style:normal;font-variant:normal;font-weight:300;font-stretch:normal;font-size:7.05555534px;font-family:'Roboto Condensed';-inkscape-font-specification:'Roboto Condensed, Light';font-variant-ligatures:normal;font-variant-caps:normal;font-variant-numeric:normal;font-feature-settings:normal;text-align:start;writing-mode:lr-tb;text-anchor:start;stroke-width:0.26458332"
         id="path919" />
      <path
         d="m 43.488199,58.7212 q -0.341065,0 -0.568441,0.254937 -0.227376,0.254938 -0.330729,0.582222 v 2.594156 h -0.382406 v -3.727593 h 0.36518 l 0.01378,0.585666 q 0.161919,-0.296278 0.416856,-0.475423 0.258382,-0.179145 0.585667,-0.179145 0.468532,0 0.733805,0.316949 0.265272,0.313504 0.265272,1.050754 v 2.428792 H 44.204779 V 59.703053 Q 44.201334,59.141502 44.011853,58.931351 43.822373,58.7212 43.488199,58.7212 Z"
         style="font-style:normal;font-variant:normal;font-weight:300;font-stretch:normal;font-size:7.05555534px;font-family:'Roboto Condensed';-inkscape-font-specification:'Roboto Condensed, Light';font-variant-ligatures:normal;font-variant-caps:normal;font-variant-numeric:normal;font-feature-settings:normal;text-align:start;writing-mode:lr-tb;text-anchor:start;stroke-width:0.26458332"
         id="path921" />
      <path
         d="m 46.864392,62.166296 q -0.148139,0.05512 -0.378961,0.05512 -0.296278,0 -0.492648,-0.206705 -0.196371,-0.210151 -0.196371,-0.771702 v -2.473578 h -0.571886 v -0.34451 h 0.571886 v -0.954291 h 0.385851 v 0.954291 h 0.633897 v 0.34451 h -0.633897 v 2.473578 q 0,0.385851 0.117133,0.496094 0.120578,0.110243 0.275608,0.110243 0.137804,0 0.275607,-0.03445 z"
         style="font-style:normal;font-variant:normal;font-weight:300;font-stretch:normal;font-size:7.05555534px;font-family:'Roboto Condensed';-inkscape-font-specification:'Roboto Condensed, Light';font-variant-ligatures:normal;font-variant-caps:normal;font-variant-numeric:normal;font-feature-settings:normal;text-align:start;writing-mode:lr-tb;text-anchor:start;stroke-width:0.26458332"
         id="path923" />
      <path
         d="m 49.520562,61.23612 q 0,-0.241157 -0.199816,-0.420302 -0.19637,-0.179145 -0.678684,-0.396186 -0.482313,-0.220486 -0.754475,-0.430636 -0.272163,-0.213596 -0.282498,-0.609782 v -0.03101 q 0,-0.420302 0.299723,-0.706245 0.299723,-0.285943 0.813043,-0.285943 0.54777,0 0.854383,0.306614 0.310059,0.303168 0.310059,0.782036 h -0.382406 q 0,-0.285942 -0.20326,-0.506429 -0.203261,-0.223931 -0.578776,-0.223931 -0.389296,0 -0.561551,0.192926 -0.16881,0.192925 -0.16881,0.427191 0,0.227377 0.158475,0.372071 0.161919,0.144694 0.647678,0.375515 0.513319,0.223931 0.809597,0.454753 0.299723,0.230821 0.299723,0.675238 0,0.461643 -0.316948,0.737251 -0.316949,0.272162 -0.847494,0.272162 -0.602892,0 -0.91984,-0.323839 -0.316949,-0.323839 -0.316949,-0.761366 h 0.382405 q 0.02067,0.437527 0.292834,0.582221 0.275607,0.144694 0.56155,0.144694 0.382406,0 0.582221,-0.18259 0.199816,-0.186035 0.199816,-0.444417 z"
         style="font-style:normal;font-variant:normal;font-weight:300;font-stretch:normal;font-size:7.05555534px;font-family:'Roboto Condensed';-inkscape-font-specification:'Roboto Condensed, Light';font-variant-ligatures:normal;font-variant-caps:normal;font-variant-numeric:normal;font-feature-settings:normal;text-align:start;writing-mode:lr-tb;text-anchor:start;stroke-width:0.26458332"
         id="path925" />
    </g>
    <g
       aria-label="Résultat"
       style="font-style:normal;font-variant:normal;font-weight:300;font-stretch:normal;font-size:7.05555534px;line-height:1;font-family:'Roboto Condensed';-inkscape-font-specification:'Roboto Condensed, Light';font-variant-ligatures:normal;font-variant-caps:normal;font-variant-numeric:normal;font-feature-settings:normal;text-align:start;letter-spacing:0px;word-spacing:0px;writing-mode:lr-tb;text-anchor:start;fill:#000000;fill-opacity:1;stroke:none;stroke-width:0.26458332"
       id="text817-1">
      <path
         d="m 144.1432,62.998287 -1.00252,-2.087728 h -1.17822 v 2.087728 h -0.39274 v -5.016059 h 1.37459 q 0.66835,0 1.05075,0.378961 0.38586,0.37896 0.38586,1.098985 0,0.496094 -0.23772,0.861274 -0.23771,0.361735 -0.627,0.496094 l 1.04731,2.135959 v 0.04479 z m -2.18074,-4.647433 v 2.19108 h 1.04731 q 0.4892,0 0.7338,-0.327284 0.2446,-0.327284 0.2446,-0.754476 0,-0.513319 -0.26871,-0.809597 -0.26528,-0.299723 -0.77515,-0.299723 z"
         style="font-style:normal;font-variant:normal;font-weight:300;font-stretch:normal;font-size:7.05555534px;font-family:'Roboto Condensed';-inkscape-font-specification:'Roboto Condensed, Light';font-variant-ligatures:normal;font-variant-caps:normal;font-variant-numeric:normal;font-feature-settings:normal;text-align:start;writing-mode:lr-tb;text-anchor:start;stroke-width:0.26458332"
         id="path945" />
      <path
         d="m 147.71232,62.56765 q -0.15158,0.203261 -0.41685,0.354845 -0.26528,0.148139 -0.69247,0.148139 -0.62356,0 -1.01975,-0.413411 -0.39274,-0.413412 -0.39274,-1.278131 v -0.427191 q 0,-0.933621 0.40652,-1.340143 0.40653,-0.409966 0.94051,-0.409966 0.61323,0 0.92329,0.399631 0.3135,0.396186 0.32384,1.192003 v 0.37207 h -2.21175 v 0.213596 q 0,0.678684 0.28594,1.005968 0.28939,0.327284 0.76137,0.327284 0.55121,0 0.88883,-0.399631 z m -1.17478,-3.007568 q -0.40652,0 -0.67179,0.289388 -0.26183,0.285943 -0.28939,0.957737 h 1.8259 v -0.09646 q -0.0103,-0.544325 -0.22048,-0.847494 -0.21015,-0.303168 -0.64424,-0.303168 z m -0.21704,-0.88539 0.65802,-0.964626 h 0.49954 l -0.79927,0.964626 z"
         style="font-style:normal;font-variant:normal;font-weight:300;font-stretch:normal;font-size:7.05555534px;font-family:'Roboto Condensed';-inkscape-font-specification:'Roboto Condensed, Light';font-variant-ligatures:normal;font-variant-caps:normal;font-variant-numeric:normal;font-feature-settings:normal;text-align:start;writing-mode:lr-tb;text-anchor:start;stroke-width:0.26458332"
         id="path947" />
      <path
         d="m 150.4684,62.081892 q 0,-0.241157 -0.19982,-0.420302 -0.19637,-0.179145 -0.67868,-0.396186 -0.48231,-0.220486 -0.75448,-0.430637 -0.27216,-0.213596 -0.28249,-0.609782 v -0.031 q 0,-0.420302 0.29972,-0.706245 0.29972,-0.285943 0.81304,-0.285943 0.54777,0 0.85439,0.306614 0.31005,0.303168 0.31005,0.782036 h -0.3824 q 0,-0.285943 -0.20326,-0.506429 -0.20326,-0.223931 -0.57878,-0.223931 -0.38929,0 -0.56155,0.192925 -0.16881,0.192926 -0.16881,0.427192 0,0.227376 0.15848,0.37207 0.16192,0.144694 0.64767,0.375516 0.51332,0.223931 0.8096,0.454752 0.29972,0.230822 0.29972,0.675239 0,0.461643 -0.31694,0.737251 -0.31695,0.272162 -0.8475,0.272162 -0.60289,0 -0.91984,-0.323839 -0.31695,-0.323839 -0.31695,-0.761366 h 0.38241 q 0.0207,0.437527 0.29283,0.582221 0.27561,0.144694 0.56155,0.144694 0.38241,0 0.58222,-0.18259 0.19982,-0.186035 0.19982,-0.444417 z"
         style="font-style:normal;font-variant:normal;font-weight:300;font-stretch:normal;font-size:7.05555534px;font-family:'Roboto Condensed';-inkscape-font-specification:'Roboto Condensed, Light';font-variant-ligatures:normal;font-variant-caps:normal;font-variant-numeric:normal;font-feature-settings:normal;text-align:start;writing-mode:lr-tb;text-anchor:start;stroke-width:0.26458332"
         id="path949" />
      <path
         d="m 153.76191,62.998287 -0.007,-0.447862 q -0.31006,0.516764 -0.98185,0.516764 -0.46164,0 -0.74759,-0.323839 -0.2825,-0.323839 -0.2825,-1.085205 v -2.387451 h 0.38241 v 2.415012 q 0.003,0.578776 0.21015,0.795817 0.20671,0.217041 0.48576,0.217041 0.39619,0 0.61667,-0.196371 0.22049,-0.199815 0.31006,-0.509874 v -2.721625 h 0.38241 v 3.727593 z"
         style="font-style:normal;font-variant:normal;font-weight:300;font-stretch:normal;font-size:7.05555534px;font-family:'Roboto Condensed';-inkscape-font-specification:'Roboto Condensed, Light';font-variant-ligatures:normal;font-variant-caps:normal;font-variant-numeric:normal;font-feature-settings:normal;text-align:start;writing-mode:lr-tb;text-anchor:start;stroke-width:0.26458332"
         id="path951" />
      <path
         d="m 155.57748,57.706621 v 5.291666 h -0.38241 v -5.291666 z"
         style="font-style:normal;font-variant:normal;font-weight:300;font-stretch:normal;font-size:7.05555534px;font-family:'Roboto Condensed';-inkscape-font-specification:'Roboto Condensed, Light';font-variant-ligatures:normal;font-variant-caps:normal;font-variant-numeric:normal;font-feature-settings:normal;text-align:start;writing-mode:lr-tb;text-anchor:start;stroke-width:0.26458332"
         id="path953" />
      <path
         d="m 157.89947,63.012068 q -0.14814,0.05512 -0.37896,0.05512 -0.29628,0 -0.49265,-0.206706 -0.19637,-0.21015 -0.19637,-0.771701 v -2.473578 h -0.57189 v -0.34451 h 0.57189 v -0.954291 h 0.38585 v 0.954291 h 0.6339 v 0.34451 h -0.6339 v 2.473578 q 0,0.385851 0.11713,0.496094 0.12058,0.110243 0.27561,0.110243 0.13781,0 0.27561,-0.03445 z"
         style="font-style:normal;font-variant:normal;font-weight:300;font-stretch:normal;font-size:7.05555534px;font-family:'Roboto Condensed';-inkscape-font-specification:'Roboto Condensed, Light';font-variant-ligatures:normal;font-variant-caps:normal;font-variant-numeric:normal;font-feature-settings:normal;text-align:start;writing-mode:lr-tb;text-anchor:start;stroke-width:0.26458332"
         id="path955" />
      <path
         d="m 160.66244,62.998287 q -0.0551,-0.172255 -0.0724,-0.516764 -0.1447,0.230821 -0.40308,0.409966 -0.25493,0.179145 -0.62356,0.179145 -0.46164,0 -0.7407,-0.265272 -0.27905,-0.265272 -0.27905,-0.788927 0,-0.516764 0.35485,-0.854384 0.35484,-0.337619 1.05764,-0.337619 h 0.63045 v -0.520209 q 0,-0.744141 -0.77859,-0.744141 -0.35829,0 -0.58566,0.206706 -0.22394,0.206705 -0.22394,0.53399 l -0.3824,-0.0034 q 0,-0.430637 0.33073,-0.761366 0.33417,-0.334174 0.8785,-0.334174 0.50298,0 0.82338,0.251492 0.32039,0.251492 0.32039,0.857829 v 1.836236 q 0,0.544325 0.0965,0.806152 v 0.04479 z m -1.0542,-0.303168 q 0.36518,0 0.61667,-0.186035 0.25494,-0.189481 0.36173,-0.451308 v -0.909505 h -0.60633 q -0.52021,0.0069 -0.78893,0.234266 -0.26527,0.223932 -0.26527,0.602892 0,0.70969 0.68213,0.70969 z"
         style="font-style:normal;font-variant:normal;font-weight:300;font-stretch:normal;font-size:7.05555534px;font-family:'Roboto Condensed';-inkscape-font-specification:'Roboto Condensed, Light';font-variant-ligatures:normal;font-variant-caps:normal;font-variant-numeric:normal;font-feature-settings:normal;text-align:start;writing-mode:lr-tb;text-anchor:start;stroke-width:0.26458332"
         id="path957" />
      <path
         d="m 163.27382,63.012068 q -0.14814,0.05512 -0.37896,0.05512 -0.29628,0 -0.49265,-0.206706 -0.19637,-0.21015 -0.19637,-0.771701 v -2.473578 h -0.57189 v -0.34451 h 0.57189 v -0.954291 h 0.38585 v 0.954291 h 0.6339 v 0.34451 h -0.6339 v 2.473578 q 0,0.385851 0.11713,0.496094 0.12058,0.110243 0.27561,0.110243 0.1378,0 0.27561,-0.03445 z"
         style="font-style:normal;font-variant:normal;font-weight:300;font-stretch:normal;font-size:7.05555534px;font-family:'Roboto Condensed';-inkscape-font-specification:'Roboto Condensed, Light';font-variant-ligatures:normal;font-variant-caps:normal;font-variant-numeric:normal;font-feature-settings:normal;text-align:start;writing-mode:lr-tb;text-anchor:start;stroke-width:0.26458332"
         id="path959" />
    </g>
    <g
       aria-label="Fonction"
       style="font-style:normal;font-variant:normal;font-weight:normal;font-stretch:normal;font-size:7.05555534px;line-height:1;font-family:'Roboto Condensed';-inkscape-font-specification:'Roboto Condensed, Normal';font-variant-ligatures:normal;font-variant-caps:normal;font-variant-numeric:normal;font-feature-settings:normal;text-align:start;letter-spacing:0px;word-spacing:0px;writing-mode:lr-tb;text-anchor:start;fill:#000000;fill-opacity:1;stroke:none;stroke-width:0.26458332"
       id="text817-1-8">
      <path
         d="m 84.160814,62.894936 v -5.016059 h 2.611382 v 0.544325 h -1.977484 v 1.712212 h 1.691541 v 0.544325 h -1.691541 v 2.215197 z"
         style="font-style:normal;font-variant:normal;font-weight:normal;font-stretch:normal;font-size:7.05555534px;font-family:'Roboto Condensed';-inkscape-font-specification:'Roboto Condensed, Normal';font-variant-ligatures:normal;font-variant-caps:normal;font-variant-numeric:normal;font-feature-settings:normal;text-align:start;writing-mode:lr-tb;text-anchor:start;stroke-width:0.26458332"
         id="path928" />
      <path
         d="m 87.271735,60.855439 q 0,-0.871609 0.416857,-1.312581 0.416856,-0.444418 1.019748,-0.444418 0.609782,0 1.026638,0.444418 0.420302,0.440972 0.420302,1.312581 v 0.354845 q 0,0.871609 -0.420302,1.312581 -0.416856,0.440973 -1.019748,0.440973 -0.606337,0 -1.026638,-0.440973 -0.416857,-0.440972 -0.416857,-1.312581 z m 0.609782,0.354845 q 0,0.616672 0.237712,0.926731 0.237711,0.306613 0.596001,0.306613 0.806152,0 0.830268,-1.164442 v -0.423747 q 0,-0.609782 -0.241157,-0.91984 -0.237711,-0.313504 -0.596001,-0.313504 -0.354845,0 -0.592557,0.313504 -0.234266,0.310058 -0.234266,0.91984 z"
         style="font-style:normal;font-variant:normal;font-weight:normal;font-stretch:normal;font-size:7.05555534px;font-family:'Roboto Condensed';-inkscape-font-specification:'Roboto Condensed, Normal';font-variant-ligatures:normal;font-variant-caps:normal;font-variant-numeric:normal;font-feature-settings:normal;text-align:start;writing-mode:lr-tb;text-anchor:start;stroke-width:0.26458332"
         id="path930" />
      <path
         d="m 92.249898,59.635875 q -0.223931,0 -0.406521,0.151585 -0.179145,0.151584 -0.292833,0.396186 v 2.71129 h -0.609782 v -3.727594 h 0.575331 l 0.01722,0.396186 q 0.354845,-0.465088 0.90606,-0.465088 0.458198,0 0.73036,0.310059 0.272163,0.310059 0.272163,1.043864 v 2.442573 h -0.609782 v -2.449463 q 0,-0.437527 -0.144694,-0.623562 -0.144694,-0.186036 -0.437527,-0.186036 z"
         style="font-style:normal;font-variant:normal;font-weight:normal;font-stretch:normal;font-size:7.05555534px;font-family:'Roboto Condensed';-inkscape-font-specification:'Roboto Condensed, Normal';font-variant-ligatures:normal;font-variant-caps:normal;font-variant-numeric:normal;font-feature-settings:normal;text-align:start;writing-mode:lr-tb;text-anchor:start;stroke-width:0.26458332"
         id="path932" />
      <path
         d="m 95.650207,62.443628 q 0.272163,0 0.468533,-0.16881 0.196371,-0.172254 0.220486,-0.558105 h 0.571886 q -0.02067,0.561551 -0.389296,0.90606 -0.368625,0.341065 -0.871609,0.341065 -0.720025,0 -1.064534,-0.444418 -0.34451,-0.447862 -0.3514,-1.247124 v -0.451308 q 0,-0.813042 0.34451,-1.267795 0.347954,-0.454753 1.071424,-0.454753 0.568441,0 0.902615,0.35829 0.33762,0.354845 0.35829,0.992188 h -0.571886 q -0.04823,-0.826823 -0.689019,-0.826823 -0.482313,0 -0.644233,0.327284 -0.161919,0.327284 -0.161919,0.871609 v 0.420302 q 0,0.54777 0.158474,0.875054 0.16192,0.327284 0.647678,0.327284 z"
         style="font-style:normal;font-variant:normal;font-weight:normal;font-stretch:normal;font-size:7.05555534px;font-family:'Roboto Condensed';-inkscape-font-specification:'Roboto Condensed, Normal';font-variant-ligatures:normal;font-variant-caps:normal;font-variant-numeric:normal;font-feature-settings:normal;text-align:start;writing-mode:lr-tb;text-anchor:start;stroke-width:0.26458332"
         id="path934" />
      <path
         d="m 98.974724,62.894936 q -0.1757,0.0689 -0.427192,0.0689 -0.296278,0 -0.520209,-0.217041 -0.220486,-0.217042 -0.220486,-0.778592 v -2.311659 h -0.568441 v -0.489204 h 0.568441 v -0.90606 h 0.609782 v 0.90606 h 0.56155 v 0.489204 h -0.56155 v 2.315104 q 0,0.285943 0.09646,0.36518 0.09991,0.07924 0.223931,0.07924 0.130914,0 0.241157,-0.04134 z"
         style="font-style:normal;font-variant:normal;font-weight:normal;font-stretch:normal;font-size:7.05555534px;font-family:'Roboto Condensed';-inkscape-font-specification:'Roboto Condensed, Normal';font-variant-ligatures:normal;font-variant-caps:normal;font-variant-numeric:normal;font-feature-settings:normal;text-align:start;writing-mode:lr-tb;text-anchor:start;stroke-width:0.26458332"
         id="path936" />
      <path
         d="m 99.718864,58.1786 q 0,-0.155029 0.08613,-0.261827 0.08613,-0.106798 0.258378,-0.106798 0.16881,0 0.25839,0.106798 0.0896,0.106798 0.0896,0.261827 0,0.148139 -0.0896,0.254937 -0.0896,0.103353 -0.25839,0.103353 -0.172251,0 -0.258378,-0.103353 -0.08613,-0.106798 -0.08613,-0.254937 z m 0.640786,0.988742 v 3.727594 h -0.606335 v -3.727594 z"
         style="font-style:normal;font-variant:normal;font-weight:normal;font-stretch:normal;font-size:7.05555534px;font-family:'Roboto Condensed';-inkscape-font-specification:'Roboto Condensed, Normal';font-variant-ligatures:normal;font-variant-caps:normal;font-variant-numeric:normal;font-feature-settings:normal;text-align:start;writing-mode:lr-tb;text-anchor:start;stroke-width:0.26458332"
         id="path938" />
      <path
         d="m 101.19681,60.855439 q 0,-0.871609 0.41686,-1.312581 0.41685,-0.444418 1.01975,-0.444418 0.60978,0 1.02663,0.444418 0.42031,0.440972 0.42031,1.312581 v 0.354845 q 0,0.871609 -0.42031,1.312581 -0.41685,0.440973 -1.01974,0.440973 -0.60634,0 -1.02664,-0.440973 -0.41686,-0.440972 -0.41686,-1.312581 z m 0.60978,0.354845 q 0,0.616672 0.23771,0.926731 0.23772,0.306613 0.59601,0.306613 0.80615,0 0.83026,-1.164442 v -0.423747 q 0,-0.609782 -0.24115,-0.91984 -0.23771,-0.313504 -0.596,-0.313504 -0.35485,0 -0.59256,0.313504 -0.23427,0.310058 -0.23427,0.91984 z"
         style="font-style:normal;font-variant:normal;font-weight:normal;font-stretch:normal;font-size:7.05555534px;font-family:'Roboto Condensed';-inkscape-font-specification:'Roboto Condensed, Normal';font-variant-ligatures:normal;font-variant-caps:normal;font-variant-numeric:normal;font-feature-settings:normal;text-align:start;writing-mode:lr-tb;text-anchor:start;stroke-width:0.26458332"
         id="path940" />
      <path
         d="m 106.17497,59.635875 q -0.22393,0 -0.40652,0.151585 -0.17914,0.151584 -0.29283,0.396186 v 2.71129 h -0.60978 v -3.727594 h 0.57533 l 0.0172,0.396186 q 0.35485,-0.465088 0.90606,-0.465088 0.4582,0 0.73036,0.310059 0.27217,0.310059 0.27217,1.043864 v 2.442573 h -0.60979 v -2.449463 q 0,-0.437527 -0.14469,-0.623562 -0.14469,-0.186036 -0.43753,-0.186036 z"
         style="font-style:normal;font-variant:normal;font-weight:normal;font-stretch:normal;font-size:7.05555534px;font-family:'Roboto Condensed';-inkscape-font-specification:'Roboto Condensed, Normal';font-variant-ligatures:normal;font-variant-caps:normal;font-variant-numeric:normal;font-feature-settings:normal;text-align:start;writing-mode:lr-tb;text-anchor:start;stroke-width:0.26458332"
         id="path942" />
    </g>
    <path
       style="fill:none;stroke:#d1d1d1;stroke-width:2;stroke-linecap:butt;stroke-linejoin:miter;stroke-miterlimit:4;stroke-dasharray:none;stroke-opacity:1;marker-end:url(#Arrow2Send)"
       d="m 55.859607,60.396514 h 10.394344 v 0"
       id="path861"
       inkscape:connector-curvature="0"
       sodipodi:nodetypes="ccc" />
    <path
       style="fill:none;stroke:#d1d1d1;stroke-width:2;stroke-linecap:butt;stroke-linejoin:miter;stroke-miterlimit:4;stroke-dasharray:none;stroke-opacity:1;marker-end:url(#Arrow2Send-7)"
       d="m 122.36479,60.396514 h 10.39435 v 0"
       id="path861-3"
       inkscape:connector-curvature="0"
       sodipodi:nodetypes="ccc" />
  </g>
</svg>
