<?xml version="1.0" encoding="UTF-8" standalone="no"?>
<!-- Created with Inkscape (http://www.inkscape.org/) -->

<svg
   xmlns:dc="http://purl.org/dc/elements/1.1/"
   xmlns:cc="http://creativecommons.org/ns#"
   xmlns:rdf="http://www.w3.org/1999/02/22-rdf-syntax-ns#"
   xmlns:svg="http://www.w3.org/2000/svg"
   xmlns="http://www.w3.org/2000/svg"
   xmlns:sodipodi="http://sodipodi.sourceforge.net/DTD/sodipodi-0.dtd"
   xmlns:inkscape="http://www.inkscape.org/namespaces/inkscape"
   width="168.5121mm"
   height="73.882462mm"
   viewBox="0 0 168.5121 73.882462"
   version="1.1"
   id="svg8"
   inkscape:version="0.92.5 (2060ec1f9f, 2020-04-08)"
   sodipodi:docname="structure_fonction.svg">
  <defs
     id="defs2" />
  <sodipodi:namedview
     id="base"
     pagecolor="#ffffff"
     bordercolor="#666666"
     borderopacity="1.0"
     inkscape:pageopacity="0.0"
     inkscape:pageshadow="2"
     inkscape:zoom="1.4"
     inkscape:cx="193.40441"
     inkscape:cy="95.474723"
     inkscape:document-units="mm"
     inkscape:current-layer="layer1"
     showgrid="false"
     inkscape:measure-start="0,0"
     inkscape:measure-end="0,0"
     inkscape:window-width="1890"
     inkscape:window-height="1200"
     inkscape:window-x="31"
     inkscape:window-y="0"
     inkscape:window-maximized="1"
     fit-margin-top="5"
     fit-margin-left="10"
     fit-margin-right="10"
     fit-margin-bottom="5" />
  <metadata
     id="metadata5">
    <rdf:RDF>
      <cc:Work
         rdf:about="">
        <dc:format>image/svg+xml</dc:format>
        <dc:type
           rdf:resource="http://purl.org/dc/dcmitype/StillImage" />
        <dc:title />
      </cc:Work>
    </rdf:RDF>
  </metadata>
  <g
     inkscape:label="Calque 1"
     inkscape:groupmode="layer"
     id="layer1"
     transform="translate(-26.848093,-53.337045)">
    <path
       style="opacity:1;vector-effect:none;fill:#f3f3f3;fill-opacity:1;fill-rule:evenodd;stroke:none;stroke-width:2.13200212;stroke-linecap:butt;stroke-linejoin:miter;stroke-miterlimit:4;stroke-dasharray:none;stroke-dashoffset:0;stroke-opacity:1;paint-order:stroke markers fill"
       d="M 41.388409,73.427078 H 152.3244 c 1e-5,0 1e-5,7e-6 1e-5,1.5e-5 V 115.7604 c 0,0 0,10e-6 -1e-5,10e-6 H 41.388409 c -9e-6,0 -1.6e-5,-10e-6 -1.6e-5,-10e-6 V 73.427093 c 0,-8e-6 7e-6,-1.5e-5 1.6e-5,-1.5e-5 z"
       id="rect1116" />
    <path
       inkscape:connector-curvature="0"
       id="path1835"
       style="font-style:normal;font-variant:normal;font-weight:normal;font-stretch:normal;font-size:7.05555534px;line-height:1.39999998;font-family:'FiraCode Nerd Font Mono';-inkscape-font-specification:'FiraCode Nerd Font Mono, Normal';font-variant-ligatures:normal;font-variant-caps:normal;font-variant-numeric:normal;font-feature-settings:normal;text-align:start;letter-spacing:0px;word-spacing:0px;writing-mode:lr-tb;text-anchor:start;fill:#8282dc;fill-opacity:1;stroke:none;stroke-width:0.26458332"
       d="m 48.356692,81.550375 v -1.827208 c 0,-0.752593 -0.477606,-1.2302 -1.425584,-1.2302 -0.369059,0 -0.781538,0.06513 -1.244672,0.238804 l 0.159202,0.459515 c 0.394388,-0.137492 0.73812,-0.195384 0.991396,-0.195384 0.568063,0 0.908177,0.206239 0.908177,0.756211 v 0.318404 h -0.560826 c -1.157835,0 -1.787408,0.434188 -1.787408,1.219345 0,0.709174 0.466753,1.175926 1.2302,1.175926 0.49208,0 0.922649,-0.180912 1.194017,-0.535499 0.108547,0.340114 0.36906,0.49208 0.698319,0.535499 l 0.148348,-0.426952 c -0.213476,-0.06513 -0.311169,-0.180911 -0.311169,-0.488461 z m -1.573931,0.452279 c -0.495698,0 -0.734502,-0.24604 -0.734502,-0.720029 0,-0.488461 0.30755,-0.799629 1.14698,-0.799629 h 0.549972 v 0.980541 c -0.227949,0.340114 -0.586154,0.539117 -0.96245,0.539117 z" />
    <path
       inkscape:connector-curvature="0"
       id="path1837"
       style="font-style:normal;font-variant:normal;font-weight:normal;font-stretch:normal;font-size:7.05555534px;line-height:1.39999998;font-family:'FiraCode Nerd Font Mono';-inkscape-font-specification:'FiraCode Nerd Font Mono, Normal';font-variant-ligatures:normal;font-variant-caps:normal;font-variant-numeric:normal;font-feature-settings:normal;text-align:start;letter-spacing:0px;word-spacing:0px;writing-mode:lr-tb;text-anchor:start;fill:#8282dc;fill-opacity:1;stroke:none;stroke-width:0.26458332"
       d="m 51.895314,76.788779 c -0.260512,0 -0.434188,0.18453 -0.434188,0.423334 0,0.24604 0.173676,0.434188 0.434188,0.434188 0.26775,0 0.448661,-0.188148 0.448661,-0.434188 0,-0.238804 -0.180911,-0.423334 -0.448661,-0.423334 z m 0.568063,1.783789 h -2.192649 v 0.481226 h 1.584786 v 2.757093 c 0,1.023961 -0.792393,1.447294 -1.921282,1.635442 l 0.10131,0.47037 c 1.534131,-0.256894 2.427835,-0.871994 2.427835,-2.145612 z" />
    <path
       inkscape:connector-curvature="0"
       id="path1839"
       style="font-style:normal;font-variant:normal;font-weight:normal;font-stretch:normal;font-size:7.05555534px;line-height:1.39999998;font-family:'FiraCode Nerd Font Mono';-inkscape-font-specification:'FiraCode Nerd Font Mono, Normal';font-variant-ligatures:normal;font-variant-caps:normal;font-variant-numeric:normal;font-feature-settings:normal;text-align:start;letter-spacing:0px;word-spacing:0px;writing-mode:lr-tb;text-anchor:start;fill:#8282dc;fill-opacity:1;stroke:none;stroke-width:0.26458332"
       d="m 55.763196,78.492967 c -1.074616,0 -1.646297,0.814103 -1.646297,1.990029 0,1.197635 0.564445,1.982792 1.63906,1.982792 1.067379,0 1.63906,-0.824958 1.63906,-1.990029 0,-1.20849 -0.557208,-1.982792 -1.631823,-1.982792 z m 0,0.495698 c 0.647663,0 0.980541,0.473989 0.980541,1.487094 0,1.013106 -0.332878,1.490713 -0.987778,1.490713 -0.6549,0 -0.987778,-0.477607 -0.987778,-1.483476 0,-1.020342 0.340114,-1.494331 0.995015,-1.494331 z" />
    <path
       inkscape:connector-curvature="0"
       id="path1841"
       style="font-style:normal;font-variant:normal;font-weight:normal;font-stretch:normal;font-size:7.05555534px;line-height:1.39999998;font-family:'FiraCode Nerd Font Mono';-inkscape-font-specification:'FiraCode Nerd Font Mono, Normal';font-variant-ligatures:normal;font-variant-caps:normal;font-variant-numeric:normal;font-feature-settings:normal;text-align:start;letter-spacing:0px;word-spacing:0px;writing-mode:lr-tb;text-anchor:start;fill:#8282dc;fill-opacity:1;stroke:none;stroke-width:0.26458332"
       d="m 59.262018,78.572568 h -0.607864 v 2.771567 c 0,0.705556 0.361824,1.121653 1.099943,1.121653 0.445043,0 0.919032,-0.209858 1.219345,-0.597009 l 0.05065,0.513789 H 61.5415 v -3.81 h -0.607864 v 2.804131 c -0.206239,0.325641 -0.615099,0.604245 -1.031196,0.604245 -0.441425,0 -0.640427,-0.209857 -0.640427,-0.709173 z" />
    <path
       inkscape:connector-curvature="0"
       id="path1843"
       style="font-style:normal;font-variant:normal;font-weight:normal;font-stretch:normal;font-size:7.05555534px;line-height:1.39999998;font-family:'FiraCode Nerd Font Mono';-inkscape-font-specification:'FiraCode Nerd Font Mono, Normal';font-variant-ligatures:normal;font-variant-caps:normal;font-variant-numeric:normal;font-feature-settings:normal;text-align:start;letter-spacing:0px;word-spacing:0px;writing-mode:lr-tb;text-anchor:start;fill:#8282dc;fill-opacity:1;stroke:none;stroke-width:0.26458332"
       d="m 66.020867,82.190802 -0.235185,-0.412479 c -0.20624,0.108547 -0.445043,0.180912 -0.730883,0.180912 -0.521026,0 -0.727265,-0.227949 -0.727265,-0.651282 v -2.265014 h 1.244672 l 0.07237,-0.470371 h -1.317037 v -0.937122 l -0.607864,0.07237 v 0.864757 h -0.875612 v 0.470371 h 0.875612 v 2.27225 c 0,0.672992 0.463134,1.150599 1.280855,1.150599 0.354587,0 0.759829,-0.104929 1.020342,-0.274986 z" />
    <path
       inkscape:connector-curvature="0"
       id="path1845"
       style="font-style:normal;font-variant:normal;font-weight:normal;font-stretch:normal;font-size:7.05555534px;line-height:1.39999998;font-family:'FiraCode Nerd Font Mono';-inkscape-font-specification:'FiraCode Nerd Font Mono, Normal';font-variant-ligatures:normal;font-variant-caps:normal;font-variant-numeric:normal;font-feature-settings:normal;text-align:start;letter-spacing:0px;word-spacing:0px;writing-mode:lr-tb;text-anchor:start;fill:#8282dc;fill-opacity:1;stroke:none;stroke-width:0.26458332"
       d="m 67.8155,80.692853 h 2.561709 c 0.0072,-0.08322 0.01447,-0.202621 0.01447,-0.332877 0,-1.157835 -0.586154,-1.867009 -1.548604,-1.867009 -1.013105,0 -1.664387,0.835812 -1.664387,1.990029 0,1.183162 0.629572,1.982792 1.743988,1.982792 0.473989,0 0.955214,-0.170057 1.309801,-0.448661 l -0.285841,-0.401624 c -0.336495,0.227949 -0.629572,0.343732 -1.016723,0.343732 -0.589772,0 -1.081852,-0.383533 -1.114416,-1.266382 z m 1.034815,-1.700569 c 0.571681,0 0.94074,0.416096 0.955213,1.230199 h -1.98641 c 0.05065,-0.83943 0.463134,-1.230199 1.031197,-1.230199 z" />
    <path
       inkscape:connector-curvature="0"
       id="path1847"
       style="font-style:normal;font-variant:normal;font-weight:normal;font-stretch:normal;font-size:7.05555534px;line-height:1.39999998;font-family:'FiraCode Nerd Font Mono';-inkscape-font-specification:'FiraCode Nerd Font Mono, Normal';font-variant-ligatures:normal;font-variant-caps:normal;font-variant-numeric:normal;font-feature-settings:normal;text-align:start;letter-spacing:0px;word-spacing:0px;writing-mode:lr-tb;text-anchor:start;fill:#8282dc;fill-opacity:1;stroke:none;stroke-width:0.26458332"
       d="m 72.902727,77.32066 c -0.672991,0 -1.128889,0.231567 -1.523276,0.712792 l 0.419715,0.325641 c 0.314786,-0.372678 0.582536,-0.531881 1.074615,-0.531881 0.557208,0 0.890086,0.343733 0.890086,0.904559 0,0.810484 -0.405242,1.353219 -2.283106,3.155099 v 0.495698 h 2.963334 l 0.07598,-0.517407 h -2.348234 c 1.642678,-1.497949 2.23245,-2.239687 2.23245,-3.1551 0,-0.792393 -0.560826,-1.389401 -1.501567,-1.389401 z" />
    <path
       inkscape:connector-curvature="0"
       id="path1849"
       style="font-style:normal;font-variant:normal;font-weight:300;font-stretch:normal;font-size:7.05555534px;line-height:1.39999998;font-family:'FiraCode Nerd Font Mono';-inkscape-font-specification:'FiraCode Nerd Font Mono, Light';font-variant-ligatures:normal;font-variant-caps:normal;font-variant-numeric:normal;font-feature-settings:normal;text-align:start;letter-spacing:0px;word-spacing:0px;writing-mode:lr-tb;text-anchor:start;fill:#000000;fill-opacity:1;stroke:none;stroke-width:0.26458332"
       d="m 82.476541,77.982796 -1.903191,2.134758 1.903191,2.134758 0.361823,-0.303932 -1.190399,-1.3098 c -0.09769,-0.104929 -0.206239,-0.224331 -0.34735,-0.311168 h 6.08225 v -0.419715 h -6.075014 c 0.173675,-0.112166 0.173675,-0.12302 0.340114,-0.311168 l 1.190399,-1.309801 z" />
    <path
       inkscape:connector-curvature="0"
       id="path1851"
       style="font-style:normal;font-variant:normal;font-weight:500;font-stretch:normal;font-size:7.05555534px;line-height:1.39999998;font-family:'FiraCode Nerd Font Mono';-inkscape-font-specification:'FiraCode Nerd Font Mono, Medium';font-variant-ligatures:normal;font-variant-caps:normal;font-variant-numeric:normal;font-feature-settings:normal;text-align:start;letter-spacing:0px;word-spacing:0px;writing-mode:lr-tb;text-anchor:start;fill:#000000;fill-opacity:1;stroke:none;stroke-width:0.26458332"
       d="m 95.628798,76.937127 c -0.886468,0 -1.465385,0.49208 -1.465385,1.215726 V 78.8367 h -0.868376 v 0.597008 h 0.868376 v 2.94886 h 0.806866 v -2.94886 h 1.190399 l 0.08684,-0.597008 h -1.277237 v -0.67661 c 0,-0.408861 0.238804,-0.59339 0.73812,-0.59339 0.28584,0 0.568062,0.04704 0.821339,0.151965 l 0.238803,-0.560826 C 96.453755,77.020346 96.09555,76.937127 95.628798,76.937127 Z" />
    <path
       inkscape:connector-curvature="0"
       id="path1853"
       style="font-style:normal;font-variant:normal;font-weight:500;font-stretch:normal;font-size:7.05555534px;line-height:1.39999998;font-family:'FiraCode Nerd Font Mono';-inkscape-font-specification:'FiraCode Nerd Font Mono, Medium';font-variant-ligatures:normal;font-variant-caps:normal;font-variant-numeric:normal;font-feature-settings:normal;text-align:start;letter-spacing:0px;word-spacing:0px;writing-mode:lr-tb;text-anchor:start;fill:#000000;fill-opacity:1;stroke:none;stroke-width:0.26458332"
       d="m 98.458249,78.561714 h -0.810484 v 2.771567 c 0,0.712792 0.358205,1.14698 1.099943,1.14698 0.452279,0 0.919031,-0.20624 1.204872,-0.586154 l 0.05065,0.488461 h 0.69832 v -3.820854 h -0.81048 v 2.76433 c -0.188148,0.300314 -0.539117,0.535499 -0.886468,0.535499 -0.369059,0 -0.546353,-0.177294 -0.546353,-0.629573 z" />
    <path
       inkscape:connector-curvature="0"
       id="path1855"
       style="font-style:normal;font-variant:normal;font-weight:500;font-stretch:normal;font-size:7.05555534px;line-height:1.39999998;font-family:'FiraCode Nerd Font Mono';-inkscape-font-specification:'FiraCode Nerd Font Mono, Medium';font-variant-ligatures:normal;font-variant-caps:normal;font-variant-numeric:normal;font-feature-settings:normal;text-align:start;letter-spacing:0px;word-spacing:0px;writing-mode:lr-tb;text-anchor:start;fill:#000000;fill-opacity:1;stroke:none;stroke-width:0.26458332"
       d="m 101.98963,82.382568 h 0.81049 v -2.742621 c 0.20624,-0.289458 0.52102,-0.560826 0.8937,-0.560826 0.46314,0 0.54636,0.256895 0.54636,0.919031 v 2.384416 h 0.81048 v -2.786039 c 0,-0.716411 -0.35459,-1.136126 -1.06738,-1.136126 -0.45951,0 -0.91541,0.209858 -1.23382,0.597009 l -0.0615,-0.495698 h -0.69832 z" />
    <path
       inkscape:connector-curvature="0"
       id="path1857"
       style="font-style:normal;font-variant:normal;font-weight:500;font-stretch:normal;font-size:7.05555534px;line-height:1.39999998;font-family:'FiraCode Nerd Font Mono';-inkscape-font-specification:'FiraCode Nerd Font Mono, Medium';font-variant-ligatures:normal;font-variant-caps:normal;font-variant-numeric:normal;font-feature-settings:normal;text-align:start;letter-spacing:0px;word-spacing:0px;writing-mode:lr-tb;text-anchor:start;fill:#000000;fill-opacity:1;stroke:none;stroke-width:0.26458332"
       d="m 108.17318,81.814506 c -0.59339,0 -1.02396,-0.36906 -1.02396,-1.324274 0,-0.951595 0.41972,-1.378547 1.02758,-1.378547 0.32564,0 0.63681,0.112166 0.93713,0.318405 l 0.37267,-0.510171 c -0.36906,-0.303932 -0.79963,-0.459516 -1.32427,-0.459516 -1.17954,0 -1.87425,0.864758 -1.87425,2.029829 0,1.197636 0.68385,1.990029 1.85978,1.990029 0.50655,0 1.00587,-0.191767 1.34236,-0.477607 l -0.37629,-0.521026 c -0.27861,0.195385 -0.58254,0.332878 -0.94075,0.332878 z" />
    <path
       inkscape:connector-curvature="0"
       id="path1859"
       style="font-style:normal;font-variant:normal;font-weight:500;font-stretch:normal;font-size:7.05555534px;line-height:1.39999998;font-family:'FiraCode Nerd Font Mono';-inkscape-font-specification:'FiraCode Nerd Font Mono, Medium';font-variant-ligatures:normal;font-variant-caps:normal;font-variant-numeric:normal;font-feature-settings:normal;text-align:start;letter-spacing:0px;word-spacing:0px;writing-mode:lr-tb;text-anchor:start;fill:#000000;fill-opacity:1;stroke:none;stroke-width:0.26458332"
       d="m 113.86465,82.179947 -0.29308,-0.535498 c -0.19538,0.108547 -0.43057,0.180911 -0.70917,0.180911 -0.46675,0 -0.65852,-0.199002 -0.65852,-0.607863 v -2.066011 h 1.19764 l 0.0904,-0.589772 h -1.28809 v -0.951596 l -0.81048,0.09769 v 0.853903 h -0.85029 v 0.589772 h 0.85029 v 2.073248 c 0,0.752592 0.46675,1.255527 1.35684,1.255527 0.42333,0 0.83581,-0.12302 1.11441,-0.300314 z" />
    <path
       inkscape:connector-curvature="0"
       id="path1861"
       style="font-style:normal;font-variant:normal;font-weight:500;font-stretch:normal;font-size:7.05555534px;line-height:1.39999998;font-family:'FiraCode Nerd Font Mono';-inkscape-font-specification:'FiraCode Nerd Font Mono, Medium';font-variant-ligatures:normal;font-variant-caps:normal;font-variant-numeric:normal;font-feature-settings:normal;text-align:start;letter-spacing:0px;word-spacing:0px;writing-mode:lr-tb;text-anchor:start;fill:#000000;fill-opacity:1;stroke:none;stroke-width:0.26458332"
       d="m 116.53852,76.691087 c -0.31117,0 -0.52826,0.220712 -0.52826,0.506553 0,0.293077 0.21709,0.513789 0.52826,0.513789 0.3184,0 0.53188,-0.220712 0.53188,-0.513789 0,-0.285841 -0.21348,-0.506553 -0.53188,-0.506553 z m 0.56444,1.870627 h -1.91766 v 0.59339 h 1.10718 v 2.634074 h -1.14336 v 0.59339 h 2.99228 v -0.59339 h -1.03844 z" />
    <path
       inkscape:connector-curvature="0"
       id="path1863"
       style="font-style:normal;font-variant:normal;font-weight:500;font-stretch:normal;font-size:7.05555534px;line-height:1.39999998;font-family:'FiraCode Nerd Font Mono';-inkscape-font-specification:'FiraCode Nerd Font Mono, Medium';font-variant-ligatures:normal;font-variant-caps:normal;font-variant-numeric:normal;font-feature-settings:normal;text-align:start;letter-spacing:0px;word-spacing:0px;writing-mode:lr-tb;text-anchor:start;fill:#000000;fill-opacity:1;stroke:none;stroke-width:0.26458332"
       d="m 120.88763,78.460403 c -1.1108,0 -1.72952,0.821339 -1.72952,2.011738 0,1.233818 0.61148,2.00812 1.7259,2.00812 1.10718,0 1.7259,-0.803248 1.7259,-2.015356 0,-1.215727 -0.60425,-2.004502 -1.72228,-2.004502 z m 0,0.629573 c 0.58253,0 0.87199,0.434188 0.87199,1.374929 0,0.955213 -0.28946,1.389401 -0.87561,1.389401 -0.58615,0 -0.87561,-0.434188 -0.87561,-1.382165 0,-0.947977 0.29669,-1.382165 0.87923,-1.382165 z" />
    <path
       inkscape:connector-curvature="0"
       id="path1865"
       style="font-style:normal;font-variant:normal;font-weight:500;font-stretch:normal;font-size:7.05555534px;line-height:1.39999998;font-family:'FiraCode Nerd Font Mono';-inkscape-font-specification:'FiraCode Nerd Font Mono, Medium';font-variant-ligatures:normal;font-variant-caps:normal;font-variant-numeric:normal;font-feature-settings:normal;text-align:start;letter-spacing:0px;word-spacing:0px;writing-mode:lr-tb;text-anchor:start;fill:#000000;fill-opacity:1;stroke:none;stroke-width:0.26458332"
       d="m 123.69898,82.382568 h 0.81049 v -2.742621 c 0.20623,-0.289458 0.52102,-0.560826 0.8937,-0.560826 0.46313,0 0.54635,0.256895 0.54635,0.919031 v 2.384416 h 0.81049 v -2.786039 c 0,-0.716411 -0.35459,-1.136126 -1.06738,-1.136126 -0.45952,0 -0.91542,0.209858 -1.23382,0.597009 l -0.0615,-0.495698 h -0.69832 z" />
    <path
       inkscape:connector-curvature="0"
       id="path1867"
       style="font-style:normal;font-variant:normal;font-weight:normal;font-stretch:normal;font-size:7.05555534px;line-height:1;font-family:'FiraCode Nerd Font Mono';-inkscape-font-specification:'FiraCode Nerd Font Mono, Normal';font-variant-ligatures:normal;font-variant-caps:normal;font-variant-numeric:normal;font-feature-settings:normal;text-align:start;letter-spacing:0px;word-spacing:0px;writing-mode:lr-tb;text-anchor:start;fill:#dc8282;fill-opacity:1;stroke:none;stroke-width:0.26458332"
       d="m 128.93456,79.849805 c 0,-1.51604 0.50655,-2.286724 1.5486,-3.212991 l -0.3184,-0.332878 c -1.17593,0.958832 -1.86701,1.895954 -1.86701,3.545869 0,1.649914 0.69108,2.587037 1.86701,3.545869 l 0.3184,-0.332878 c -1.03481,-0.915413 -1.5486,-1.704188 -1.5486,-3.212991 z" />
    <path
       inkscape:connector-curvature="0"
       id="path1869"
       style="font-style:normal;font-variant:normal;font-weight:normal;font-stretch:normal;font-size:7.05555534px;line-height:1;font-family:'FiraCode Nerd Font Mono';-inkscape-font-specification:'FiraCode Nerd Font Mono, Normal';font-variant-ligatures:normal;font-variant-caps:normal;font-variant-numeric:normal;font-feature-settings:normal;text-align:start;letter-spacing:0px;word-spacing:0px;writing-mode:lr-tb;text-anchor:start;fill:#dc8282;fill-opacity:1;stroke:none;stroke-width:0.26458332"
       d="m 132.835,82.382568 1.05652,-1.635441 1.04205,1.635441 h 0.74536 l -1.40387,-2.037065 1.2302,-1.772935 h -0.69471 l -0.8937,1.418348 -0.88285,-1.418348 h -0.72003 l 1.23382,1.798263 -1.40749,2.011737 z" />
    <path
       inkscape:connector-curvature="0"
       id="path1871"
       style="font-style:normal;font-variant:normal;font-weight:normal;font-stretch:normal;font-size:7.05555534px;line-height:1;font-family:'FiraCode Nerd Font Mono';-inkscape-font-specification:'FiraCode Nerd Font Mono, Normal';font-variant-ligatures:normal;font-variant-caps:normal;font-variant-numeric:normal;font-feature-settings:normal;text-align:start;letter-spacing:0px;word-spacing:0px;writing-mode:lr-tb;text-anchor:start;fill:#dc8282;fill-opacity:1;stroke:none;stroke-width:0.26458332"
       d="m 138.88468,79.849805 c 0,1.508803 -0.51379,2.297578 -1.54861,3.212991 l 0.31841,0.332878 c 1.17592,-0.958832 1.86701,-1.895955 1.86701,-3.545869 0,-1.649915 -0.69109,-2.587037 -1.86701,-3.545869 l -0.31841,0.332878 c 1.04206,0.926267 1.54861,1.696951 1.54861,3.212991 z" />
    <path
       inkscape:connector-curvature="0"
       id="path1873"
       style="font-style:normal;font-variant:normal;font-weight:300;font-stretch:normal;font-size:7.05555534px;line-height:1.39999998;font-family:'FiraCode Nerd Font Mono';-inkscape-font-specification:'FiraCode Nerd Font Mono, Light';font-variant-ligatures:normal;font-variant-caps:normal;font-variant-numeric:normal;font-feature-settings:normal;text-align:start;letter-spacing:0px;word-spacing:0px;writing-mode:lr-tb;text-anchor:start;fill:#000000;fill-opacity:1;stroke:none;stroke-width:0.26458332"
       d="m 147.99899,76.347355 c -0.65852,0 -1.48348,0.206239 -1.39302,1.063761 l 0.1592,1.487093 c 0.0506,0.477607 -0.047,0.774302 -1.12527,0.774302 v 0.354587 c 1.07461,0 1.17592,0.30755 1.12527,0.781539 l -0.1592,1.476239 c -0.0941,0.864758 0.7345,1.067379 1.39302,1.067379 v -0.383533 c -0.56083,0 -1.02758,-0.137493 -0.98054,-0.611481 l 0.16282,-1.610114 c 0.0579,-0.586154 -0.11579,-0.814103 -0.54274,-0.897322 0.42333,-0.08684 0.59701,-0.350969 0.54274,-0.897322 l -0.16282,-1.610114 c -0.047,-0.463134 0.42333,-0.611481 0.98054,-0.611481 z" />
    <path
       inkscape:connector-curvature="0"
       id="path1875"
       style="font-style:normal;font-variant:normal;font-weight:300;font-stretch:normal;font-size:7.05555534px;line-height:1.39999998;font-family:'FiraCode Nerd Font Mono';-inkscape-font-specification:'FiraCode Nerd Font Mono, Light';font-variant-ligatures:normal;font-variant-caps:normal;font-variant-numeric:normal;font-feature-settings:normal;text-align:start;letter-spacing:0px;word-spacing:0px;writing-mode:lr-tb;text-anchor:start;fill:#000000;fill-opacity:1;stroke:none;stroke-width:0.26458332"
       d="m 56.841429,88.385218 c -0.709173,0 -1.08547,0.369059 -1.382165,0.987777 L 55.376045,88.4612 h -0.96245 v 0.379915 h 0.618718 v 3.042934 h -0.618718 v 0.376297 h 1.848917 v -0.376297 h -0.781539 v -1.765698 c 0.271368,-0.90094 0.691083,-1.302564 1.306183,-1.302564 0.03256,0 0.06151,0 0.09046,0.0036 l -0.0072,0.09407 v 0.741738 h 0.434188 l 0.05065,-1.194018 c -0.173675,-0.04342 -0.314786,-0.07598 -0.513789,-0.07598 z" />
    <path
       inkscape:connector-curvature="0"
       id="path1877"
       style="font-style:normal;font-variant:normal;font-weight:300;font-stretch:normal;font-size:7.05555534px;line-height:1.39999998;font-family:'FiraCode Nerd Font Mono';-inkscape-font-specification:'FiraCode Nerd Font Mono, Light';font-variant-ligatures:normal;font-variant-caps:normal;font-variant-numeric:normal;font-feature-settings:normal;text-align:start;letter-spacing:0px;word-spacing:0px;writing-mode:lr-tb;text-anchor:start;fill:#000000;fill-opacity:1;stroke:none;stroke-width:0.26458332"
       d="m 59.044924,90.541685 h 2.583418 c 0.0036,-0.07598 0.01085,-0.180912 0.01085,-0.311168 0,-1.132507 -0.549971,-1.838063 -1.472621,-1.838063 -0.955214,0 -1.602877,0.814103 -1.602877,1.971937 0,1.183163 0.618717,1.968319 1.671623,1.968319 0.419715,0 0.890086,-0.155584 1.241054,-0.426951 l -0.235185,-0.336496 c -0.343732,0.238803 -0.625954,0.350969 -1.02396,0.350969 -0.622336,0 -1.154216,-0.423334 -1.172307,-1.378547 z m 1.132507,-1.729516 c 0.597008,0 1.016723,0.43057 1.034814,1.324274 H 59.05216 c 0.05065,-0.897322 0.510171,-1.324274 1.125271,-1.324274 z" />
    <path
       inkscape:connector-curvature="0"
       id="path1879"
       style="font-style:normal;font-variant:normal;font-weight:300;font-stretch:normal;font-size:7.05555534px;line-height:1.39999998;font-family:'FiraCode Nerd Font Mono';-inkscape-font-specification:'FiraCode Nerd Font Mono, Light';font-variant-ligatures:normal;font-variant-caps:normal;font-variant-numeric:normal;font-feature-settings:normal;text-align:start;letter-spacing:0px;word-spacing:0px;writing-mode:lr-tb;text-anchor:start;fill:#000000;fill-opacity:1;stroke:none;stroke-width:0.26458332"
       d="m 64.284115,91.92385 c -0.448661,0 -0.850285,-0.162821 -1.14698,-0.416097 l -0.278604,0.329259 c 0.303931,0.264131 0.752592,0.495698 1.421966,0.495698 0.767065,0 1.544985,-0.293077 1.544985,-1.096324 0,-0.701938 -0.495698,-0.966069 -1.241054,-1.165072 -0.774302,-0.206239 -1.042051,-0.340114 -1.042051,-0.720028 0,-0.322023 0.238803,-0.560826 0.908177,-0.560826 0.524643,0 0.83943,0.148347 1.118034,0.343732 l 0.209857,-0.332878 c -0.300313,-0.22433 -0.738119,-0.40886 -1.33151,-0.40886 -0.792393,0 -1.378547,0.36906 -1.378547,0.995014 0,0.658519 0.51379,0.875613 1.33151,1.074616 0.817721,0.199002 0.92265,0.412478 0.92265,0.785156 0,0.405242 -0.390769,0.67661 -1.038433,0.67661 z" />
    <path
       inkscape:connector-curvature="0"
       id="path1881"
       style="font-style:normal;font-variant:normal;font-weight:300;font-stretch:normal;font-size:7.05555534px;line-height:1.39999998;font-family:'FiraCode Nerd Font Mono';-inkscape-font-specification:'FiraCode Nerd Font Mono, Light';font-variant-ligatures:normal;font-variant-caps:normal;font-variant-numeric:normal;font-feature-settings:normal;text-align:start;letter-spacing:0px;word-spacing:0px;writing-mode:lr-tb;text-anchor:start;fill:#000000;fill-opacity:1;stroke:none;stroke-width:0.26458332"
       d="m 73.792802,87.860574 -1.903191,2.134757 1.903191,2.134758 0.361823,-0.303931 -1.190399,-1.309801 c -0.09769,-0.104929 -0.206239,-0.22433 -0.34735,-0.311168 h 6.08225 v -0.419715 h -6.075014 c 0.173676,-0.112165 0.173676,-0.12302 0.340114,-0.311168 l 1.190399,-1.309801 z" />
    <path
       inkscape:connector-curvature="0"
       id="path1883"
       style="font-style:normal;font-variant:normal;font-weight:300;font-stretch:normal;font-size:7.05555534px;line-height:1.39999998;font-family:'FiraCode Nerd Font Mono';-inkscape-font-specification:'FiraCode Nerd Font Mono, Light';font-variant-ligatures:normal;font-variant-caps:normal;font-variant-numeric:normal;font-feature-settings:normal;text-align:start;letter-spacing:0px;word-spacing:0px;writing-mode:lr-tb;text-anchor:start;fill:#000000;fill-opacity:1;stroke:none;stroke-width:0.26458332"
       d="m 84.983976,92.260346 1.154217,-1.693334 1.12527,1.693334 h 0.582536 L 86.416797,90.230517 87.67956,88.4612 h -0.539116 l -0.98416,1.472622 -0.96245,-1.472622 h -0.55359 l 1.244673,1.791026 -1.432821,2.00812 z" />
    <path
       inkscape:connector-curvature="0"
       id="path1885"
       style="font-style:normal;font-variant:normal;font-weight:300;font-stretch:normal;font-size:7.05555534px;line-height:1.39999998;font-family:'FiraCode Nerd Font Mono';-inkscape-font-specification:'FiraCode Nerd Font Mono, Light';font-variant-ligatures:normal;font-variant-caps:normal;font-variant-numeric:normal;font-feature-settings:normal;text-align:start;letter-spacing:0px;word-spacing:0px;writing-mode:lr-tb;text-anchor:start;fill:#000000;fill-opacity:1;stroke:none;stroke-width:0.26458332"
       d="m 95.04988,88.385218 h -0.452279 v 1.429202 h -1.39302 v 0.401624 h 1.39302 v 1.414729 h 0.452279 v -1.414729 h 1.411111 V 89.81442 H 95.04988 Z" />
    <path
       inkscape:connector-curvature="0"
       id="path1887"
       style="font-style:normal;font-variant:normal;font-weight:300;font-stretch:normal;font-size:7.05555534px;line-height:1.39999998;font-family:'FiraCode Nerd Font Mono';-inkscape-font-specification:'FiraCode Nerd Font Mono, Light';font-variant-ligatures:normal;font-variant-caps:normal;font-variant-numeric:normal;font-feature-settings:normal;text-align:start;letter-spacing:0px;word-spacing:0px;writing-mode:lr-tb;text-anchor:start;fill:#000000;fill-opacity:1;stroke:none;stroke-width:0.26458332"
       d="m 103.28134,87.220146 c -0.63319,0 -1.06738,0.202621 -1.46538,0.672992 l 0.33288,0.264131 c 0.33287,-0.376296 0.60424,-0.539117 1.12889,-0.539117 0.59339,0 0.95521,0.36906 0.95521,0.976923 0,0.875613 -0.37268,1.400256 -2.31567,3.263647 v 0.401624 h 2.85117 l 0.0615,-0.412479 h -2.40613 c 1.67524,-1.537749 2.29034,-2.304815 2.29034,-3.249174 0,-0.799629 -0.55359,-1.378547 -1.43282,-1.378547 z" />
    <path
       inkscape:connector-curvature="0"
       id="path1889"
       style="font-style:normal;font-variant:normal;font-weight:500;font-stretch:normal;font-size:7.05555534px;line-height:1.39999998;font-family:'FiraCode Nerd Font Mono';-inkscape-font-specification:'FiraCode Nerd Font Mono, Medium';font-variant-ligatures:normal;font-variant-caps:normal;font-variant-numeric:normal;font-feature-settings:normal;text-align:start;letter-spacing:0px;word-spacing:0px;writing-mode:lr-tb;text-anchor:start;fill:#000000;fill-opacity:1;stroke:none;stroke-width:0.26458332"
       d="m 56.939122,98.219576 c -0.662137,0 -1.060143,0.343732 -1.345983,0.98416 l -0.148348,-0.886468 h -1.179544 v 0.5753 h 0.560826 v 2.666642 h -0.560826 v 0.57891 h 2.141994 v -0.57891 h -0.770683 v -1.41835 c 0.227948,-0.748976 0.622336,-1.175928 1.161452,-1.194019 v 0.77792 h 0.578918 l 0.137493,-1.407493 c -0.177294,-0.05789 -0.347351,-0.09769 -0.575299,-0.09769 z" />
    <path
       inkscape:connector-curvature="0"
       id="path1891"
       style="font-style:normal;font-variant:normal;font-weight:500;font-stretch:normal;font-size:7.05555534px;line-height:1.39999998;font-family:'FiraCode Nerd Font Mono';-inkscape-font-specification:'FiraCode Nerd Font Mono, Medium';font-variant-ligatures:normal;font-variant-caps:normal;font-variant-numeric:normal;font-feature-settings:normal;text-align:start;letter-spacing:0px;word-spacing:0px;writing-mode:lr-tb;text-anchor:start;fill:#000000;fill-opacity:1;stroke:none;stroke-width:0.26458332"
       d="m 59.243926,100.48821 h 2.532764 c 0.01085,-0.0977 0.01809,-0.23157 0.01809,-0.36182 0,-1.186785 -0.633191,-1.910432 -1.646296,-1.910432 -1.08547,0 -1.743989,0.868376 -1.743989,2.015352 0,1.18678 0.651282,2.00451 1.841681,2.00451 0.542735,0 1.038433,-0.18815 1.39302,-0.47761 l -0.350969,-0.48484 c -0.322022,0.21347 -0.629572,0.33287 -1.00225,0.33287 -0.55359,0 -0.995015,-0.33287 -1.042051,-1.11803 z m 0.911795,-1.671625 c 0.539117,0 0.83943,0.401624 0.853903,1.118034 h -1.769316 c 0.05065,-0.763447 0.405242,-1.118034 0.915413,-1.118034 z" />
    <path
       inkscape:connector-curvature="0"
       id="path1893"
       style="font-style:normal;font-variant:normal;font-weight:500;font-stretch:normal;font-size:7.05555534px;line-height:1.39999998;font-family:'FiraCode Nerd Font Mono';-inkscape-font-specification:'FiraCode Nerd Font Mono, Medium';font-variant-ligatures:normal;font-variant-caps:normal;font-variant-numeric:normal;font-feature-settings:normal;text-align:start;letter-spacing:0px;word-spacing:0px;writing-mode:lr-tb;text-anchor:start;fill:#000000;fill-opacity:1;stroke:none;stroke-width:0.26458332"
       d="M 66.104086,101.9355 65.811009,101.4 c -0.195384,0.10855 -0.430569,0.18092 -0.709173,0.18092 -0.466753,0 -0.658519,-0.19901 -0.658519,-0.60787 v -2.06601 h 1.197635 l 0.09046,-0.589772 h -1.288091 v -0.951595 l -0.810484,0.09769 v 0.853903 h -0.850285 v 0.589772 h 0.850285 v 2.073252 c 0,0.75259 0.466752,1.25553 1.356837,1.25553 0.423334,0 0.835812,-0.12302 1.114416,-0.30032 z" />
    <path
       inkscape:connector-curvature="0"
       id="path1895"
       style="font-style:normal;font-variant:normal;font-weight:500;font-stretch:normal;font-size:7.05555534px;line-height:1.39999998;font-family:'FiraCode Nerd Font Mono';-inkscape-font-specification:'FiraCode Nerd Font Mono, Medium';font-variant-ligatures:normal;font-variant-caps:normal;font-variant-numeric:normal;font-feature-settings:normal;text-align:start;letter-spacing:0px;word-spacing:0px;writing-mode:lr-tb;text-anchor:start;fill:#000000;fill-opacity:1;stroke:none;stroke-width:0.26458332"
       d="m 68.065158,98.317268 h -0.810484 v 2.771572 c 0,0.71279 0.358205,1.14698 1.099943,1.14698 0.452279,0 0.919031,-0.20624 1.204871,-0.58616 l 0.05066,0.48846 h 0.698319 v -3.820852 h -0.810485 v 2.764332 c -0.188148,0.30031 -0.539116,0.5355 -0.886467,0.5355 -0.36906,0 -0.546353,-0.1773 -0.546353,-0.62958 z" />
    <path
       inkscape:connector-curvature="0"
       id="path1897"
       style="font-style:normal;font-variant:normal;font-weight:500;font-stretch:normal;font-size:7.05555534px;line-height:1.39999998;font-family:'FiraCode Nerd Font Mono';-inkscape-font-specification:'FiraCode Nerd Font Mono, Medium';font-variant-ligatures:normal;font-variant-caps:normal;font-variant-numeric:normal;font-feature-settings:normal;text-align:start;letter-spacing:0px;word-spacing:0px;writing-mode:lr-tb;text-anchor:start;fill:#000000;fill-opacity:1;stroke:none;stroke-width:0.26458332"
       d="m 74.306602,98.219576 c -0.662137,0 -1.060143,0.343732 -1.345983,0.98416 l -0.148348,-0.886468 h -1.179544 v 0.5753 h 0.560826 v 2.666642 h -0.560826 v 0.57891 h 2.141995 v -0.57891 h -0.770684 v -1.41835 c 0.227949,-0.748976 0.622336,-1.175928 1.161453,-1.194019 v 0.77792 h 0.578917 l 0.137493,-1.407493 c -0.177293,-0.05789 -0.34735,-0.09769 -0.575299,-0.09769 z" />
    <path
       inkscape:connector-curvature="0"
       id="path1899"
       style="font-style:normal;font-variant:normal;font-weight:500;font-stretch:normal;font-size:7.05555534px;line-height:1.39999998;font-family:'FiraCode Nerd Font Mono';-inkscape-font-specification:'FiraCode Nerd Font Mono, Medium';font-variant-ligatures:normal;font-variant-caps:normal;font-variant-numeric:normal;font-feature-settings:normal;text-align:start;letter-spacing:0px;word-spacing:0px;writing-mode:lr-tb;text-anchor:start;fill:#000000;fill-opacity:1;stroke:none;stroke-width:0.26458332"
       d="m 75.938414,102.13812 h 0.810485 v -2.742618 c 0.206239,-0.289459 0.521025,-0.560826 0.893703,-0.560826 0.463134,0 0.546354,0.256894 0.546354,0.919031 v 2.384413 h 0.810484 v -2.786037 c 0,-0.71641 -0.354587,-1.136125 -1.067379,-1.136125 -0.459516,0 -0.915413,0.209857 -1.233818,0.597008 l -0.06151,-0.495698 h -0.698319 z" />
    <path
       inkscape:connector-curvature="0"
       id="path1901"
       style="font-style:normal;font-weight:normal;font-size:2.11666656px;line-height:1;font-family:sans-serif;letter-spacing:0px;word-spacing:0px;fill:#82dc82;fill-opacity:1;stroke:none;stroke-width:0.26458332"
       d="m 81.173987,99.60536 c 0,-1.51604 0.506553,-2.286724 1.548604,-3.212992 l -0.318404,-0.332877 c -1.175926,0.958832 -1.867009,1.895954 -1.867009,3.545869 0,1.64991 0.691083,2.58704 1.867009,3.54587 l 0.318404,-0.33288 c -1.034815,-0.91541 -1.548604,-1.70419 -1.548604,-3.21299 z" />
    <path
       inkscape:connector-curvature="0"
       id="path1903"
       style="font-style:normal;font-weight:normal;font-size:2.11666656px;line-height:1;font-family:sans-serif;letter-spacing:0px;word-spacing:0px;fill:#82dc82;fill-opacity:1;stroke:none;stroke-width:0.26458332"
       d="m 87.277936,98.244904 c -0.691082,0 -1.074615,0.358205 -1.367692,0.984159 l -0.112165,-0.90094 h -1.056524 v 0.466752 h 0.59339 v 2.876495 h -0.59339 v 0.46675 h 1.975555 v -0.46675 h -0.774302 v -1.61373 c 0.253277,-0.839431 0.665755,-1.25191 1.255527,-1.25191 h 0.03256 v 0.810484 h 0.499317 l 0.08684,-1.288091 c -0.173675,-0.05066 -0.325641,-0.08322 -0.539117,-0.08322 z" />
    <path
       inkscape:connector-curvature="0"
       id="path1905"
       style="font-style:normal;font-weight:normal;font-size:2.11666656px;line-height:1;font-family:sans-serif;letter-spacing:0px;word-spacing:0px;fill:#82dc82;fill-opacity:1;stroke:none;stroke-width:0.26458332"
       d="m 89.524849,100.44841 h 2.561709 c 0.0072,-0.0832 0.01447,-0.20262 0.01447,-0.33288 0,-1.157834 -0.586154,-1.867008 -1.548604,-1.867008 -1.013106,0 -1.664388,0.835812 -1.664388,1.990028 0,1.18316 0.629573,1.98279 1.743989,1.98279 0.473989,0 0.955214,-0.17005 1.309801,-0.44866 l -0.285841,-0.40162 c -0.336496,0.22795 -0.629573,0.34373 -1.016724,0.34373 -0.589772,0 -1.081851,-0.38353 -1.114415,-1.26638 z m 1.034814,-1.700572 c 0.571681,0 0.940741,0.416097 0.955214,1.2302 h -1.98641 c 0.05065,-0.839431 0.463134,-1.2302 1.031196,-1.2302 z" />
    <path
       inkscape:connector-curvature="0"
       id="path1907"
       style="font-style:normal;font-weight:normal;font-size:2.11666656px;line-height:1;font-family:sans-serif;letter-spacing:0px;word-spacing:0px;fill:#82dc82;fill-opacity:1;stroke:none;stroke-width:0.26458332"
       d="m 94.684439,101.71841 c -0.448661,0 -0.846667,-0.16282 -1.143362,-0.41248 l -0.347351,0.40162 c 0.325642,0.28223 0.803248,0.51379 1.490713,0.51379 0.814102,0 1.606495,-0.32202 1.606495,-1.13612 0,-0.71279 -0.492079,-0.97331 -1.237435,-1.175929 -0.770684,-0.209857 -1.013106,-0.329259 -1.013106,-0.669373 0,-0.293077 0.224331,-0.499316 0.824957,-0.499316 0.49208,0 0.821339,0.144729 1.10718,0.340114 l 0.267749,-0.412479 c -0.318404,-0.235185 -0.770684,-0.419715 -1.382165,-0.419715 -0.86114,0 -1.447294,0.398006 -1.447294,1.038433 0,0.662137 0.506553,0.900945 1.298946,1.096325 0.806866,0.20262 0.92265,0.38715 0.92265,0.73088 0,0.36906 -0.361823,0.60425 -0.947977,0.60425 z" />
    <path
       inkscape:connector-curvature="0"
       id="path1909"
       style="font-style:normal;font-weight:normal;font-size:2.11666656px;line-height:1;font-family:sans-serif;letter-spacing:0px;word-spacing:0px;fill:#82dc82;fill-opacity:1;stroke:none;stroke-width:0.26458332"
       d="m 99.80785,99.60536 c 0,1.5088 -0.513789,2.29758 -1.548604,3.21299 l 0.318405,0.33288 c 1.175926,-0.95883 1.867009,-1.89596 1.867009,-3.54587 0,-1.649915 -0.691083,-2.587037 -1.867009,-3.545869 l -0.318405,0.332877 c 1.042052,0.926268 1.548604,1.696952 1.548604,3.212992 z" />
    <path
       inkscape:connector-curvature="0"
       id="path1911"
       style="font-style:normal;font-variant:normal;font-weight:300;font-stretch:normal;font-size:7.05555534px;line-height:1.39999998;font-family:'FiraCode Nerd Font Mono';-inkscape-font-specification:'FiraCode Nerd Font Mono, Light';font-variant-ligatures:normal;font-variant-caps:normal;font-variant-numeric:normal;font-feature-settings:normal;text-align:start;letter-spacing:0px;word-spacing:0px;writing-mode:lr-tb;text-anchor:start;fill:#22223a;fill-opacity:1;stroke:none;stroke-width:0.26458332"
       d="m 46.008459,105.98069 v 0.38353 c 0.560826,0 1.027578,0.14835 0.980541,0.61148 l -0.16282,1.61011 c -0.05427,0.54274 0.137493,0.81411 0.647663,0.90818 -0.549971,0.076 -0.705555,0.2967 -0.647663,0.88647 l 0.16282,1.61011 c 0.04704,0.47399 -0.423333,0.61148 -0.980541,0.61148 v 0.38354 c 0.658518,0 1.483476,-0.20624 1.39302,-1.06376 l -0.159202,-1.47986 c -0.05066,-0.47399 0.151965,-0.78154 1.12527,-0.78154 v -0.35459 c -0.973305,0 -1.175926,-0.29669 -1.12527,-0.7743 l 0.159202,-1.48347 c 0.09407,-0.86476 -0.734502,-1.06738 -1.39302,-1.06738 z" />
    <text
       xml:space="preserve"
       style="font-style:normal;font-weight:normal;font-size:4.95146227px;line-height:1;font-family:sans-serif;letter-spacing:0px;word-spacing:0px;fill:#000000;fill-opacity:1;stroke:none;stroke-width:0.61893278"
       x="187.95634"
       y="83.962624"
       id="text921"
       transform="scale(0.83889549,1.1920436)"><tspan
         sodipodi:role="line"
         id="tspan919"
         x="187.95634"
         y="87.803741"
         style="font-style:normal;font-variant:normal;font-weight:normal;font-stretch:normal;font-size:16.50487328px;font-family:'Roboto Condensed';-inkscape-font-specification:'Roboto Condensed, Normal';font-variant-ligatures:normal;font-variant-caps:normal;font-variant-numeric:normal;font-feature-settings:normal;text-align:start;writing-mode:lr-tb;text-anchor:start;stroke-width:0.61893278" /></text>
    <g
       aria-label="}"
       style="font-style:normal;font-weight:normal;font-size:2.11666656px;line-height:1;font-family:sans-serif;letter-spacing:0px;word-spacing:0px;fill:#9e9e9e;fill-opacity:1;stroke:none;stroke-width:0.26458332"
       id="text979">
      <path
         d="m 160.67888,93.587198 v 1.022504 q -1.84244,0 -1.84244,2.546615 v 2.112533 q 0,1.52411 -0.58842,2.7106 -0.57878,1.19614 -2.17041,1.75562 l -0.25081,-0.78135 q 1.05145,-0.42443 1.49517,-1.3987 0.44373,-0.97428 0.44373,-2.28617 v -2.083594 q 0,-2.401921 1.60128,-3.086806 -1.60128,-0.684885 -1.60128,-3.077159 v -2.09324 q 0,-1.311893 -0.43408,-2.305458 -0.42444,-0.993566 -1.48552,-1.408355 l 0.23151,-0.771702 q 1.59163,0.559484 2.17041,1.765267 0.58842,1.196137 0.58842,2.720248 v 2.131825 q 0,2.527322 1.84244,2.527322 z"
         style="font-style:normal;font-variant:normal;font-weight:300;font-stretch:normal;font-size:19.75555611px;font-family:'Roboto Condensed';-inkscape-font-specification:'Roboto Condensed, Light';font-variant-ligatures:normal;font-variant-caps:normal;font-variant-numeric:normal;font-feature-settings:normal;text-align:start;writing-mode:lr-tb;text-anchor:start;fill:#9e9e9e;fill-opacity:1;stroke-width:0.26458332"
         id="path2025" />
    </g>
    <g
       aria-label="}"
       transform="rotate(-90)"
       style="font-style:normal;font-weight:normal;font-size:2.11666656px;line-height:1;font-family:sans-serif;letter-spacing:0px;word-spacing:0px;fill:#8282dc;fill-opacity:1;stroke:none;stroke-width:0.26458332"
       id="text979-3">
      <path
         d="m -67.59444,59.90381 v 1.022505 q -1.842437,0 -1.842437,2.546614 v 2.112533 q 0,1.52411 -0.588423,2.710601 -0.578776,1.196137 -2.17041,1.755621 l -0.250803,-0.781348 q 1.051443,-0.424436 1.495172,-1.398709 0.443728,-0.974273 0.443728,-2.286165 v -2.083594 q 0,-2.401921 1.60128,-3.086806 -1.60128,-0.684885 -1.60128,-3.077159 v -2.09324 q 0,-1.311892 -0.434082,-2.305458 -0.424436,-0.993566 -1.485525,-1.408355 l 0.23151,-0.771701 q 1.591634,0.559483 2.17041,1.765267 0.588423,1.196137 0.588423,2.720247 v 2.131825 q 0,2.527322 1.842437,2.527322 z"
         style="font-style:normal;font-variant:normal;font-weight:300;font-stretch:normal;font-size:19.75555611px;font-family:'Roboto Condensed';-inkscape-font-specification:'Roboto Condensed, Light';font-variant-ligatures:normal;font-variant-caps:normal;font-variant-numeric:normal;font-feature-settings:normal;text-align:start;writing-mode:lr-tb;text-anchor:start;fill:#8282dc;fill-opacity:1;stroke-width:0.26458332"
         id="path2022" />
    </g>
    <g
       aria-label="}"
       transform="rotate(-90)"
       style="font-style:normal;font-weight:normal;font-size:2.11666656px;line-height:1;font-family:sans-serif;letter-spacing:0px;word-spacing:0px;fill:#dc8282;fill-opacity:1;stroke:none;stroke-width:0.26458332"
       id="text979-3-9">
      <path
         d="m -67.59444,133.57134 v 1.02251 q -1.842437,0 -1.842437,2.54661 v 2.11254 q 0,1.52411 -0.588423,2.7106 -0.578776,1.19613 -2.17041,1.75562 l -0.250803,-0.78135 q 1.051443,-0.42444 1.495172,-1.39871 0.443728,-0.97427 0.443728,-2.28616 v -2.0836 q 0,-2.40192 1.60128,-3.0868 -1.60128,-0.68489 -1.60128,-3.07716 v -2.09324 q 0,-1.3119 -0.434082,-2.30546 -0.424436,-0.99357 -1.485525,-1.40836 l 0.23151,-0.7717 q 1.591634,0.55949 2.17041,1.76527 0.588423,1.19614 0.588423,2.72025 v 2.13182 q 0,2.52732 1.842437,2.52732 z"
         style="font-style:normal;font-variant:normal;font-weight:300;font-stretch:normal;font-size:19.75555611px;font-family:'Roboto Condensed';-inkscape-font-specification:'Roboto Condensed, Light';font-variant-ligatures:normal;font-variant-caps:normal;font-variant-numeric:normal;font-feature-settings:normal;text-align:start;writing-mode:lr-tb;text-anchor:start;fill:#dc8282;fill-opacity:1;stroke-width:0.26458332"
         id="path2019" />
    </g>
    <g
       aria-label="}"
       transform="rotate(90)"
       style="font-style:normal;font-weight:normal;font-size:2.11666656px;line-height:1;font-family:sans-serif;letter-spacing:0px;word-spacing:0px;fill:#82dc82;fill-opacity:1;stroke:none;stroke-width:0.26458332"
       id="text979-3-9-6">
      <path
         d="m 113.73117,-90.870886 v 1.022504 q -1.84244,0 -1.84244,2.546615 v 2.112533 q 0,1.52411 -0.58842,2.710601 -0.57878,1.196137 -2.17041,1.75562 l -0.25081,-0.781347 q 1.05145,-0.424436 1.49518,-1.398709 0.44372,-0.974273 0.44372,-2.286165 v -2.083594 q 0,-2.401921 1.60128,-3.086806 -1.60128,-0.684885 -1.60128,-3.077159 v -2.09324 q 0,-1.311893 -0.43408,-2.305458 -0.42443,-0.993566 -1.48552,-1.408355 l 0.23151,-0.771704 q 1.59163,0.559486 2.17041,1.765269 0.58842,1.196137 0.58842,2.720248 v 2.131825 q 0,2.527322 1.84244,2.527322 z"
         style="font-style:normal;font-variant:normal;font-weight:300;font-stretch:normal;font-size:19.75555611px;font-family:'Roboto Condensed';-inkscape-font-specification:'Roboto Condensed, Light';font-variant-ligatures:normal;font-variant-caps:normal;font-variant-numeric:normal;font-feature-settings:normal;text-align:start;writing-mode:lr-tb;text-anchor:start;fill:#82dc82;fill-opacity:1;stroke-width:0.26458332"
         id="path2016" />
    </g>
    <g
       aria-label="Nom de la fonction"
       style="font-style:normal;font-weight:normal;font-size:2.11666656px;line-height:1;font-family:sans-serif;letter-spacing:0px;word-spacing:0px;fill:#8282dc;fill-opacity:1;stroke:none;stroke-width:0.26458332"
       id="text1056">
      <path
         d="m 39.799851,59.123044 v 4.514453 h -0.573608 l -1.807642,-3.481958 v 3.481958 h -0.570508 v -4.514453 h 0.570508 l 1.816944,3.49126 v -3.49126 z"
         style="font-style:normal;font-variant:normal;font-weight:normal;font-stretch:normal;font-size:6.3499999px;font-family:'Roboto Condensed';-inkscape-font-specification:'Roboto Condensed, Normal';font-variant-ligatures:normal;font-variant-caps:normal;font-variant-numeric:normal;font-feature-settings:normal;text-align:start;writing-mode:lr-tb;text-anchor:start;fill:#8282dc;fill-opacity:1;stroke-width:0.26458332"
         id="path1985" />
      <path
         d="m 40.593601,61.80195 q 0,-0.784448 0.375171,-1.181323 0.375171,-0.399976 0.917773,-0.399976 0.548804,0 0.923975,0.399976 0.378272,0.396875 0.378272,1.181323 v 0.31936 q 0,0.784449 -0.378272,1.181324 -0.375171,0.396875 -0.917773,0.396875 -0.545703,0 -0.923975,-0.396875 -0.375171,-0.396875 -0.375171,-1.181324 z m 0.548804,0.31936 q 0,0.555005 0.21394,0.834058 0.213941,0.275952 0.536402,0.275952 0.725537,0 0.747241,-1.047998 V 61.80195 q 0,-0.548804 -0.217041,-0.827856 -0.213941,-0.282154 -0.536402,-0.282154 -0.31936,0 -0.5333,0.282154 -0.21084,0.279052 -0.21084,0.827856 z"
         style="font-style:normal;font-variant:normal;font-weight:normal;font-stretch:normal;font-size:6.3499999px;font-family:'Roboto Condensed';-inkscape-font-specification:'Roboto Condensed, Normal';font-variant-ligatures:normal;font-variant-caps:normal;font-variant-numeric:normal;font-feature-settings:normal;text-align:start;writing-mode:lr-tb;text-anchor:start;fill:#8282dc;fill-opacity:1;stroke-width:0.26458332"
         id="path1987" />
      <path
         d="m 45.027439,60.704343 q -0.412378,0 -0.58291,0.409277 v 2.523877 h -0.545704 v -3.354834 h 0.514698 l 0.0155,0.303857 q 0.300756,-0.365869 0.806152,-0.365869 0.555005,0 0.781348,0.486792 0.316259,-0.486792 0.880566,-0.486792 0.458887,0 0.703833,0.288355 0.248047,0.288354 0.248047,0.923974 v 2.204517 h -0.548804 v -2.210718 q 0,-0.421679 -0.155029,-0.570508 -0.151929,-0.151928 -0.415479,-0.151928 -0.254248,0 -0.406176,0.198437 -0.148829,0.195337 -0.176734,0.480591 v 2.254126 h -0.548803 v -2.254126 q -0.0155,-0.679028 -0.570508,-0.679028 z"
         style="font-style:normal;font-variant:normal;font-weight:normal;font-stretch:normal;font-size:6.3499999px;font-family:'Roboto Condensed';-inkscape-font-specification:'Roboto Condensed, Normal';font-variant-ligatures:normal;font-variant-caps:normal;font-variant-numeric:normal;font-feature-settings:normal;text-align:start;writing-mode:lr-tb;text-anchor:start;fill:#8282dc;fill-opacity:1;stroke-width:0.26458332"
         id="path1989" />
      <path
         d="m 51.938645,63.637497 -0.0248,-0.362769 q -0.266651,0.424781 -0.778247,0.424781 -0.496094,0 -0.809253,-0.390674 -0.310059,-0.390674 -0.310059,-1.187525 v -0.313159 q 0,-0.827856 0.310059,-1.206128 0.310058,-0.381372 0.815454,-0.381372 0.486792,0 0.750342,0.390674 v -1.736328 h 0.545703 v 4.7625 z M 50.565086,62.12131 q 0,0.561206 0.167431,0.827857 0.167432,0.26355 0.545704,0.26355 0.409277,0 0.613916,-0.415479 V 61.11362 q -0.213941,-0.409277 -0.607715,-0.409277 -0.378272,0 -0.548804,0.26665 -0.167432,0.26665 -0.170532,0.815454 z"
         style="font-style:normal;font-variant:normal;font-weight:normal;font-stretch:normal;font-size:6.3499999px;font-family:'Roboto Condensed';-inkscape-font-specification:'Roboto Condensed, Normal';font-variant-ligatures:normal;font-variant-caps:normal;font-variant-numeric:normal;font-feature-settings:normal;text-align:start;writing-mode:lr-tb;text-anchor:start;fill:#8282dc;fill-opacity:1;stroke-width:0.26458332"
         id="path1991" />
      <path
         d="m 55.572532,63.194113 q -0.136426,0.192236 -0.396875,0.350366 -0.257349,0.15503 -0.691431,0.15503 -0.601513,0 -0.95188,-0.359668 -0.350366,-0.362769 -0.353466,-1.122412 v -0.393775 q 0,-0.886767 0.384472,-1.243335 0.384473,-0.359668 0.858862,-0.359668 0.629419,0 0.902271,0.406177 0.272852,0.406177 0.272852,1.175122 v 0.31936 h -1.869654 v 0.08062 q 0,0.536401 0.201538,0.784448 0.204639,0.244946 0.586011,0.244946 0.275952,0 0.452686,-0.10542 0.179834,-0.10852 0.316259,-0.275952 z M 54.422214,60.69194 q -0.285253,0 -0.474389,0.198438 -0.189136,0.195337 -0.217041,0.762744 h 1.317749 v -0.07752 q -0.0217,-0.387573 -0.145728,-0.63562 -0.120923,-0.248047 -0.480591,-0.248047 z"
         style="font-style:normal;font-variant:normal;font-weight:normal;font-stretch:normal;font-size:6.3499999px;font-family:'Roboto Condensed';-inkscape-font-specification:'Roboto Condensed, Normal';font-variant-ligatures:normal;font-variant-caps:normal;font-variant-numeric:normal;font-feature-settings:normal;text-align:start;writing-mode:lr-tb;text-anchor:start;fill:#8282dc;fill-opacity:1;stroke-width:0.26458332"
         id="path1993" />
      <path
         d="m 58.307249,58.874997 v 4.7625 h -0.545703 v -4.7625 z"
         style="font-style:normal;font-variant:normal;font-weight:normal;font-stretch:normal;font-size:6.3499999px;font-family:'Roboto Condensed';-inkscape-font-specification:'Roboto Condensed, Normal';font-variant-ligatures:normal;font-variant-caps:normal;font-variant-numeric:normal;font-feature-settings:normal;text-align:start;writing-mode:lr-tb;text-anchor:start;fill:#8282dc;fill-opacity:1;stroke-width:0.26458332"
         id="path1995" />
      <path
         d="m 60.902439,63.637497 q -0.05271,-0.120923 -0.07441,-0.362769 -0.114722,0.170533 -0.303857,0.297657 -0.189136,0.127124 -0.437183,0.127124 -0.440283,0 -0.706934,-0.248047 -0.263549,-0.248047 -0.263549,-0.728638 0,-0.483691 0.331762,-0.799951 0.331763,-0.31936 0.992188,-0.31936 h 0.378271 v -0.359668 q 0,-0.297657 -0.136426,-0.424781 -0.133325,-0.127124 -0.403076,-0.127124 -0.263549,0 -0.412378,0.15503 -0.145727,0.155029 -0.145727,0.365869 h -0.548804 q 0,-0.359668 0.306958,-0.675928 0.306958,-0.31626 0.827857,-0.31626 0.465087,0 0.762744,0.232544 0.297656,0.232544 0.297656,0.796851 v 1.599902 q 0,0.47439 0.102319,0.73794 v 0.04961 z m -0.731738,-0.437183 q 0.232544,0 0.403076,-0.120923 0.170532,-0.120922 0.244946,-0.26975 v -0.803052 h -0.288354 q -0.393775,0 -0.629419,0.167431 -0.235645,0.167432 -0.235645,0.480591 0,0.300757 0.124024,0.42478 0.127124,0.120923 0.381372,0.120923 z"
         style="font-style:normal;font-variant:normal;font-weight:normal;font-stretch:normal;font-size:6.3499999px;font-family:'Roboto Condensed';-inkscape-font-specification:'Roboto Condensed, Normal';font-variant-ligatures:normal;font-variant-caps:normal;font-variant-numeric:normal;font-feature-settings:normal;text-align:start;writing-mode:lr-tb;text-anchor:start;fill:#8282dc;fill-opacity:1;stroke-width:0.26458332"
         id="path1997" />
      <path
         d="m 65.035521,60.722946 h -0.570508 v 2.914551 h -0.548804 v -2.914551 h -0.437182 v -0.440283 h 0.437182 v -0.378271 q 0.0062,-0.530201 0.26045,-0.812354 0.257348,-0.282153 0.700732,-0.282153 0.164331,0 0.331763,0.04961 l -0.02481,0.468189 q -0.102319,-0.02791 -0.251147,-0.02791 -0.458887,0 -0.468189,0.604615 v 0.378271 h 0.570508 z"
         style="font-style:normal;font-variant:normal;font-weight:normal;font-stretch:normal;font-size:6.3499999px;font-family:'Roboto Condensed';-inkscape-font-specification:'Roboto Condensed, Normal';font-variant-ligatures:normal;font-variant-caps:normal;font-variant-numeric:normal;font-feature-settings:normal;text-align:start;writing-mode:lr-tb;text-anchor:start;fill:#8282dc;fill-opacity:1;stroke-width:0.26458332"
         id="path1999" />
      <path
         d="m 65.56882,61.80195 q 0,-0.784448 0.375171,-1.181323 0.375171,-0.399976 0.917774,-0.399976 0.548803,0 0.923974,0.399976 0.378272,0.396875 0.378272,1.181323 v 0.31936 q 0,0.784449 -0.378272,1.181324 -0.375171,0.396875 -0.917773,0.396875 -0.545703,0 -0.923975,-0.396875 Q 65.56882,62.905759 65.56882,62.12131 Z m 0.548804,0.31936 q 0,0.555005 0.21394,0.834058 0.213941,0.275952 0.536402,0.275952 0.725537,0 0.747241,-1.047998 V 61.80195 q 0,-0.548804 -0.217041,-0.827856 -0.213941,-0.282154 -0.536401,-0.282154 -0.319361,0 -0.533301,0.282154 -0.21084,0.279052 -0.21084,0.827856 z"
         style="font-style:normal;font-variant:normal;font-weight:normal;font-stretch:normal;font-size:6.3499999px;font-family:'Roboto Condensed';-inkscape-font-specification:'Roboto Condensed, Normal';font-variant-ligatures:normal;font-variant-caps:normal;font-variant-numeric:normal;font-feature-settings:normal;text-align:start;writing-mode:lr-tb;text-anchor:start;fill:#8282dc;fill-opacity:1;stroke-width:0.26458332"
         id="path2001" />
      <path
         d="m 70.049169,60.704343 q -0.201538,0 -0.365869,0.136425 -0.16123,0.136426 -0.26355,0.356568 v 2.440161 h -0.548804 v -3.354834 h 0.517798 l 0.0155,0.356567 q 0.319361,-0.418579 0.815454,-0.418579 0.412378,0 0.657325,0.279053 0.244946,0.279053 0.244946,0.939478 v 2.198315 H 70.573168 V 61.43298 q 0,-0.393774 -0.130224,-0.561206 -0.130225,-0.167431 -0.393775,-0.167431 z"
         style="font-style:normal;font-variant:normal;font-weight:normal;font-stretch:normal;font-size:6.3499999px;font-family:'Roboto Condensed';-inkscape-font-specification:'Roboto Condensed, Normal';font-variant-ligatures:normal;font-variant-caps:normal;font-variant-numeric:normal;font-feature-settings:normal;text-align:start;writing-mode:lr-tb;text-anchor:start;fill:#8282dc;fill-opacity:1;stroke-width:0.26458332"
         id="path2003" />
      <path
         d="m 73.109445,63.23132 q 0.244946,0 0.42168,-0.151929 0.176733,-0.155029 0.198437,-0.502294 h 0.514698 q -0.0186,0.505395 -0.350367,0.815454 -0.331762,0.306958 -0.784448,0.306958 -0.648022,0 -0.958081,-0.399976 -0.310058,-0.403076 -0.31626,-1.122412 v -0.406177 q 0,-0.731738 0.310059,-1.141015 0.313159,-0.409278 0.964282,-0.409278 0.511597,0 0.812354,0.322461 0.303857,0.319361 0.322461,0.892969 h -0.514698 q -0.04341,-0.744141 -0.620117,-0.744141 -0.434082,0 -0.579809,0.294556 -0.145728,0.294556 -0.145728,0.784448 v 0.378272 q 0,0.492993 0.142627,0.787549 0.145728,0.294555 0.58291,0.294555 z"
         style="font-style:normal;font-variant:normal;font-weight:normal;font-stretch:normal;font-size:6.3499999px;font-family:'Roboto Condensed';-inkscape-font-specification:'Roboto Condensed, Normal';font-variant-ligatures:normal;font-variant-caps:normal;font-variant-numeric:normal;font-feature-settings:normal;text-align:start;writing-mode:lr-tb;text-anchor:start;fill:#8282dc;fill-opacity:1;stroke-width:0.26458332"
         id="path2005" />
      <path
         d="m 76.101511,63.637497 q -0.15813,0.06201 -0.384472,0.06201 -0.266651,0 -0.468189,-0.195337 -0.198437,-0.195337 -0.198437,-0.700733 v -2.080493 h -0.511597 v -0.440283 h 0.511597 v -0.815454 h 0.548803 v 0.815454 h 0.505396 v 0.440283 h -0.505396 v 2.083594 q 0,0.257349 0.08682,0.328662 0.08992,0.07131 0.201538,0.07131 0.117822,0 0.217041,-0.03721 z"
         style="font-style:normal;font-variant:normal;font-weight:normal;font-stretch:normal;font-size:6.3499999px;font-family:'Roboto Condensed';-inkscape-font-specification:'Roboto Condensed, Normal';font-variant-ligatures:normal;font-variant-caps:normal;font-variant-numeric:normal;font-feature-settings:normal;text-align:start;writing-mode:lr-tb;text-anchor:start;fill:#8282dc;fill-opacity:1;stroke-width:0.26458332"
         id="path2007" />
      <path
         d="m 76.771239,59.392795 q 0,-0.139527 0.07751,-0.235645 0.07751,-0.09612 0.232544,-0.09612 0.151929,0 0.232544,0.09612 0.08062,0.09612 0.08062,0.235645 0,0.133325 -0.08062,0.229443 -0.08061,0.09302 -0.232544,0.09302 -0.155029,0 -0.232544,-0.09302 -0.07751,-0.09612 -0.07751,-0.229443 z m 0.576709,0.889868 v 3.354834 h -0.545703 v -3.354834 z"
         style="font-style:normal;font-variant:normal;font-weight:normal;font-stretch:normal;font-size:6.3499999px;font-family:'Roboto Condensed';-inkscape-font-specification:'Roboto Condensed, Normal';font-variant-ligatures:normal;font-variant-caps:normal;font-variant-numeric:normal;font-feature-settings:normal;text-align:start;writing-mode:lr-tb;text-anchor:start;fill:#8282dc;fill-opacity:1;stroke-width:0.26458332"
         id="path2009" />
      <path
         d="m 78.10139,61.80195 q 0,-0.784448 0.375171,-1.181323 0.375171,-0.399976 0.917773,-0.399976 0.548804,0 0.923975,0.399976 0.378271,0.396875 0.378271,1.181323 v 0.31936 q 0,0.784449 -0.378271,1.181324 -0.375171,0.396875 -0.917773,0.396875 -0.545704,0 -0.923975,-0.396875 Q 78.10139,62.905759 78.10139,62.12131 Z m 0.548804,0.31936 q 0,0.555005 0.21394,0.834058 0.213941,0.275952 0.536402,0.275952 0.725537,0 0.747241,-1.047998 V 61.80195 q 0,-0.548804 -0.217041,-0.827856 -0.213941,-0.282154 -0.536402,-0.282154 -0.31936,0 -0.5333,0.282154 -0.21084,0.279052 -0.21084,0.827856 z"
         style="font-style:normal;font-variant:normal;font-weight:normal;font-stretch:normal;font-size:6.3499999px;font-family:'Roboto Condensed';-inkscape-font-specification:'Roboto Condensed, Normal';font-variant-ligatures:normal;font-variant-caps:normal;font-variant-numeric:normal;font-feature-settings:normal;text-align:start;writing-mode:lr-tb;text-anchor:start;fill:#8282dc;fill-opacity:1;stroke-width:0.26458332"
         id="path2011" />
      <path
         d="m 82.581735,60.704343 q -0.201538,0 -0.365869,0.136425 -0.16123,0.136426 -0.26355,0.356568 v 2.440161 h -0.548803 v -3.354834 h 0.517797 l 0.0155,0.356567 q 0.319361,-0.418579 0.815454,-0.418579 0.412378,0 0.657325,0.279053 0.244946,0.279053 0.244946,0.939478 v 2.198315 H 83.105734 V 61.43298 q 0,-0.393774 -0.130224,-0.561206 -0.130225,-0.167431 -0.393775,-0.167431 z"
         style="font-style:normal;font-variant:normal;font-weight:normal;font-stretch:normal;font-size:6.3499999px;font-family:'Roboto Condensed';-inkscape-font-specification:'Roboto Condensed, Normal';font-variant-ligatures:normal;font-variant-caps:normal;font-variant-numeric:normal;font-feature-settings:normal;text-align:start;writing-mode:lr-tb;text-anchor:start;fill:#8282dc;fill-opacity:1;stroke-width:0.26458332"
         id="path2013" />
    </g>
    <g
       aria-label="Arguments"
       style="font-style:normal;font-weight:normal;font-size:2.11666656px;line-height:1;font-family:sans-serif;letter-spacing:0px;word-spacing:0px;fill:#dc8282;fill-opacity:1;stroke:none;stroke-width:0.26458332"
       id="text1056-7">
      <path
         d="m 120.53384,62.851498 1.45417,-4.514453 h 0.4899 l 1.45417,4.514453 h -0.58291 l -0.35347,-1.181324 h -1.52549 l -0.35346,1.181324 z m 1.0852,-1.671216 h 1.22783 l -0.61391,-2.049487 z"
         style="font-style:normal;font-variant:normal;font-weight:normal;font-stretch:normal;font-size:6.3499999px;font-family:'Roboto Condensed';-inkscape-font-specification:'Roboto Condensed, Normal';font-variant-ligatures:normal;font-variant-caps:normal;font-variant-numeric:normal;font-feature-settings:normal;text-align:start;writing-mode:lr-tb;text-anchor:start;fill:#dc8282;fill-opacity:1;stroke-width:0.26458332"
         id="path1966" />
      <path
         d="m 125.6126,59.986556 q -0.42168,0 -0.58911,0.458887 v 2.406055 h -0.54881 v -3.354834 h 0.5302 l 0.0124,0.337964 q 0.22014,-0.399976 0.62321,-0.399976 0.14573,0 0.21704,0.04341 l 0.003,0.533301 q -0.12092,-0.02481 -0.24804,-0.02481 z"
         style="font-style:normal;font-variant:normal;font-weight:normal;font-stretch:normal;font-size:6.3499999px;font-family:'Roboto Condensed';-inkscape-font-specification:'Roboto Condensed, Normal';font-variant-ligatures:normal;font-variant-caps:normal;font-variant-numeric:normal;font-feature-settings:normal;text-align:start;writing-mode:lr-tb;text-anchor:start;fill:#dc8282;fill-opacity:1;stroke-width:0.26458332"
         id="path1968" />
      <path
         d="m 127.45124,64.175448 q -0.19223,0 -0.51469,-0.10542 -0.31936,-0.102319 -0.5054,-0.31936 l 0.22634,-0.381373 q 0.32867,0.334864 0.75345,0.334864 0.31936,0 0.51159,-0.179834 0.19224,-0.176734 0.19224,-0.617017 v -0.390674 q -0.26665,0.396875 -0.75964,0.396875 -0.5054,0 -0.81236,-0.390673 -0.30385,-0.390674 -0.30385,-1.187525 v -0.313159 q 0,-0.827856 0.30075,-1.206128 0.30386,-0.381372 0.82166,-0.381372 0.5147,0 0.77824,0.434082 l 0.0279,-0.37207 h 0.49299 v 3.395141 q -0.003,0.657324 -0.34106,0.970484 -0.33486,0.313159 -0.86817,0.313159 z m -0.66352,-2.840137 q 0,0.561206 0.16743,0.827857 0.16743,0.263549 0.5426,0.263549 0.41238,0 0.61702,-0.421679 v -1.674317 q -0.21394,-0.412378 -0.61082,-0.412378 -0.37827,0 -0.5457,0.266651 -0.16743,0.26665 -0.17053,0.815454 z"
         style="font-style:normal;font-variant:normal;font-weight:normal;font-stretch:normal;font-size:6.3499999px;font-family:'Roboto Condensed';-inkscape-font-specification:'Roboto Condensed, Normal';font-variant-ligatures:normal;font-variant-caps:normal;font-variant-numeric:normal;font-feature-settings:normal;text-align:start;writing-mode:lr-tb;text-anchor:start;fill:#dc8282;fill-opacity:1;stroke-width:0.26458332"
         id="path1970" />
      <path
         d="m 131.20605,62.851498 -0.009,-0.294556 q -0.27905,0.356567 -0.79995,0.356567 -0.41548,0 -0.66973,-0.291455 -0.25424,-0.291455 -0.25424,-0.961181 v -2.164209 h 0.5457 v 2.185913 q 0.003,0.443384 0.14883,0.595312 0.14883,0.148828 0.32246,0.148828 0.49609,0 0.68833,-0.449585 v -2.480468 h 0.5488 v 3.354834 z"
         style="font-style:normal;font-variant:normal;font-weight:normal;font-stretch:normal;font-size:6.3499999px;font-family:'Roboto Condensed';-inkscape-font-specification:'Roboto Condensed, Normal';font-variant-ligatures:normal;font-variant-caps:normal;font-variant-numeric:normal;font-feature-settings:normal;text-align:start;writing-mode:lr-tb;text-anchor:start;fill:#dc8282;fill-opacity:1;stroke-width:0.26458332"
         id="path1972" />
      <path
         d="m 133.68342,59.918343 q -0.41238,0 -0.58291,0.409278 v 2.523877 h -0.5457 v -3.354834 h 0.5147 l 0.0155,0.303857 q 0.30076,-0.365869 0.80615,-0.365869 0.55501,0 0.78135,0.486792 0.31626,-0.486792 0.88057,-0.486792 0.45888,0 0.70383,0.288354 0.24805,0.288355 0.24805,0.923975 v 2.204517 h -0.54881 V 60.64078 q 0,-0.42168 -0.15503,-0.570508 -0.15193,-0.151929 -0.41548,-0.151929 -0.25424,0 -0.40617,0.198438 -0.14883,0.195337 -0.17674,0.480591 v 2.254126 h -0.5488 v -2.254126 q -0.0155,-0.679029 -0.57051,-0.679029 z"
         style="font-style:normal;font-variant:normal;font-weight:normal;font-stretch:normal;font-size:6.3499999px;font-family:'Roboto Condensed';-inkscape-font-specification:'Roboto Condensed, Normal';font-variant-ligatures:normal;font-variant-caps:normal;font-variant-numeric:normal;font-feature-settings:normal;text-align:start;writing-mode:lr-tb;text-anchor:start;fill:#dc8282;fill-opacity:1;stroke-width:0.26458332"
         id="path1974" />
      <path
         d="m 139.62105,62.408114 q -0.13643,0.192236 -0.39688,0.350366 -0.25735,0.155029 -0.69143,0.155029 -0.60151,0 -0.95188,-0.359668 -0.35037,-0.362768 -0.35347,-1.122412 v -0.393774 q 0,-0.886768 0.38448,-1.243335 0.38447,-0.359668 0.85886,-0.359668 0.62942,0 0.90227,0.406177 0.27285,0.406177 0.27285,1.175122 v 0.31936 h -1.86965 v 0.08062 q 0,0.536402 0.20153,0.784449 0.20464,0.244946 0.58602,0.244946 0.27595,0 0.45268,-0.10542 0.17983,-0.108521 0.31626,-0.275952 z m -1.15032,-2.502173 q -0.28526,0 -0.47439,0.198438 -0.18914,0.195336 -0.21704,0.762744 h 1.31775 v -0.07751 q -0.0217,-0.387573 -0.14573,-0.63562 -0.12092,-0.248047 -0.48059,-0.248047 z"
         style="font-style:normal;font-variant:normal;font-weight:normal;font-stretch:normal;font-size:6.3499999px;font-family:'Roboto Condensed';-inkscape-font-specification:'Roboto Condensed, Normal';font-variant-ligatures:normal;font-variant-caps:normal;font-variant-numeric:normal;font-feature-settings:normal;text-align:start;writing-mode:lr-tb;text-anchor:start;fill:#dc8282;fill-opacity:1;stroke-width:0.26458332"
         id="path1976" />
      <path
         d="m 141.4876,59.918343 q -0.20154,0 -0.36587,0.136426 -0.16123,0.136426 -0.26355,0.356568 v 2.440161 h -0.5488 v -3.354834 h 0.51779 l 0.0155,0.356567 q 0.31936,-0.418579 0.81545,-0.418579 0.41238,0 0.65732,0.279053 0.24495,0.279052 0.24495,0.939477 v 2.198316 h -0.5488 v -2.204517 q 0,-0.393774 -0.13023,-0.561206 -0.13022,-0.167432 -0.39377,-0.167432 z"
         style="font-style:normal;font-variant:normal;font-weight:normal;font-stretch:normal;font-size:6.3499999px;font-family:'Roboto Condensed';-inkscape-font-specification:'Roboto Condensed, Normal';font-variant-ligatures:normal;font-variant-caps:normal;font-variant-numeric:normal;font-feature-settings:normal;text-align:start;writing-mode:lr-tb;text-anchor:start;fill:#dc8282;fill-opacity:1;stroke-width:0.26458332"
         id="path1978" />
      <path
         d="m 144.60679,62.851498 q -0.15813,0.06201 -0.38448,0.06201 -0.26665,0 -0.46818,-0.195337 -0.19844,-0.195336 -0.19844,-0.700732 v -2.080493 h -0.5116 v -0.440283 h 0.5116 V 58.68121 h 0.5488 v 0.815454 h 0.5054 v 0.440283 h -0.5054 v 2.083594 q 0,0.257348 0.0868,0.328662 0.0899,0.07131 0.20154,0.07131 0.11782,0 0.21704,-0.03721 z"
         style="font-style:normal;font-variant:normal;font-weight:normal;font-stretch:normal;font-size:6.3499999px;font-family:'Roboto Condensed';-inkscape-font-specification:'Roboto Condensed, Normal';font-variant-ligatures:normal;font-variant-caps:normal;font-variant-numeric:normal;font-feature-settings:normal;text-align:start;writing-mode:lr-tb;text-anchor:start;fill:#dc8282;fill-opacity:1;stroke-width:0.26458332"
         id="path1980" />
      <path
         d="m 146.89192,61.992635 q 0,-0.192236 -0.14883,-0.322461 -0.14573,-0.130224 -0.5612,-0.306958 -0.41548,-0.176733 -0.65423,-0.359668 -0.26975,-0.207739 -0.26975,-0.617016 0,-0.399976 0.29146,-0.675928 0.29145,-0.275952 0.77204,-0.275952 0.5147,0 0.79995,0.291455 0.28526,0.291455 0.28526,0.725537 h -0.54571 q 0,-0.207739 -0.13952,-0.375171 -0.13953,-0.170532 -0.39998,-0.170532 -0.27595,0 -0.39687,0.139526 -0.11783,0.139527 -0.11783,0.322461 0,0.182935 0.11783,0.285254 0.11782,0.09922 0.46819,0.254248 0.50849,0.201538 0.77824,0.418579 0.26975,0.217041 0.26975,0.623218 0,0.443384 -0.30385,0.703833 -0.30386,0.260449 -0.80306,0.260449 -0.5705,0 -0.87126,-0.325561 -0.30076,-0.325562 -0.30076,-0.74104 h 0.54881 q 0.0155,0.356567 0.21394,0.47749 0.19843,0.117822 0.40927,0.117822 0.55811,0 0.55811,-0.449585 z"
         style="font-style:normal;font-variant:normal;font-weight:normal;font-stretch:normal;font-size:6.3499999px;font-family:'Roboto Condensed';-inkscape-font-specification:'Roboto Condensed, Normal';font-variant-ligatures:normal;font-variant-caps:normal;font-variant-numeric:normal;font-feature-settings:normal;text-align:start;writing-mode:lr-tb;text-anchor:start;fill:#dc8282;fill-opacity:1;stroke-width:0.26458332"
         id="path1982" />
    </g>
    <g
       aria-label="Rsultat"
       style="font-style:normal;font-weight:normal;font-size:2.11666656px;line-height:1;font-family:sans-serif;letter-spacing:0px;word-spacing:0px;fill:#82dc82;fill-opacity:1;stroke:none;stroke-width:0.26458332"
       id="text1056-7-4">
      <path
         d="m 82.563177,122.15749 -0.803051,-1.82934 h -0.79375 v 1.82934 h -0.570508 v -4.51445 h 1.261938 q 0.672828,0 1.007691,0.34106 0.337964,0.33797 0.337964,1.0139 0,0.87436 -0.706934,1.19992 l 0.877466,1.92237 v 0.0372 z m -1.596801,-4.02456 v 1.70843 h 0.685229 q 0.390674,0 0.586011,-0.24495 0.195337,-0.24805 0.195337,-0.59841 0,-0.39068 -0.176734,-0.62632 -0.176733,-0.23875 -0.598413,-0.23875 z"
         style="font-style:normal;font-variant:normal;font-weight:normal;font-stretch:normal;font-size:6.3499999px;font-family:'Roboto Condensed';-inkscape-font-specification:'Roboto Condensed, Normal';font-variant-ligatures:normal;font-variant-caps:normal;font-variant-numeric:normal;font-feature-settings:normal;text-align:start;writing-mode:lr-tb;text-anchor:start;fill:#82dc82;fill-opacity:1;stroke-width:0.26458332"
         id="path1949" />
      <path
         d="m 85.976922,121.71411 q -0.136425,0.19224 -0.396875,0.35037 -0.257348,0.15503 -0.69143,0.15503 -0.601514,0 -0.95188,-0.35967 -0.350366,-0.36277 -0.353467,-1.12241 v -0.39378 q 0,-0.88677 0.384473,-1.24333 0.384472,-0.35967 0.858862,-0.35967 0.629419,0 0.902271,0.40617 0.272851,0.40618 0.272851,1.17513 v 0.31936 h -1.869653 v 0.0806 q 0,0.5364 0.201538,0.78445 0.204639,0.24495 0.586011,0.24495 0.275952,0 0.452685,-0.10542 0.179834,-0.10852 0.31626,-0.27596 z m -1.150317,-2.50217 q -0.285254,0 -0.47439,0.19843 -0.189135,0.19534 -0.217041,0.76275 h 1.317749 v -0.0775 q -0.0217,-0.38757 -0.145727,-0.63562 -0.120923,-0.24804 -0.480591,-0.24804 z m -0.334863,-0.90537 0.601513,-0.91158 h 0.691431 l -0.830957,0.91158 z"
         style="font-style:normal;font-variant:normal;font-weight:normal;font-stretch:normal;font-size:6.3499999px;font-family:'Roboto Condensed';-inkscape-font-specification:'Roboto Condensed, Normal';font-variant-ligatures:normal;font-variant-caps:normal;font-variant-numeric:normal;font-feature-settings:normal;text-align:start;writing-mode:lr-tb;text-anchor:start;fill:#82dc82;fill-opacity:1;stroke-width:0.26458332"
         id="path1951" />
      <path
         d="m 88.29306,121.29863 q 0,-0.19224 -0.148828,-0.32246 -0.145728,-0.13022 -0.561206,-0.30696 -0.415479,-0.17673 -0.654224,-0.35967 -0.269751,-0.20773 -0.269751,-0.61701 0,-0.39998 0.291455,-0.67593 0.291455,-0.27595 0.772046,-0.27595 0.514697,0 0.799951,0.29145 0.285254,0.29146 0.285254,0.72554 h -0.545703 q 0,-0.20774 -0.139526,-0.37517 -0.139527,-0.17053 -0.399976,-0.17053 -0.275952,0 -0.396875,0.13952 -0.117822,0.13953 -0.117822,0.32246 0,0.18294 0.117822,0.28526 0.117822,0.0992 0.468189,0.25425 0.508496,0.20153 0.778247,0.41858 0.269751,0.21704 0.269751,0.62321 0,0.44339 -0.303858,0.70384 -0.303857,0.26045 -0.803052,0.26045 -0.570507,0 -0.871264,-0.32557 -0.300757,-0.32556 -0.300757,-0.74104 h 0.548804 q 0.0155,0.35657 0.21394,0.47749 0.198438,0.11783 0.409277,0.11783 0.558106,0 0.558106,-0.44959 z"
         style="font-style:normal;font-variant:normal;font-weight:normal;font-stretch:normal;font-size:6.3499999px;font-family:'Roboto Condensed';-inkscape-font-specification:'Roboto Condensed, Normal';font-variant-ligatures:normal;font-variant-caps:normal;font-variant-numeric:normal;font-feature-settings:normal;text-align:start;writing-mode:lr-tb;text-anchor:start;fill:#82dc82;fill-opacity:1;stroke-width:0.26458332"
         id="path1953" />
      <path
         d="m 91.285126,122.15749 -0.0093,-0.29455 q -0.279053,0.35657 -0.799951,0.35657 -0.415479,0 -0.669727,-0.29146 -0.254248,-0.29145 -0.254248,-0.96118 v -2.16421 h 0.545703 v 2.18591 q 0.0031,0.44339 0.148828,0.59532 0.148828,0.14882 0.322461,0.14882 0.496094,0 0.68833,-0.44958 v -2.48047 h 0.548804 v 3.35483 z"
         style="font-style:normal;font-variant:normal;font-weight:normal;font-stretch:normal;font-size:6.3499999px;font-family:'Roboto Condensed';-inkscape-font-specification:'Roboto Condensed, Normal';font-variant-ligatures:normal;font-variant-caps:normal;font-variant-numeric:normal;font-feature-settings:normal;text-align:start;writing-mode:lr-tb;text-anchor:start;fill:#82dc82;fill-opacity:1;stroke-width:0.26458332"
         id="path1955" />
      <path
         d="m 93.219891,117.39499 v 4.7625 h -0.545703 v -4.7625 z"
         style="font-style:normal;font-variant:normal;font-weight:normal;font-stretch:normal;font-size:6.3499999px;font-family:'Roboto Condensed';-inkscape-font-specification:'Roboto Condensed, Normal';font-variant-ligatures:normal;font-variant-caps:normal;font-variant-numeric:normal;font-feature-settings:normal;text-align:start;writing-mode:lr-tb;text-anchor:start;fill:#82dc82;fill-opacity:1;stroke-width:0.26458332"
         id="path1957" />
      <path
         d="m 95.309686,122.15749 q -0.15813,0.062 -0.384473,0.062 -0.26665,0 -0.468188,-0.19534 -0.198438,-0.19534 -0.198438,-0.70073 v -2.0805 h -0.511596 v -0.44028 h 0.511596 v -0.81545 h 0.548804 v 0.81545 h 0.505396 v 0.44028 h -0.505396 v 2.0836 q 0,0.25735 0.08682,0.32866 0.08992,0.0713 0.201538,0.0713 0.117822,0 0.217041,-0.0372 z"
         style="font-style:normal;font-variant:normal;font-weight:normal;font-stretch:normal;font-size:6.3499999px;font-family:'Roboto Condensed';-inkscape-font-specification:'Roboto Condensed, Normal';font-variant-ligatures:normal;font-variant-caps:normal;font-variant-numeric:normal;font-feature-settings:normal;text-align:start;writing-mode:lr-tb;text-anchor:start;fill:#82dc82;fill-opacity:1;stroke-width:0.26458332"
         id="path1959" />
      <path
         d="m 97.694036,122.15749 q -0.05271,-0.12092 -0.07441,-0.36276 -0.114721,0.17053 -0.303857,0.29765 -0.189136,0.12713 -0.437183,0.12713 -0.440283,0 -0.706933,-0.24805 -0.26355,-0.24805 -0.26355,-0.72864 0,-0.48369 0.331763,-0.79995 0.331762,-0.31936 0.992187,-0.31936 h 0.378272 v -0.35967 q 0,-0.29765 -0.136426,-0.42478 -0.133325,-0.12712 -0.403076,-0.12712 -0.26355,0 -0.412378,0.15503 -0.145728,0.15503 -0.145728,0.36587 H 95.96391 q 0,-0.35967 0.306958,-0.67593 0.306958,-0.31626 0.827856,-0.31626 0.465088,0 0.762744,0.23254 0.297656,0.23255 0.297656,0.79685 v 1.5999 q 0,0.47439 0.10232,0.73794 v 0.0496 z m -0.731738,-0.43718 q 0.232544,0 0.403076,-0.12092 0.170533,-0.12092 0.244947,-0.26975 v -0.80305 h -0.288355 q -0.393774,0 -0.629419,0.16743 -0.235644,0.16743 -0.235644,0.48059 0,0.30075 0.124023,0.42478 0.127124,0.12092 0.381372,0.12092 z"
         style="font-style:normal;font-variant:normal;font-weight:normal;font-stretch:normal;font-size:6.3499999px;font-family:'Roboto Condensed';-inkscape-font-specification:'Roboto Condensed, Normal';font-variant-ligatures:normal;font-variant-caps:normal;font-variant-numeric:normal;font-feature-settings:normal;text-align:start;writing-mode:lr-tb;text-anchor:start;fill:#82dc82;fill-opacity:1;stroke-width:0.26458332"
         id="path1961" />
      <path
         d="m 100.23032,122.15749 q -0.15813,0.062 -0.384476,0.062 -0.266651,0 -0.468189,-0.19534 -0.198437,-0.19534 -0.198437,-0.70073 v -2.0805 h -0.511597 v -0.44028 h 0.511597 v -0.81545 h 0.548804 v 0.81545 h 0.505398 v 0.44028 h -0.505398 v 2.0836 q 0,0.25735 0.08682,0.32866 0.08992,0.0713 0.201542,0.0713 0.11782,0 0.21704,-0.0372 z"
         style="font-style:normal;font-variant:normal;font-weight:normal;font-stretch:normal;font-size:6.3499999px;font-family:'Roboto Condensed';-inkscape-font-specification:'Roboto Condensed, Normal';font-variant-ligatures:normal;font-variant-caps:normal;font-variant-numeric:normal;font-feature-settings:normal;text-align:start;writing-mode:lr-tb;text-anchor:start;fill:#82dc82;fill-opacity:1;stroke-width:0.26458332"
         id="path1963" />
    </g>
    <g
       aria-label="Corps 
de la
fonction"
       style="font-style:normal;font-weight:normal;font-size:2.11666656px;line-height:1;font-family:sans-serif;letter-spacing:0px;word-spacing:0px;fill:#9e9e9e;fill-opacity:1;stroke:none;stroke-width:0.26458332"
       id="text1056-7-4-8">
      <path
         d="m 167.72716,88.629271 h 0.57051 q -0.031,0.697632 -0.39068,1.097607 -0.35966,0.399976 -1.0635,0.399976 -0.67902,0 -1.079,-0.514697 -0.39688,-0.517798 -0.39688,-1.389063 v -0.834057 q 0,-0.868164 0.40308,-1.382862 0.40618,-0.517798 1.12551,-0.517798 0.65733,0 1.0139,0.390674 0.35656,0.390674 0.38757,1.119312 h -0.57051 q -0.0341,-0.533301 -0.22324,-0.775147 -0.18914,-0.244946 -0.60772,-0.244946 -0.49609,0 -0.72863,0.384473 -0.22945,0.384472 -0.22945,1.020092 v 0.840259 q 0,0.592212 0.20154,1.00459 0.20464,0.412378 0.70383,0.412378 0.46819,0 0.65423,-0.235645 0.18603,-0.235644 0.22944,-0.775146 z"
         style="font-style:normal;font-variant:normal;font-weight:normal;font-stretch:normal;font-size:6.3499999px;font-family:'Roboto Condensed';-inkscape-font-specification:'Roboto Condensed, Normal';font-variant-ligatures:normal;font-variant-caps:normal;font-variant-numeric:normal;font-feature-settings:normal;text-align:start;writing-mode:lr-tb;text-anchor:start;fill:#9e9e9e;fill-opacity:1;stroke-width:0.26458332"
         id="path1914" />
      <path
         d="m 168.87748,88.229295 q 0,-0.784448 0.37517,-1.181323 0.37517,-0.399975 0.91777,-0.399975 0.54881,0 0.92398,0.399975 0.37827,0.396875 0.37827,1.181323 v 0.319361 q 0,0.784448 -0.37827,1.181323 -0.37517,0.396875 -0.91778,0.396875 -0.5457,0 -0.92397,-0.396875 -0.37517,-0.396875 -0.37517,-1.181323 z m 0.5488,0.319361 q 0,0.555005 0.21394,0.834057 0.21394,0.275952 0.5364,0.275952 0.72554,0 0.74724,-1.047998 v -0.381372 q 0,-0.548803 -0.21704,-0.827856 -0.21394,-0.282153 -0.5364,-0.282153 -0.31936,0 -0.5333,0.282153 -0.21084,0.279053 -0.21084,0.827856 z"
         style="font-style:normal;font-variant:normal;font-weight:normal;font-stretch:normal;font-size:6.3499999px;font-family:'Roboto Condensed';-inkscape-font-specification:'Roboto Condensed, Normal';font-variant-ligatures:normal;font-variant-caps:normal;font-variant-numeric:normal;font-feature-settings:normal;text-align:start;writing-mode:lr-tb;text-anchor:start;fill:#9e9e9e;fill-opacity:1;stroke-width:0.26458332"
         id="path1916" />
      <path
         d="m 173.31752,87.199901 q -0.42168,0 -0.58911,0.458887 v 2.406054 h -0.54881 v -3.354834 h 0.5302 l 0.0124,0.337964 q 0.22015,-0.399975 0.62322,-0.399975 0.14573,0 0.21704,0.04341 l 0.003,0.533301 q -0.12092,-0.02481 -0.24804,-0.02481 z"
         style="font-style:normal;font-variant:normal;font-weight:normal;font-stretch:normal;font-size:6.3499999px;font-family:'Roboto Condensed';-inkscape-font-specification:'Roboto Condensed, Normal';font-variant-ligatures:normal;font-variant-caps:normal;font-variant-numeric:normal;font-feature-settings:normal;text-align:start;writing-mode:lr-tb;text-anchor:start;fill:#9e9e9e;fill-opacity:1;stroke-width:0.26458332"
         id="path1918" />
      <path
         d="m 175.43832,90.126854 q -0.5023,0 -0.77515,-0.384473 v 1.612305 h -0.5488 v -4.644678 h 0.49919 l 0.0279,0.365869 q 0.27285,-0.42788 0.79065,-0.42788 0.5271,0 0.81235,0.368969 0.28525,0.365869 0.29456,1.165821 v 0.365869 q 0,0.79685 -0.28836,1.187524 -0.28525,0.390674 -0.81235,0.390674 z m -0.17674,-2.995166 q -0.38757,0 -0.59841,0.393774 v 1.748731 q 0.20774,0.384472 0.60462,0.384472 0.70383,0 0.72243,-1.054199 v -0.368969 q 0,-1.103809 -0.72864,-1.103809 z"
         style="font-style:normal;font-variant:normal;font-weight:normal;font-stretch:normal;font-size:6.3499999px;font-family:'Roboto Condensed';-inkscape-font-specification:'Roboto Condensed, Normal';font-variant-ligatures:normal;font-variant-caps:normal;font-variant-numeric:normal;font-feature-settings:normal;text-align:start;writing-mode:lr-tb;text-anchor:start;fill:#9e9e9e;fill-opacity:1;stroke-width:0.26458332"
         id="path1920" />
      <path
         d="m 178.87377,89.20598 q 0,-0.192236 -0.14883,-0.322461 -0.14573,-0.130225 -0.56121,-0.306958 -0.41548,-0.176733 -0.65422,-0.359668 -0.26975,-0.207739 -0.26975,-0.617017 0,-0.399975 0.29145,-0.675927 0.29146,-0.275952 0.77205,-0.275952 0.5147,0 0.79995,0.291455 0.28525,0.291455 0.28525,0.725537 h -0.5457 q 0,-0.20774 -0.13952,-0.375171 -0.13953,-0.170532 -0.39998,-0.170532 -0.27595,0 -0.39688,0.139526 -0.11782,0.139526 -0.11782,0.322461 0,0.182934 0.11782,0.285254 0.11783,0.09922 0.46819,0.254248 0.5085,0.201538 0.77825,0.418579 0.26975,0.217041 0.26975,0.623218 0,0.443384 -0.30386,0.703833 -0.30385,0.260449 -0.80305,0.260449 -0.57051,0 -0.87126,-0.325562 -0.30076,-0.325561 -0.30076,-0.74104 h 0.5488 q 0.0155,0.356568 0.21394,0.477491 0.19844,0.117822 0.40928,0.117822 0.55811,0 0.55811,-0.449585 z"
         style="font-style:normal;font-variant:normal;font-weight:normal;font-stretch:normal;font-size:6.3499999px;font-family:'Roboto Condensed';-inkscape-font-specification:'Roboto Condensed, Normal';font-variant-ligatures:normal;font-variant-caps:normal;font-variant-numeric:normal;font-feature-settings:normal;text-align:start;writing-mode:lr-tb;text-anchor:start;fill:#9e9e9e;fill-opacity:1;stroke-width:0.26458332"
         id="path1922" />
      <path
         d="m 167.19696,96.414842 -0.0248,-0.362768 q -0.26665,0.42478 -0.77825,0.42478 -0.4961,0 -0.80925,-0.390674 -0.31006,-0.390674 -0.31006,-1.187524 v -0.31316 q 0,-0.827856 0.31006,-1.206127 0.31005,-0.381373 0.81545,-0.381373 0.48679,0 0.75034,0.390674 v -1.736328 h 0.5457 v 4.7625 z m -1.37356,-1.516186 q 0,0.561206 0.16743,0.827856 0.16743,0.26355 0.54571,0.26355 0.40927,0 0.61391,-0.415479 v -1.683618 q -0.21394,-0.409277 -0.60771,-0.409277 -0.37827,0 -0.54881,0.26665 -0.16743,0.266651 -0.17053,0.815454 z"
         style="font-style:normal;font-variant:normal;font-weight:normal;font-stretch:normal;font-size:6.3499999px;font-family:'Roboto Condensed';-inkscape-font-specification:'Roboto Condensed, Normal';font-variant-ligatures:normal;font-variant-caps:normal;font-variant-numeric:normal;font-feature-settings:normal;text-align:start;writing-mode:lr-tb;text-anchor:start;fill:#9e9e9e;fill-opacity:1;stroke-width:0.26458332"
         id="path1924" />
      <path
         d="m 170.83085,95.971458 q -0.13643,0.192237 -0.39688,0.350367 -0.25735,0.155029 -0.69143,0.155029 -0.60151,0 -0.95188,-0.359668 -0.35036,-0.362769 -0.35347,-1.122412 v -0.393775 q 0,-0.886767 0.38448,-1.243335 0.38447,-0.359668 0.85886,-0.359668 0.62942,0 0.90227,0.406177 0.27285,0.406177 0.27285,1.175122 v 0.319361 H 168.986 v 0.08061 q 0,0.536401 0.20154,0.784448 0.20464,0.244946 0.58601,0.244946 0.27595,0 0.45268,-0.10542 0.17984,-0.10852 0.31626,-0.275952 z m -1.15032,-2.502172 q -0.28525,0 -0.47439,0.198437 -0.18914,0.195337 -0.21704,0.762744 h 1.31775 v -0.07751 q -0.0217,-0.387574 -0.14573,-0.635621 -0.12092,-0.248046 -0.48059,-0.248046 z"
         style="font-style:normal;font-variant:normal;font-weight:normal;font-stretch:normal;font-size:6.3499999px;font-family:'Roboto Condensed';-inkscape-font-specification:'Roboto Condensed, Normal';font-variant-ligatures:normal;font-variant-caps:normal;font-variant-numeric:normal;font-feature-settings:normal;text-align:start;writing-mode:lr-tb;text-anchor:start;fill:#9e9e9e;fill-opacity:1;stroke-width:0.26458332"
         id="path1926" />
      <path
         d="m 173.56556,91.652342 v 4.7625 h -0.5457 v -4.7625 z"
         style="font-style:normal;font-variant:normal;font-weight:normal;font-stretch:normal;font-size:6.3499999px;font-family:'Roboto Condensed';-inkscape-font-specification:'Roboto Condensed, Normal';font-variant-ligatures:normal;font-variant-caps:normal;font-variant-numeric:normal;font-feature-settings:normal;text-align:start;writing-mode:lr-tb;text-anchor:start;fill:#9e9e9e;fill-opacity:1;stroke-width:0.26458332"
         id="path1928" />
      <path
         d="m 176.16075,96.414842 q -0.0527,-0.120923 -0.0744,-0.362768 -0.11472,0.170532 -0.30386,0.297656 -0.18913,0.127124 -0.43718,0.127124 -0.44028,0 -0.70693,-0.248047 -0.26355,-0.248047 -0.26355,-0.728638 0,-0.483691 0.33176,-0.799951 0.33176,-0.31936 0.99219,-0.31936 h 0.37827 V 94.02119 q 0,-0.297656 -0.13643,-0.42478 -0.13332,-0.127124 -0.40307,-0.127124 -0.26355,0 -0.41238,0.155029 -0.14573,0.155029 -0.14573,0.365869 h -0.5488 q 0,-0.359668 0.30696,-0.675928 0.30695,-0.31626 0.82785,-0.31626 0.46509,0 0.76275,0.232544 0.29765,0.232544 0.29765,0.796851 v 1.599902 q 0,0.47439 0.10232,0.73794 v 0.04961 z m -0.73173,-0.437182 q 0.23254,0 0.40307,-0.120923 0.17053,-0.120923 0.24495,-0.269751 v -0.803052 h -0.28836 q -0.39377,0 -0.62942,0.167432 -0.23564,0.167431 -0.23564,0.48059 0,0.300757 0.12402,0.424781 0.12713,0.120923 0.38138,0.120923 z"
         style="font-style:normal;font-variant:normal;font-weight:normal;font-stretch:normal;font-size:6.3499999px;font-family:'Roboto Condensed';-inkscape-font-specification:'Roboto Condensed, Normal';font-variant-ligatures:normal;font-variant-caps:normal;font-variant-numeric:normal;font-feature-settings:normal;text-align:start;writing-mode:lr-tb;text-anchor:start;fill:#9e9e9e;fill-opacity:1;stroke-width:0.26458332"
         id="path1930" />
      <path
         d="m 166.75358,99.850291 h -0.57051 v 2.914549 h -0.5488 v -2.914549 h -0.43719 v -0.440283 h 0.43719 v -0.378271 q 0.006,-0.530201 0.26044,-0.812354 0.25735,-0.282153 0.70074,-0.282153 0.16433,0 0.33176,0.04961 l -0.0248,0.468189 q -0.10231,-0.02791 -0.25114,-0.02791 -0.45889,0 -0.46819,0.604615 v 0.378271 h 0.57051 z"
         style="font-style:normal;font-variant:normal;font-weight:normal;font-stretch:normal;font-size:6.3499999px;font-family:'Roboto Condensed';-inkscape-font-specification:'Roboto Condensed, Normal';font-variant-ligatures:normal;font-variant-caps:normal;font-variant-numeric:normal;font-feature-settings:normal;text-align:start;writing-mode:lr-tb;text-anchor:start;fill:#9e9e9e;fill-opacity:1;stroke-width:0.26458332"
         id="path1932" />
      <path
         d="m 167.28688,100.9293 q 0,-0.78445 0.37517,-1.181328 0.37517,-0.399976 0.91777,-0.399976 0.54881,0 0.92398,0.399976 0.37827,0.396878 0.37827,1.181328 v 0.31936 q 0,0.78444 -0.37827,1.18132 -0.37517,0.39687 -0.91778,0.39687 -0.5457,0 -0.92397,-0.39687 -0.37517,-0.39688 -0.37517,-1.18132 z m 0.5488,0.31936 q 0,0.555 0.21394,0.83405 0.21394,0.27596 0.5364,0.27596 0.72554,0 0.74724,-1.048 v -0.38137 q 0,-0.54881 -0.21704,-0.82786 -0.21394,-0.282155 -0.5364,-0.282155 -0.31936,0 -0.5333,0.282155 -0.21084,0.27905 -0.21084,0.82786 z"
         style="font-style:normal;font-variant:normal;font-weight:normal;font-stretch:normal;font-size:6.3499999px;font-family:'Roboto Condensed';-inkscape-font-specification:'Roboto Condensed, Normal';font-variant-ligatures:normal;font-variant-caps:normal;font-variant-numeric:normal;font-feature-settings:normal;text-align:start;writing-mode:lr-tb;text-anchor:start;fill:#9e9e9e;fill-opacity:1;stroke-width:0.26458332"
         id="path1934" />
      <path
         d="m 171.76722,99.831688 q -0.20153,0 -0.36587,0.136426 -0.16123,0.136426 -0.26355,0.356566 v 2.44016 h -0.5488 v -3.354832 h 0.5178 l 0.0155,0.356567 q 0.31936,-0.418579 0.81546,-0.418579 0.41237,0 0.65732,0.279053 0.24495,0.279053 0.24495,0.939481 v 2.19831 h -0.54881 v -2.20451 q 0,-0.39378 -0.13022,-0.561211 -0.13023,-0.167431 -0.39378,-0.167431 z"
         style="font-style:normal;font-variant:normal;font-weight:normal;font-stretch:normal;font-size:6.3499999px;font-family:'Roboto Condensed';-inkscape-font-specification:'Roboto Condensed, Normal';font-variant-ligatures:normal;font-variant-caps:normal;font-variant-numeric:normal;font-feature-settings:normal;text-align:start;writing-mode:lr-tb;text-anchor:start;fill:#9e9e9e;fill-opacity:1;stroke-width:0.26458332"
         id="path1936" />
      <path
         d="m 174.8275,102.35867 q 0.24495,0 0.42168,-0.15193 0.17673,-0.15503 0.19844,-0.5023 h 0.5147 q -0.0186,0.5054 -0.35037,0.81546 -0.33176,0.30695 -0.78445,0.30695 -0.64802,0 -0.95808,-0.39997 -0.31006,-0.40308 -0.31626,-1.12241 v -0.40618 q 0,-0.73174 0.31006,-1.141016 0.31316,-0.409278 0.96428,-0.409278 0.5116,0 0.81236,0.322461 0.30385,0.319361 0.32246,0.892973 h -0.5147 q -0.0434,-0.744145 -0.62012,-0.744145 -0.43408,0 -0.57981,0.294555 -0.14573,0.29456 -0.14573,0.78445 v 0.37827 q 0,0.49299 0.14263,0.78755 0.14573,0.29456 0.58291,0.29456 z"
         style="font-style:normal;font-variant:normal;font-weight:normal;font-stretch:normal;font-size:6.3499999px;font-family:'Roboto Condensed';-inkscape-font-specification:'Roboto Condensed, Normal';font-variant-ligatures:normal;font-variant-caps:normal;font-variant-numeric:normal;font-feature-settings:normal;text-align:start;writing-mode:lr-tb;text-anchor:start;fill:#9e9e9e;fill-opacity:1;stroke-width:0.26458332"
         id="path1938" />
      <path
         d="m 177.81957,102.76484 q -0.15813,0.062 -0.38448,0.062 -0.26665,0 -0.46818,-0.19533 -0.19844,-0.19534 -0.19844,-0.70074 v -2.080489 h -0.5116 v -0.440283 h 0.5116 v -0.815454 h 0.5488 v 0.815454 h 0.5054 v 0.440283 h -0.5054 v 2.083599 q 0,0.25734 0.0868,0.32866 0.0899,0.0713 0.20154,0.0713 0.11782,0 0.21704,-0.0372 z"
         style="font-style:normal;font-variant:normal;font-weight:normal;font-stretch:normal;font-size:6.3499999px;font-family:'Roboto Condensed';-inkscape-font-specification:'Roboto Condensed, Normal';font-variant-ligatures:normal;font-variant-caps:normal;font-variant-numeric:normal;font-feature-settings:normal;text-align:start;writing-mode:lr-tb;text-anchor:start;fill:#9e9e9e;fill-opacity:1;stroke-width:0.26458332"
         id="path1940" />
      <path
         d="m 178.48929,98.52014 q 0,-0.139526 0.0775,-0.235645 0.0775,-0.09612 0.23254,-0.09612 0.15193,0 0.23255,0.09612 0.0806,0.09612 0.0806,0.235645 0,0.133325 -0.0806,0.229443 -0.0806,0.09302 -0.23255,0.09302 -0.15503,0 -0.23254,-0.09302 -0.0775,-0.09612 -0.0775,-0.229443 z m 0.57671,0.889868 v 3.354832 h -0.5457 v -3.354832 z"
         style="font-style:normal;font-variant:normal;font-weight:normal;font-stretch:normal;font-size:6.3499999px;font-family:'Roboto Condensed';-inkscape-font-specification:'Roboto Condensed, Normal';font-variant-ligatures:normal;font-variant-caps:normal;font-variant-numeric:normal;font-feature-settings:normal;text-align:start;writing-mode:lr-tb;text-anchor:start;fill:#9e9e9e;fill-opacity:1;stroke-width:0.26458332"
         id="path1942" />
      <path
         d="m 179.81945,100.9293 q 0,-0.78445 0.37517,-1.181328 0.37517,-0.399976 0.91777,-0.399976 0.5488,0 0.92397,0.399976 0.37828,0.396878 0.37828,1.181328 v 0.31936 q 0,0.78444 -0.37828,1.18132 -0.37517,0.39687 -0.91777,0.39687 -0.5457,0 -0.92397,-0.39687 -0.37517,-0.39688 -0.37517,-1.18132 z m 0.5488,0.31936 q 0,0.555 0.21394,0.83405 0.21394,0.27596 0.5364,0.27596 0.72554,0 0.74724,-1.048 v -0.38137 q 0,-0.54881 -0.21704,-0.82786 -0.21394,-0.282155 -0.5364,-0.282155 -0.31936,0 -0.5333,0.282155 -0.21084,0.27905 -0.21084,0.82786 z"
         style="font-style:normal;font-variant:normal;font-weight:normal;font-stretch:normal;font-size:6.3499999px;font-family:'Roboto Condensed';-inkscape-font-specification:'Roboto Condensed, Normal';font-variant-ligatures:normal;font-variant-caps:normal;font-variant-numeric:normal;font-feature-settings:normal;text-align:start;writing-mode:lr-tb;text-anchor:start;fill:#9e9e9e;fill-opacity:1;stroke-width:0.26458332"
         id="path1944" />
      <path
         d="m 184.29979,99.831688 q -0.20154,0 -0.36587,0.136426 -0.16123,0.136426 -0.26355,0.356566 v 2.44016 h -0.5488 v -3.354832 h 0.5178 l 0.0155,0.356567 q 0.31936,-0.418579 0.81546,-0.418579 0.41237,0 0.65732,0.279053 0.24495,0.279053 0.24495,0.939481 v 2.19831 h -0.54881 v -2.20451 q 0,-0.39378 -0.13022,-0.561211 -0.13023,-0.167431 -0.39378,-0.167431 z"
         style="font-style:normal;font-variant:normal;font-weight:normal;font-stretch:normal;font-size:6.3499999px;font-family:'Roboto Condensed';-inkscape-font-specification:'Roboto Condensed, Normal';font-variant-ligatures:normal;font-variant-caps:normal;font-variant-numeric:normal;font-feature-settings:normal;text-align:start;writing-mode:lr-tb;text-anchor:start;fill:#9e9e9e;fill-opacity:1;stroke-width:0.26458332"
         id="path1946" />
    </g>
  </g>
</svg>
