<?xml version="1.0" encoding="UTF-8" standalone="no"?>
<!-- Created with Inkscape (http://www.inkscape.org/) -->

<svg
   xmlns:dc="http://purl.org/dc/elements/1.1/"
   xmlns:cc="http://creativecommons.org/ns#"
   xmlns:rdf="http://www.w3.org/1999/02/22-rdf-syntax-ns#"
   xmlns:svg="http://www.w3.org/2000/svg"
   xmlns="http://www.w3.org/2000/svg"
   xmlns:sodipodi="http://sodipodi.sourceforge.net/DTD/sodipodi-0.dtd"
   xmlns:inkscape="http://www.inkscape.org/namespaces/inkscape"
   width="168.5121mm"
   height="73.882462mm"
   viewBox="0 0 168.5121 73.882462"
   version="1.1"
   id="svg8"
   inkscape:version="0.92.5 (2060ec1f9f, 2020-04-08)"
   sodipodi:docname="structure_if.svg">
  <defs
     id="defs2" />
  <sodipodi:namedview
     id="base"
     pagecolor="#ffffff"
     bordercolor="#666666"
     borderopacity="1.0"
     inkscape:pageopacity="0.0"
     inkscape:pageshadow="2"
     inkscape:zoom="1.4"
     inkscape:cx="221.54356"
     inkscape:cy="95.474723"
     inkscape:document-units="mm"
     inkscape:current-layer="layer1"
     showgrid="false"
     inkscape:measure-start="0,0"
     inkscape:measure-end="0,0"
     inkscape:window-width="1890"
     inkscape:window-height="1200"
     inkscape:window-x="31"
     inkscape:window-y="0"
     inkscape:window-maximized="1"
     fit-margin-top="5"
     fit-margin-left="10"
     fit-margin-right="10"
     fit-margin-bottom="5" />
  <metadata
     id="metadata5">
    <rdf:RDF>
      <cc:Work
         rdf:about="">
        <dc:format>image/svg+xml</dc:format>
        <dc:type
           rdf:resource="http://purl.org/dc/dcmitype/StillImage" />
        <dc:title />
      </cc:Work>
    </rdf:RDF>
  </metadata>
  <g
     inkscape:label="Calque 1"
     inkscape:groupmode="layer"
     id="layer1"
     transform="translate(-26.848093,-53.337045)">
    <path
       style="opacity:1;vector-effect:none;fill:#f3f3f3;fill-opacity:1;fill-rule:evenodd;stroke:none;stroke-width:1.92703307;stroke-linecap:butt;stroke-linejoin:miter;stroke-miterlimit:4;stroke-dasharray:none;stroke-dashoffset:0;stroke-opacity:1;paint-order:stroke markers fill"
       d="M 41.388406,76.602081 H 152.3244 c 1e-5,0 1e-5,6e-6 1e-5,1.3e-5 v 34.584796 c 0,10e-6 0,10e-6 -1e-5,10e-6 H 41.388406 c -7e-6,0 -1.3e-5,0 -1.3e-5,-10e-6 V 76.602094 c 0,-7e-6 6e-6,-1.3e-5 1.3e-5,-1.3e-5 z"
       id="rect1116" />
    <path
       inkscape:connector-curvature="0"
       id="path4827"
       style="font-style:normal;font-variant:normal;font-weight:500;font-stretch:normal;font-size:7.05555534px;line-height:1.39999998;font-family:'FiraCode Nerd Font Mono';-inkscape-font-specification:'FiraCode Nerd Font Mono, Medium';font-variant-ligatures:normal;font-variant-caps:normal;font-variant-numeric:normal;font-feature-settings:normal;text-align:start;letter-spacing:0px;word-spacing:0px;writing-mode:lr-tb;text-anchor:start;fill:#000000;fill-opacity:1;stroke:none;stroke-width:0.26458332"
       d="m 47.068601,79.86609 c -0.311168,0 -0.528262,0.220712 -0.528262,0.506553 0,0.293077 0.217094,0.513789 0.528262,0.513789 0.318405,0 0.531881,-0.220712 0.531881,-0.513789 0,-0.285841 -0.213476,-0.506553 -0.531881,-0.506553 z m 0.564445,1.870627 h -1.917664 v 0.59339 h 1.107179 v 2.634074 H 45.6792 v 0.59339 h 2.992279 v -0.59339 h -1.038433 z" />
    <path
       inkscape:connector-curvature="0"
       id="path4829"
       style="font-style:normal;font-variant:normal;font-weight:500;font-stretch:normal;font-size:7.05555534px;line-height:1.39999998;font-family:'FiraCode Nerd Font Mono';-inkscape-font-specification:'FiraCode Nerd Font Mono, Medium';font-variant-ligatures:normal;font-variant-caps:normal;font-variant-numeric:normal;font-feature-settings:normal;text-align:start;letter-spacing:0px;word-spacing:0px;writing-mode:lr-tb;text-anchor:start;fill:#000000;fill-opacity:1;stroke:none;stroke-width:0.26458332"
       d="m 52.210101,80.11213 c -0.886467,0 -1.465385,0.49208 -1.465385,1.215726 v 0.683847 H 49.87634 v 0.597008 h 0.868376 v 2.94886 h 0.806866 v -2.94886 h 1.190399 l 0.08684,-0.597008 h -1.277237 v -0.67661 c 0,-0.40886 0.238804,-0.59339 0.73812,-0.59339 0.28584,0 0.568063,0.04704 0.821339,0.151965 l 0.238803,-0.560826 C 53.035058,80.195349 52.676853,80.11213 52.210101,80.11213 Z" />
    <path
       inkscape:connector-curvature="0"
       id="path4831"
       style="font-style:normal;font-variant:normal;font-weight:normal;font-stretch:normal;font-size:7.05555534px;line-height:1;font-family:'FiraCode Nerd Font Mono';-inkscape-font-specification:'FiraCode Nerd Font Mono, Normal';font-variant-ligatures:normal;font-variant-caps:normal;font-variant-numeric:normal;font-feature-settings:normal;text-align:start;letter-spacing:0px;word-spacing:0px;writing-mode:lr-tb;text-anchor:start;fill:#37abc8;fill-opacity:1;stroke:none;stroke-width:0.26458332"
       d="m 59.464639,83.024808 c 0,-1.51604 0.506552,-2.286724 1.548604,-3.212991 l -0.318405,-0.332878 c -1.175926,0.958832 -1.867008,1.895954 -1.867008,3.545869 0,1.649914 0.691082,2.587037 1.867008,3.545869 l 0.318405,-0.332878 c -1.034815,-0.915413 -1.548604,-1.704188 -1.548604,-3.212991 z" />
    <path
       inkscape:connector-curvature="0"
       id="path4833"
       style="font-style:normal;font-variant:normal;font-weight:normal;font-stretch:normal;font-size:7.05555534px;line-height:1;font-family:'FiraCode Nerd Font Mono';-inkscape-font-specification:'FiraCode Nerd Font Mono, Normal';font-variant-ligatures:normal;font-variant-caps:normal;font-variant-numeric:normal;font-feature-settings:normal;text-align:start;letter-spacing:0px;word-spacing:0px;writing-mode:lr-tb;text-anchor:start;fill:#37abc8;fill-opacity:1;stroke:none;stroke-width:0.26458332"
       d="m 63.365084,85.557571 1.056524,-1.635441 1.042051,1.635441 h 0.745356 l -1.403875,-2.037065 1.2302,-1.772934 h -0.694701 l -0.893704,1.418347 -0.882849,-1.418347 h -0.720028 l 1.233818,1.798262 -1.407493,2.011737 z" />
    <path
       inkscape:connector-curvature="0"
       id="path4835"
       style="font-style:normal;font-variant:normal;font-weight:normal;font-stretch:normal;font-size:7.05555534px;line-height:1;font-family:'FiraCode Nerd Font Mono';-inkscape-font-specification:'FiraCode Nerd Font Mono, Normal';font-variant-ligatures:normal;font-variant-caps:normal;font-variant-numeric:normal;font-feature-settings:normal;text-align:start;letter-spacing:0px;word-spacing:0px;writing-mode:lr-tb;text-anchor:start;fill:#37abc8;fill-opacity:1;stroke:none;stroke-width:0.26458332"
       d="m 71.882385,81.25911 -0.293077,0.459516 2.554473,1.573931 -2.554473,1.57755 0.32926,0.448661 2.746239,-1.718661 v -0.622336 z" />
    <path
       inkscape:connector-curvature="0"
       id="path4837"
       style="font-style:normal;font-variant:normal;font-weight:normal;font-stretch:normal;font-size:7.05555534px;line-height:1;font-family:'FiraCode Nerd Font Mono';-inkscape-font-specification:'FiraCode Nerd Font Mono, Normal';font-variant-ligatures:normal;font-variant-caps:normal;font-variant-numeric:normal;font-feature-settings:normal;text-align:start;letter-spacing:0px;word-spacing:0px;writing-mode:lr-tb;text-anchor:start;fill:#37abc8;fill-opacity:1;stroke:none;stroke-width:0.26458332"
       d="m 81.807178,80.495663 c -1.070997,0 -1.631823,0.919031 -1.631823,2.568946 0,1.65715 0.560826,2.576182 1.631823,2.576182 1.070997,0 1.631824,-0.919032 1.631824,-2.576182 0,-1.649915 -0.560827,-2.568946 -1.631824,-2.568946 z m 0,0.488461 c 0.285841,0 0.506553,0.09769 0.662137,0.322023 l -1.523276,3.061026 C 80.859201,84.04515 80.8194,83.618198 80.8194,83.064609 c 0,-1.47624 0.376297,-2.080485 0.987778,-2.080485 z m 0,4.164587 c -0.282222,0 -0.495698,-0.09769 -0.6549,-0.318405 l 1.51604,-3.075498 c 0.09046,0.322023 0.130256,0.752593 0.130256,1.309801 0,1.476239 -0.372678,2.084102 -0.991396,2.084102 z" />
    <path
       inkscape:connector-curvature="0"
       id="path4839"
       style="font-style:normal;font-variant:normal;font-weight:normal;font-stretch:normal;font-size:7.05555534px;line-height:1;font-family:'FiraCode Nerd Font Mono';-inkscape-font-specification:'FiraCode Nerd Font Mono, Normal';font-variant-ligatures:normal;font-variant-caps:normal;font-variant-numeric:normal;font-feature-settings:normal;text-align:start;letter-spacing:0px;word-spacing:0px;writing-mode:lr-tb;text-anchor:start;fill:#37abc8;fill-opacity:1;stroke:none;stroke-width:0.26458332"
       d="m 86.782238,83.024808 c 0,1.508803 -0.513789,2.297578 -1.548604,3.212991 l 0.318405,0.332878 c 1.175926,-0.958832 1.867009,-1.895955 1.867009,-3.545869 0,-1.649915 -0.691083,-2.587037 -1.867009,-3.545869 l -0.318405,0.332878 c 1.042052,0.926267 1.548604,1.696951 1.548604,3.212991 z" />
    <path
       inkscape:connector-curvature="0"
       id="path4841"
       style="font-style:normal;font-variant:normal;font-weight:300;font-stretch:normal;font-size:7.05555534px;line-height:1.39999998;font-family:'FiraCode Nerd Font Mono';-inkscape-font-specification:'FiraCode Nerd Font Mono, Light';font-variant-ligatures:normal;font-variant-caps:normal;font-variant-numeric:normal;font-feature-settings:normal;text-align:start;letter-spacing:0px;word-spacing:0px;writing-mode:lr-tb;text-anchor:start;fill:#000000;fill-opacity:1;stroke:none;stroke-width:0.26458332"
       d="m 95.896547,79.522358 c -0.658519,0 -1.483476,0.206239 -1.39302,1.063761 l 0.159202,1.487094 c 0.05066,0.477606 -0.04704,0.774302 -1.12527,0.774302 v 0.354586 c 1.074615,0 1.175926,0.30755 1.12527,0.781539 l -0.159202,1.476239 c -0.09407,0.864758 0.734501,1.067379 1.39302,1.067379 v -0.383533 c -0.560826,0 -1.027578,-0.137493 -0.980541,-0.611481 l 0.16282,-1.610114 c 0.05789,-0.586154 -0.115783,-0.814103 -0.542735,-0.897322 0.423333,-0.08684 0.597009,-0.350969 0.542735,-0.897322 l -0.16282,-1.610114 c -0.04704,-0.463134 0.423333,-0.611481 0.980541,-0.611481 z" />
    <path
       inkscape:connector-curvature="0"
       id="path4843"
       style="font-style:normal;font-variant:normal;font-weight:300;font-stretch:normal;font-size:7.05555534px;line-height:1;font-family:'FiraCode Nerd Font Mono';-inkscape-font-specification:'FiraCode Nerd Font Mono, Light';font-variant-ligatures:normal;font-variant-caps:normal;font-variant-numeric:normal;font-feature-settings:normal;text-align:start;letter-spacing:0px;word-spacing:0px;writing-mode:lr-tb;text-anchor:start;fill:#008000;fill-opacity:1;stroke:none;stroke-width:0.26458332"
       d="m 56.790774,91.567457 c -0.405242,0 -0.636809,0.209858 -0.835812,0.517407 -0.130256,-0.416096 -0.434188,-0.517407 -0.723647,-0.517407 -0.390769,0 -0.636809,0.24604 -0.835812,0.528262 l -0.02533,-0.459515 h -0.36906 v 3.799145 h 0.434188 v -2.995898 c 0.22433,-0.365441 0.473989,-0.517407 0.745356,-0.517407 0.30755,0 0.322023,0.227949 0.322023,0.767065 v 2.74624 h 0.499316 v -2.995898 c 0.224331,-0.365441 0.484843,-0.517407 0.745356,-0.517407 0.30755,0 0.322023,0.227949 0.322023,0.767065 v 2.74624 h 0.441424 v -2.833077 c 0,-0.904558 -0.412478,-1.034815 -0.720028,-1.034815 z" />
    <path
       inkscape:connector-curvature="0"
       id="path4845"
       style="font-style:normal;font-variant:normal;font-weight:300;font-stretch:normal;font-size:7.05555534px;line-height:1;font-family:'FiraCode Nerd Font Mono';-inkscape-font-specification:'FiraCode Nerd Font Mono, Light';font-variant-ligatures:normal;font-variant-caps:normal;font-variant-numeric:normal;font-feature-settings:normal;text-align:start;letter-spacing:0px;word-spacing:0px;writing-mode:lr-tb;text-anchor:start;fill:#008000;fill-opacity:1;stroke:none;stroke-width:0.26458332"
       d="m 59.044924,93.716688 h 2.583418 c 0.0036,-0.07598 0.01085,-0.180912 0.01085,-0.311168 0,-1.132507 -0.549971,-1.838063 -1.472621,-1.838063 -0.955214,0 -1.602877,0.814103 -1.602877,1.971937 0,1.183163 0.618717,1.968319 1.671623,1.968319 0.419715,0 0.890086,-0.155584 1.241054,-0.426951 l -0.235185,-0.336496 c -0.343732,0.238804 -0.625954,0.350969 -1.02396,0.350969 -0.622336,0 -1.154216,-0.423334 -1.172307,-1.378547 z m 1.132507,-1.729516 c 0.597008,0 1.016723,0.43057 1.034814,1.324274 H 59.05216 c 0.05065,-0.897322 0.510171,-1.324274 1.125271,-1.324274 z" />
    <path
       inkscape:connector-curvature="0"
       id="path4847"
       style="font-style:normal;font-variant:normal;font-weight:300;font-stretch:normal;font-size:7.05555534px;line-height:1;font-family:'FiraCode Nerd Font Mono';-inkscape-font-specification:'FiraCode Nerd Font Mono, Light';font-variant-ligatures:normal;font-variant-caps:normal;font-variant-numeric:normal;font-feature-settings:normal;text-align:start;letter-spacing:0px;word-spacing:0px;writing-mode:lr-tb;text-anchor:start;fill:#008000;fill-opacity:1;stroke:none;stroke-width:0.26458332"
       d="m 64.284115,95.098853 c -0.448661,0 -0.850285,-0.162821 -1.14698,-0.416097 l -0.278604,0.329259 c 0.303931,0.264131 0.752592,0.495698 1.421966,0.495698 0.767065,0 1.544985,-0.293077 1.544985,-1.096324 0,-0.701938 -0.495698,-0.966069 -1.241054,-1.165072 -0.774302,-0.206239 -1.042051,-0.340113 -1.042051,-0.720028 0,-0.322023 0.238803,-0.560826 0.908177,-0.560826 0.524643,0 0.83943,0.148347 1.118034,0.343732 l 0.209857,-0.332878 c -0.300313,-0.22433 -0.738119,-0.40886 -1.33151,-0.40886 -0.792393,0 -1.378547,0.36906 -1.378547,0.995014 0,0.658519 0.51379,0.875613 1.33151,1.074616 0.817721,0.199003 0.92265,0.412478 0.92265,0.785156 0,0.405242 -0.390769,0.67661 -1.038433,0.67661 z" />
    <path
       inkscape:connector-curvature="0"
       id="path4849"
       style="font-style:normal;font-variant:normal;font-weight:300;font-stretch:normal;font-size:7.05555534px;line-height:1;font-family:'FiraCode Nerd Font Mono';-inkscape-font-specification:'FiraCode Nerd Font Mono, Light';font-variant-ligatures:normal;font-variant-caps:normal;font-variant-numeric:normal;font-feature-settings:normal;text-align:start;letter-spacing:0px;word-spacing:0px;writing-mode:lr-tb;text-anchor:start;fill:#008000;fill-opacity:1;stroke:none;stroke-width:0.26458332"
       d="m 68.625984,95.098853 c -0.448661,0 -0.850285,-0.162821 -1.14698,-0.416097 L 67.2004,95.012015 c 0.303932,0.264131 0.752593,0.495698 1.421966,0.495698 0.767065,0 1.544986,-0.293077 1.544986,-1.096324 0,-0.701938 -0.495698,-0.966069 -1.241054,-1.165072 -0.774302,-0.206239 -1.042052,-0.340113 -1.042052,-0.720028 0,-0.322023 0.238804,-0.560826 0.908177,-0.560826 0.524644,0 0.83943,0.148347 1.118034,0.343732 l 0.209858,-0.332878 c -0.300314,-0.22433 -0.73812,-0.40886 -1.33151,-0.40886 -0.792393,0 -1.378547,0.36906 -1.378547,0.995014 0,0.658519 0.513789,0.875613 1.33151,1.074616 0.81772,0.199003 0.922649,0.412478 0.922649,0.785156 0,0.405242 -0.390769,0.67661 -1.038433,0.67661 z" />
    <path
       inkscape:connector-curvature="0"
       id="path4851"
       style="font-style:normal;font-variant:normal;font-weight:300;font-stretch:normal;font-size:7.05555534px;line-height:1;font-family:'FiraCode Nerd Font Mono';-inkscape-font-specification:'FiraCode Nerd Font Mono, Light';font-variant-ligatures:normal;font-variant-caps:normal;font-variant-numeric:normal;font-feature-settings:normal;text-align:start;letter-spacing:0px;word-spacing:0px;writing-mode:lr-tb;text-anchor:start;fill:#008000;fill-opacity:1;stroke:none;stroke-width:0.26458332"
       d="m 74.324693,94.686374 v -1.9249 c 0,-0.71641 -0.463134,-1.194017 -1.353219,-1.194017 -0.350969,0 -0.712792,0.05789 -1.16869,0.227949 l 0.130257,0.36906 c 0.394387,-0.141111 0.71641,-0.191767 0.973304,-0.191767 0.586154,0 0.951596,0.209858 0.951596,0.803248 v 0.36906 h -0.575299 c -1.14698,0 -1.76208,0.423333 -1.76208,1.194017 0,0.709174 0.455897,1.168689 1.20849,1.168689 0.499316,0 0.908177,-0.188148 1.172308,-0.542735 0.09046,0.347351 0.336495,0.502935 0.625954,0.546354 l 0.12302,-0.32926 c -0.220712,-0.06513 -0.325641,-0.18453 -0.325641,-0.495698 z m -1.508803,0.463134 c -0.546354,0 -0.79963,-0.267749 -0.79963,-0.796011 0,-0.521026 0.311168,-0.864758 1.212108,-0.864758 h 0.629573 v 1.08547 c -0.253276,0.361823 -0.629573,0.575299 -1.042051,0.575299 z" />
    <path
       inkscape:connector-curvature="0"
       id="path4853"
       style="font-style:normal;font-variant:normal;font-weight:300;font-stretch:normal;font-size:7.05555534px;line-height:1;font-family:'FiraCode Nerd Font Mono';-inkscape-font-specification:'FiraCode Nerd Font Mono, Light';font-variant-ligatures:normal;font-variant-caps:normal;font-variant-numeric:normal;font-feature-settings:normal;text-align:start;letter-spacing:0px;word-spacing:0px;writing-mode:lr-tb;text-anchor:start;fill:#008000;fill-opacity:1;stroke:none;stroke-width:0.26458332"
       d="m 79.089896,91.292471 c -0.441425,0.173676 -0.723647,0.260513 -1.715043,0.271368 -0.868376,0 -1.461766,0.557208 -1.461766,1.298946 0,0.488461 0.206239,0.81772 0.625954,1.038433 -0.274986,0.18453 -0.412479,0.416097 -0.412479,0.647664 0,0.369059 0.282223,0.701937 0.890086,0.701937 h 0.701937 c 0.521026,0 0.947977,0.195384 0.947977,0.597008 0,0.466752 -0.430569,0.683846 -1.302564,0.683846 -0.890085,0 -1.107179,-0.227948 -1.107179,-0.705555 H 75.84434 c 0,0.781538 0.394388,1.121652 1.534131,1.121652 1.096325,0 1.751225,-0.390769 1.751225,-1.128889 0,-0.568062 -0.582535,-1.009487 -1.313418,-1.009487 H 77.11434 c -0.401624,0 -0.535498,-0.144729 -0.535498,-0.343732 0,-0.16282 0.09407,-0.322023 0.217094,-0.416097 0.166438,0.05789 0.322022,0.08322 0.607863,0.08322 0.871994,0 1.374929,-0.542735 1.374929,-1.298946 0,-0.416097 -0.209858,-0.748975 -0.640428,-0.947977 0.412479,0 0.774302,-0.0036 1.118034,-0.101311 z m -1.725898,0.625955 c 0.611482,0 0.92265,0.332877 0.92265,0.947977 0,0.597008 -0.318405,0.955214 -0.90094,0.955214 -0.701938,0 -1.009487,-0.408861 -1.009487,-0.951596 0,-0.542735 0.300313,-0.951595 0.987777,-0.951595 z" />
    <path
       inkscape:connector-curvature="0"
       id="path4855"
       style="font-style:normal;font-variant:normal;font-weight:300;font-stretch:normal;font-size:7.05555534px;line-height:1;font-family:'FiraCode Nerd Font Mono';-inkscape-font-specification:'FiraCode Nerd Font Mono, Light';font-variant-ligatures:normal;font-variant-caps:normal;font-variant-numeric:normal;font-feature-settings:normal;text-align:start;letter-spacing:0px;word-spacing:0px;writing-mode:lr-tb;text-anchor:start;fill:#008000;fill-opacity:1;stroke:none;stroke-width:0.26458332"
       d="m 80.754272,93.716688 h 2.583419 c 0.0036,-0.07598 0.01085,-0.180912 0.01085,-0.311168 0,-1.132507 -0.549972,-1.838063 -1.472621,-1.838063 -0.955214,0 -1.602878,0.814103 -1.602878,1.971937 0,1.183163 0.618718,1.968319 1.671624,1.968319 0.419715,0 0.890086,-0.155584 1.241054,-0.426951 l -0.23518,-0.336496 c -0.343732,0.238804 -0.625954,0.350969 -1.02396,0.350969 -0.622336,0 -1.154217,-0.423334 -1.172308,-1.378547 z m 1.132507,-1.729516 c 0.597009,0 1.016724,0.43057 1.034815,1.324274 h -2.160085 c 0.05065,-0.897322 0.510171,-1.324274 1.12527,-1.324274 z" />
    <path
       inkscape:connector-curvature="0"
       id="path4857"
       style="font-style:normal;font-variant:normal;font-weight:300;font-stretch:normal;font-size:7.05555534px;line-height:1;font-family:'FiraCode Nerd Font Mono';-inkscape-font-specification:'FiraCode Nerd Font Mono, Light';font-variant-ligatures:normal;font-variant-caps:normal;font-variant-numeric:normal;font-feature-settings:normal;text-align:start;letter-spacing:0px;word-spacing:0px;writing-mode:lr-tb;text-anchor:start;fill:#008000;fill-opacity:1;stroke:none;stroke-width:0.26458332"
       d="m 85.414546,92.902585 c 0,-1.613732 0.535499,-2.369943 1.599259,-3.25641 l -0.217094,-0.253276 c -1.183162,0.951595 -1.867008,1.841681 -1.867008,3.509686 0,1.668006 0.683846,2.558091 1.867008,3.509687 l 0.217094,-0.253277 c -1.034814,-0.853903 -1.599259,-1.653532 -1.599259,-3.25641 z" />
    <path
       inkscape:connector-curvature="0"
       id="path4859"
       style="font-style:normal;font-variant:normal;font-weight:300;font-stretch:normal;font-size:7.05555534px;line-height:1;font-family:'FiraCode Nerd Font Mono';-inkscape-font-specification:'FiraCode Nerd Font Mono, Light';font-variant-ligatures:normal;font-variant-caps:normal;font-variant-numeric:normal;font-feature-settings:normal;text-align:start;letter-spacing:0px;word-spacing:0px;writing-mode:lr-tb;text-anchor:start;fill:#008000;fill-opacity:1;stroke:none;stroke-width:0.26458332"
       d="m 89.687669,91.936517 h 0.452279 l 0.104929,-1.838063 h -0.665755 z m 1.157835,0 h 0.448661 l 0.108547,-1.838063 h -0.662137 z" />
    <path
       inkscape:connector-curvature="0"
       id="path4861"
       style="font-style:normal;font-variant:normal;font-weight:300;font-stretch:normal;font-size:7.05555534px;line-height:1;font-family:'FiraCode Nerd Font Mono';-inkscape-font-specification:'FiraCode Nerd Font Mono, Light';font-variant-ligatures:normal;font-variant-caps:normal;font-variant-numeric:normal;font-feature-settings:normal;text-align:start;letter-spacing:0px;word-spacing:0px;writing-mode:lr-tb;text-anchor:start;fill:#008000;fill-opacity:1;stroke:none;stroke-width:0.26458332"
       d="m 96.649139,91.961845 c 0,-1.027579 -0.720028,-1.497949 -1.856153,-1.497949 h -1.179544 v 4.971453 h 0.463133 v -1.903191 h 0.665755 c 1.103562,0 1.906809,-0.405242 1.906809,-1.570313 z m -0.506552,0.01085 c 0,0.929886 -0.560826,1.157835 -1.302564,1.157835 h -0.763448 v -2.272251 h 0.814103 c 0.694701,0 1.251909,0.271368 1.251909,1.114416 z" />
    <path
       inkscape:connector-curvature="0"
       id="path4863"
       style="font-style:normal;font-variant:normal;font-weight:300;font-stretch:normal;font-size:7.05555534px;line-height:1;font-family:'FiraCode Nerd Font Mono';-inkscape-font-specification:'FiraCode Nerd Font Mono, Light';font-variant-ligatures:normal;font-variant-caps:normal;font-variant-numeric:normal;font-feature-settings:normal;text-align:start;letter-spacing:0px;word-spacing:0px;writing-mode:lr-tb;text-anchor:start;fill:#008000;fill-opacity:1;stroke:none;stroke-width:0.26458332"
       d="m 99.185514,91.567457 c -1.045669,0 -1.581168,0.814103 -1.581168,1.975556 0,1.168689 0.524644,1.9647 1.570313,1.9647 1.034811,0 1.570311,-0.843048 1.570311,-1.971937 0,-1.201253 -0.5174,-1.968319 -1.559456,-1.968319 z m 0,0.394388 c 0.701937,0 1.067376,0.506552 1.067376,1.573931 0,1.060143 -0.365439,1.573932 -1.078231,1.573932 -0.712792,0 -1.078233,-0.513789 -1.078233,-1.566695 0,-1.074616 0.376296,-1.581168 1.089088,-1.581168 z" />
    <path
       inkscape:connector-curvature="0"
       id="path4865"
       style="font-style:normal;font-variant:normal;font-weight:300;font-stretch:normal;font-size:7.05555534px;line-height:1;font-family:'FiraCode Nerd Font Mono';-inkscape-font-specification:'FiraCode Nerd Font Mono, Light';font-variant-ligatures:normal;font-variant-caps:normal;font-variant-numeric:normal;font-feature-settings:normal;text-align:start;letter-spacing:0px;word-spacing:0px;writing-mode:lr-tb;text-anchor:start;fill:#008000;fill-opacity:1;stroke:none;stroke-width:0.26458332"
       d="m 103.36094,95.098853 c -0.44866,0 -0.85028,-0.162821 -1.14698,-0.416097 l -0.2786,0.329259 c 0.30393,0.264131 0.75259,0.495698 1.42197,0.495698 0.76706,0 1.54498,-0.293077 1.54498,-1.096324 0,-0.701938 -0.4957,-0.966069 -1.24105,-1.165072 -0.7743,-0.206239 -1.04205,-0.340113 -1.04205,-0.720028 0,-0.322023 0.2388,-0.560826 0.90817,-0.560826 0.52465,0 0.83943,0.148347 1.11804,0.343732 l 0.20986,-0.332878 c -0.30032,-0.22433 -0.73812,-0.40886 -1.33151,-0.40886 -0.7924,0 -1.37855,0.36906 -1.37855,0.995014 0,0.658519 0.51379,0.875613 1.33151,1.074616 0.81772,0.199003 0.92265,0.412478 0.92265,0.785156 0,0.405242 -0.39077,0.67661 -1.03844,0.67661 z" />
    <path
       inkscape:connector-curvature="0"
       id="path4867"
       style="font-style:normal;font-variant:normal;font-weight:300;font-stretch:normal;font-size:7.05555534px;line-height:1;font-family:'FiraCode Nerd Font Mono';-inkscape-font-specification:'FiraCode Nerd Font Mono, Light';font-variant-ligatures:normal;font-variant-caps:normal;font-variant-numeric:normal;font-feature-settings:normal;text-align:start;letter-spacing:0px;word-spacing:0px;writing-mode:lr-tb;text-anchor:start;fill:#008000;fill-opacity:1;stroke:none;stroke-width:0.26458332"
       d="m 107.86202,89.917543 c -0.2171,0 -0.36545,0.159202 -0.36545,0.358205 0,0.213476 0.14835,0.372678 0.36545,0.372678 0.23156,0 0.37629,-0.159202 0.37629,-0.372678 0,-0.199003 -0.14473,-0.358205 -0.37629,-0.358205 z m 0.42333,1.718661 h -1.61373 v 0.390769 h 1.16507 v 3.017607 h -1.20125 v 0.390769 h 2.75347 V 95.04458 h -1.10356 z" />
    <path
       inkscape:connector-curvature="0"
       id="path4869"
       style="font-style:normal;font-variant:normal;font-weight:300;font-stretch:normal;font-size:7.05555534px;line-height:1;font-family:'FiraCode Nerd Font Mono';-inkscape-font-specification:'FiraCode Nerd Font Mono, Light';font-variant-ligatures:normal;font-variant-caps:normal;font-variant-numeric:normal;font-feature-settings:normal;text-align:start;letter-spacing:0px;word-spacing:0px;writing-mode:lr-tb;text-anchor:start;fill:#008000;fill-opacity:1;stroke:none;stroke-width:0.26458332"
       d="m 113.71992,95.254437 -0.19538,-0.322023 c -0.21348,0.112166 -0.4559,0.18453 -0.74536,0.18453 -0.56444,0 -0.78154,-0.249658 -0.78154,-0.687464 V 92.0125 h 1.27724 l 0.0615,-0.376296 h -1.33875 v -0.929886 l -0.44866,0.05427 v 0.875613 h -0.89732 V 92.0125 h 0.89732 v 2.427835 c 0,0.611481 0.4559,1.067378 1.21935,1.067378 0.30393,0 0.70193,-0.09045 0.95159,-0.253276 z" />
    <path
       inkscape:connector-curvature="0"
       id="path4871"
       style="font-style:normal;font-variant:normal;font-weight:300;font-stretch:normal;font-size:7.05555534px;line-height:1;font-family:'FiraCode Nerd Font Mono';-inkscape-font-specification:'FiraCode Nerd Font Mono, Light';font-variant-ligatures:normal;font-variant-caps:normal;font-variant-numeric:normal;font-feature-settings:normal;text-align:start;letter-spacing:0px;word-spacing:0px;writing-mode:lr-tb;text-anchor:start;fill:#008000;fill-opacity:1;stroke:none;stroke-width:0.26458332"
       d="m 116.54576,89.917543 c -0.2171,0 -0.36545,0.159202 -0.36545,0.358205 0,0.213476 0.14835,0.372678 0.36545,0.372678 0.23156,0 0.37629,-0.159202 0.37629,-0.372678 0,-0.199003 -0.14473,-0.358205 -0.37629,-0.358205 z m 0.42333,1.718661 h -1.61373 v 0.390769 h 1.16507 v 3.017607 h -1.20126 v 0.390769 h 2.75348 V 95.04458 h -1.10356 z" />
    <path
       inkscape:connector-curvature="0"
       id="path4873"
       style="font-style:normal;font-variant:normal;font-weight:300;font-stretch:normal;font-size:7.05555534px;line-height:1;font-family:'FiraCode Nerd Font Mono';-inkscape-font-specification:'FiraCode Nerd Font Mono, Light';font-variant-ligatures:normal;font-variant-caps:normal;font-variant-numeric:normal;font-feature-settings:normal;text-align:start;letter-spacing:0px;word-spacing:0px;writing-mode:lr-tb;text-anchor:start;fill:#008000;fill-opacity:1;stroke:none;stroke-width:0.26458332"
       d="m 121.69811,90.036944 c -0.71641,0 -1.32789,0.401624 -1.32789,1.089089 v 0.821339 h -0.94074 v 0.383532 h 0.94074 v 3.104445 h 0.44866 v -3.104445 h 1.25915 l 0.047,-0.383532 h -1.30618 v -0.850285 c 0,-0.441425 0.2967,-0.665755 0.85029,-0.665755 0.29669,0 0.57891,0.05427 0.8141,0.166439 l 0.16282,-0.365442 c -0.28946,-0.126638 -0.58254,-0.195385 -0.94798,-0.195385 z" />
    <path
       inkscape:connector-curvature="0"
       id="path4875"
       style="font-style:normal;font-variant:normal;font-weight:300;font-stretch:normal;font-size:7.05555534px;line-height:1;font-family:'FiraCode Nerd Font Mono';-inkscape-font-specification:'FiraCode Nerd Font Mono, Light';font-variant-ligatures:normal;font-variant-caps:normal;font-variant-numeric:normal;font-feature-settings:normal;text-align:start;letter-spacing:0px;word-spacing:0px;writing-mode:lr-tb;text-anchor:start;fill:#008000;fill-opacity:1;stroke:none;stroke-width:0.26458332"
       d="m 129.80655,90.463896 h -0.52102 l 0.047,3.390285 h 0.43419 z m -0.24966,4.175441 c -0.24604,0 -0.42695,0.191767 -0.42695,0.426952 0,0.24604 0.18091,0.441424 0.42695,0.441424 0.25328,0 0.44143,-0.195384 0.44143,-0.441424 0,-0.235185 -0.18815,-0.426952 -0.44143,-0.426952 z" />
    <path
       inkscape:connector-curvature="0"
       id="path4877"
       style="font-style:normal;font-variant:normal;font-weight:300;font-stretch:normal;font-size:7.05555534px;line-height:1;font-family:'FiraCode Nerd Font Mono';-inkscape-font-specification:'FiraCode Nerd Font Mono, Light';font-variant-ligatures:normal;font-variant-caps:normal;font-variant-numeric:normal;font-feature-settings:normal;text-align:start;letter-spacing:0px;word-spacing:0px;writing-mode:lr-tb;text-anchor:start;fill:#008000;fill-opacity:1;stroke:none;stroke-width:0.26458332"
       d="m 133.10637,91.936517 h 0.45228 l 0.10492,-1.838063 h -0.66575 z m 1.15783,0 h 0.44866 l 0.10855,-1.838063 h -0.66214 z" />
    <path
       inkscape:connector-curvature="0"
       id="path4879"
       style="font-style:normal;font-variant:normal;font-weight:300;font-stretch:normal;font-size:7.05555534px;line-height:1;font-family:'FiraCode Nerd Font Mono';-inkscape-font-specification:'FiraCode Nerd Font Mono, Light';font-variant-ligatures:normal;font-variant-caps:normal;font-variant-numeric:normal;font-feature-settings:normal;text-align:start;letter-spacing:0px;word-spacing:0px;writing-mode:lr-tb;text-anchor:start;fill:#008000;fill-opacity:1;stroke:none;stroke-width:0.26458332"
       d="m 138.98599,92.902585 c 0,1.602878 -0.56445,2.402507 -1.59926,3.25641 l 0.21709,0.253277 c 1.18317,-0.951596 1.86701,-1.841681 1.86701,-3.509687 0,-1.668005 -0.68384,-2.558091 -1.86701,-3.509686 l -0.21709,0.253276 c 1.06376,0.886467 1.59926,1.642678 1.59926,3.25641 z" />
    <path
       inkscape:connector-curvature="0"
       id="path4881"
       style="font-style:normal;font-variant:normal;font-weight:300;font-stretch:normal;font-size:7.05555534px;line-height:1.39999998;font-family:'FiraCode Nerd Font Mono';-inkscape-font-specification:'FiraCode Nerd Font Mono, Light';font-variant-ligatures:normal;font-variant-caps:normal;font-variant-numeric:normal;font-feature-settings:normal;text-align:start;letter-spacing:0px;word-spacing:0px;writing-mode:lr-tb;text-anchor:start;fill:#22223a;fill-opacity:1;stroke:none;stroke-width:0.26458332"
       d="m 46.008459,99.277913 v 0.383532 c 0.560826,0 1.027578,0.148348 0.980541,0.611485 l -0.16282,1.61011 c -0.05427,0.54274 0.137493,0.8141 0.647663,0.90818 -0.549971,0.076 -0.705555,0.29669 -0.647663,0.88646 l 0.16282,1.61012 c 0.04704,0.47399 -0.423333,0.61148 -0.980541,0.61148 v 0.38353 c 0.658518,0 1.483476,-0.20624 1.39302,-1.06376 l -0.159202,-1.47986 c -0.05066,-0.47398 0.151965,-0.78153 1.12527,-0.78153 v -0.35459 c -0.973305,0 -1.175926,-0.2967 -1.12527,-0.7743 l 0.159202,-1.48348 c 0.09407,-0.864756 -0.734502,-1.067377 -1.39302,-1.067377 z" />
    <text
       xml:space="preserve"
       style="font-style:normal;font-weight:normal;font-size:4.95146227px;line-height:1;font-family:sans-serif;letter-spacing:0px;word-spacing:0px;fill:#000000;fill-opacity:1;stroke:none;stroke-width:0.61893278"
       x="187.95634"
       y="83.962624"
       id="text921"
       transform="scale(0.83889549,1.1920436)"><tspan
         sodipodi:role="line"
         id="tspan919"
         x="187.95634"
         y="87.803741"
         style="font-style:normal;font-variant:normal;font-weight:normal;font-stretch:normal;font-size:16.50487328px;font-family:'Roboto Condensed';-inkscape-font-specification:'Roboto Condensed, Normal';font-variant-ligatures:normal;font-variant-caps:normal;font-variant-numeric:normal;font-feature-settings:normal;text-align:start;writing-mode:lr-tb;text-anchor:start;stroke-width:0.61893278" /></text>
    <g
       aria-label="}"
       transform="scale(1.3752909,0.7271189)"
       style="font-style:normal;font-weight:normal;font-size:1.53906834px;line-height:1;font-family:sans-serif;letter-spacing:0px;word-spacing:0px;fill:#008000;fill-opacity:1;stroke:none;stroke-width:0.19238354"
       id="text979">
      <path
         d="m 116.44788,128.06166 v 0.74349 q -1.33967,0 -1.33967,1.85169 v 1.53606 q 0,1.10821 -0.42785,1.97093 -0.42084,0.86973 -1.57815,1.27654 l -0.18236,-0.56813 q 0.76452,-0.30861 1.08716,-1.01703 0.32265,-0.70841 0.32265,-1.66231 v -1.51502 q 0,-1.74648 1.16432,-2.24448 -1.16432,-0.49799 -1.16432,-2.23746 v -1.52203 q 0,-0.9539 -0.31563,-1.67634 -0.30862,-0.72244 -1.08016,-1.02404 l 0.16834,-0.56112 q 1.15731,0.40681 1.57815,1.28356 0.42785,0.86973 0.42785,1.97794 v 1.55009 q 0,1.83766 1.33967,1.83766 z"
         style="font-style:normal;font-variant:normal;font-weight:300;font-stretch:normal;font-size:14.36463833px;font-family:'Roboto Condensed';-inkscape-font-specification:'Roboto Condensed, Light';font-variant-ligatures:normal;font-variant-caps:normal;font-variant-numeric:normal;font-feature-settings:normal;text-align:start;writing-mode:lr-tb;text-anchor:start;fill:#008000;fill-opacity:1;stroke-width:0.19238354"
         id="path4824" />
    </g>
    <g
       aria-label="}"
       transform="rotate(-90)"
       style="font-style:normal;font-weight:normal;font-size:2.11666656px;line-height:1;font-family:sans-serif;letter-spacing:0px;word-spacing:0px;fill:#00aad4;fill-opacity:1;stroke:none;stroke-width:0.26458332"
       id="text979-3-9">
      <path
         d="m -70.769443,72.188127 v 1.022505 q -1.842437,0 -1.842437,2.546614 v 2.112533 q 0,1.52411 -0.588423,2.710601 -0.578776,1.196137 -2.17041,1.755621 l -0.250803,-0.781348 q 1.051443,-0.424436 1.495172,-1.398709 0.443728,-0.974273 0.443728,-2.286165 v -2.083594 q 0,-2.401921 1.60128,-3.086806 -1.60128,-0.684885 -1.60128,-3.077159 v -2.09324 q 0,-1.311892 -0.434082,-2.305458 -0.424436,-0.993565 -1.485525,-1.408355 l 0.23151,-0.771701 q 1.591634,0.559483 2.17041,1.765267 0.588423,1.196137 0.588423,2.720247 v 2.131825 q 0,2.527322 1.842437,2.527322 z"
         style="font-style:normal;font-variant:normal;font-weight:300;font-stretch:normal;font-size:19.75555611px;font-family:'Roboto Condensed';-inkscape-font-specification:'Roboto Condensed, Light';font-variant-ligatures:normal;font-variant-caps:normal;font-variant-numeric:normal;font-feature-settings:normal;text-align:start;writing-mode:lr-tb;text-anchor:start;fill:#00aad4;fill-opacity:1;stroke-width:0.26458332"
         id="path4821" />
    </g>
    <g
       aria-label="Condition"
       style="font-style:normal;font-weight:normal;font-size:2.11666656px;line-height:1;font-family:sans-serif;letter-spacing:0px;word-spacing:0px;fill:#00aad4;fill-opacity:1;stroke:none;stroke-width:0.26458332"
       id="text1056-7">
      <path
         d="m 63.351833,64.590926 h 0.570507 q -0.03101,0.697631 -0.390673,1.097607 -0.359668,0.399976 -1.063501,0.399976 -0.679029,0 -1.079004,-0.514698 -0.396875,-0.517797 -0.396875,-1.389062 v -0.834058 q 0,-0.868164 0.403076,-1.382861 0.406177,-0.517798 1.125513,-0.517798 0.657324,0 1.013891,0.390674 0.356567,0.390674 0.387573,1.119311 h -0.570507 q -0.03411,-0.5333 -0.223243,-0.775146 -0.189135,-0.244946 -0.607714,-0.244946 -0.496094,0 -0.728638,0.384472 -0.229444,0.384473 -0.229444,1.020093 v 0.840259 q 0,0.592212 0.201539,1.00459 0.204638,0.412378 0.703833,0.412378 0.468188,0 0.654223,-0.235645 0.186035,-0.235644 0.229444,-0.775146 z"
         style="font-style:normal;font-variant:normal;font-weight:normal;font-stretch:normal;font-size:6.3499999px;font-family:'Roboto Condensed';-inkscape-font-specification:'Roboto Condensed, Normal';font-variant-ligatures:normal;font-variant-caps:normal;font-variant-numeric:normal;font-feature-settings:normal;text-align:start;writing-mode:lr-tb;text-anchor:start;fill:#00aad4;fill-opacity:1;stroke-width:0.26458332"
         id="path4802" />
      <path
         d="m 64.50215,64.19095 q 0,-0.784448 0.375171,-1.181323 0.375171,-0.399976 0.917773,-0.399976 0.548804,0 0.923975,0.399976 0.378271,0.396875 0.378271,1.181323 v 0.31936 q 0,0.784449 -0.378271,1.181324 -0.375171,0.396875 -0.917774,0.396875 -0.545703,0 -0.923974,-0.396875 Q 64.50215,65.294759 64.50215,64.51031 Z m 0.548804,0.31936 q 0,0.555005 0.21394,0.834058 0.213941,0.275952 0.536401,0.275952 0.725538,0 0.747242,-1.047998 V 64.19095 q 0,-0.548804 -0.217041,-0.827856 -0.213941,-0.282154 -0.536402,-0.282154 -0.31936,0 -0.5333,0.282154 -0.21084,0.279052 -0.21084,0.827856 z"
         style="font-style:normal;font-variant:normal;font-weight:normal;font-stretch:normal;font-size:6.3499999px;font-family:'Roboto Condensed';-inkscape-font-specification:'Roboto Condensed, Normal';font-variant-ligatures:normal;font-variant-caps:normal;font-variant-numeric:normal;font-feature-settings:normal;text-align:start;writing-mode:lr-tb;text-anchor:start;fill:#00aad4;fill-opacity:1;stroke-width:0.26458332"
         id="path4804" />
      <path
         d="m 68.982497,63.093343 q -0.201538,0 -0.365869,0.136425 -0.161231,0.136426 -0.26355,0.356568 v 2.440161 h -0.548804 v -3.354834 h 0.517798 l 0.0155,0.356567 q 0.31936,-0.418579 0.815454,-0.418579 0.412378,0 0.657324,0.279053 0.244947,0.279053 0.244947,0.939477 v 2.198316 H 69.506496 V 63.82198 q 0,-0.393774 -0.130225,-0.561206 -0.130224,-0.167431 -0.393774,-0.167431 z"
         style="font-style:normal;font-variant:normal;font-weight:normal;font-stretch:normal;font-size:6.3499999px;font-family:'Roboto Condensed';-inkscape-font-specification:'Roboto Condensed, Normal';font-variant-ligatures:normal;font-variant-caps:normal;font-variant-numeric:normal;font-feature-settings:normal;text-align:start;writing-mode:lr-tb;text-anchor:start;fill:#00aad4;fill-opacity:1;stroke-width:0.26458332"
         id="path4806" />
      <path
         d="m 72.684596,66.026497 -0.02481,-0.362769 q -0.26665,0.424781 -0.778247,0.424781 -0.496093,0 -0.809253,-0.390674 -0.310058,-0.390674 -0.310058,-1.187525 v -0.313159 q 0,-0.827856 0.310058,-1.206128 0.310059,-0.381372 0.815454,-0.381372 0.486792,0 0.750342,0.390674 v -1.736328 h 0.545703 v 4.7625 z m -1.37356,-1.516187 q 0,0.561206 0.167432,0.827857 0.167432,0.26355 0.545703,0.26355 0.409278,0 0.613916,-0.415479 V 63.50262 q -0.21394,-0.409277 -0.607715,-0.409277 -0.378271,0 -0.548803,0.26665 -0.167432,0.26665 -0.170533,0.815454 z"
         style="font-style:normal;font-variant:normal;font-weight:normal;font-stretch:normal;font-size:6.3499999px;font-family:'Roboto Condensed';-inkscape-font-specification:'Roboto Condensed, Normal';font-variant-ligatures:normal;font-variant-caps:normal;font-variant-numeric:normal;font-feature-settings:normal;text-align:start;writing-mode:lr-tb;text-anchor:start;fill:#00aad4;fill-opacity:1;stroke-width:0.26458332"
         id="path4808" />
      <path
         d="m 74.042653,61.781795 q 0,-0.139527 0.07751,-0.235645 0.07752,-0.09612 0.232544,-0.09612 0.151929,0 0.232544,0.09612 0.08061,0.09612 0.08061,0.235645 0,0.133325 -0.08061,0.229443 -0.08062,0.09302 -0.232544,0.09302 -0.155029,0 -0.232544,-0.09302 -0.07751,-0.09612 -0.07751,-0.229443 z m 0.576708,0.889868 v 3.354834 h -0.545703 v -3.354834 z"
         style="font-style:normal;font-variant:normal;font-weight:normal;font-stretch:normal;font-size:6.3499999px;font-family:'Roboto Condensed';-inkscape-font-specification:'Roboto Condensed, Normal';font-variant-ligatures:normal;font-variant-caps:normal;font-variant-numeric:normal;font-feature-settings:normal;text-align:start;writing-mode:lr-tb;text-anchor:start;fill:#00aad4;fill-opacity:1;stroke-width:0.26458332"
         id="path4810" />
      <path
         d="m 76.709156,66.026497 q -0.158129,0.06201 -0.384472,0.06201 -0.266651,0 -0.468189,-0.195337 -0.198437,-0.195337 -0.198437,-0.700733 v -2.080493 h -0.511597 v -0.440283 h 0.511597 v -0.815454 h 0.548803 v 0.815454 h 0.505396 v 0.440283 h -0.505396 v 2.083594 q 0,0.257348 0.08682,0.328662 0.08992,0.07131 0.201538,0.07131 0.117822,0 0.217041,-0.03721 z"
         style="font-style:normal;font-variant:normal;font-weight:normal;font-stretch:normal;font-size:6.3499999px;font-family:'Roboto Condensed';-inkscape-font-specification:'Roboto Condensed, Normal';font-variant-ligatures:normal;font-variant-caps:normal;font-variant-numeric:normal;font-feature-settings:normal;text-align:start;writing-mode:lr-tb;text-anchor:start;fill:#00aad4;fill-opacity:1;stroke-width:0.26458332"
         id="path4812" />
      <path
         d="m 77.378884,61.781795 q 0,-0.139527 0.07751,-0.235645 0.07752,-0.09612 0.232544,-0.09612 0.151929,0 0.232544,0.09612 0.08062,0.09612 0.08062,0.235645 0,0.133325 -0.08062,0.229443 -0.08061,0.09302 -0.232544,0.09302 -0.155029,0 -0.232544,-0.09302 -0.07751,-0.09612 -0.07751,-0.229443 z m 0.576709,0.889868 v 3.354834 H 77.40989 v -3.354834 z"
         style="font-style:normal;font-variant:normal;font-weight:normal;font-stretch:normal;font-size:6.3499999px;font-family:'Roboto Condensed';-inkscape-font-specification:'Roboto Condensed, Normal';font-variant-ligatures:normal;font-variant-caps:normal;font-variant-numeric:normal;font-feature-settings:normal;text-align:start;writing-mode:lr-tb;text-anchor:start;fill:#00aad4;fill-opacity:1;stroke-width:0.26458332"
         id="path4814" />
      <path
         d="m 78.709035,64.19095 q 0,-0.784448 0.375171,-1.181323 0.375171,-0.399976 0.917773,-0.399976 0.548804,0 0.923975,0.399976 0.378271,0.396875 0.378271,1.181323 v 0.31936 q 0,0.784449 -0.378271,1.181324 -0.375171,0.396875 -0.917773,0.396875 -0.545704,0 -0.923975,-0.396875 -0.375171,-0.396875 -0.375171,-1.181324 z m 0.548804,0.31936 q 0,0.555005 0.21394,0.834058 0.213941,0.275952 0.536402,0.275952 0.725537,0 0.747241,-1.047998 V 64.19095 q 0,-0.548804 -0.217041,-0.827856 -0.213941,-0.282154 -0.536402,-0.282154 -0.31936,0 -0.5333,0.282154 -0.21084,0.279052 -0.21084,0.827856 z"
         style="font-style:normal;font-variant:normal;font-weight:normal;font-stretch:normal;font-size:6.3499999px;font-family:'Roboto Condensed';-inkscape-font-specification:'Roboto Condensed, Normal';font-variant-ligatures:normal;font-variant-caps:normal;font-variant-numeric:normal;font-feature-settings:normal;text-align:start;writing-mode:lr-tb;text-anchor:start;fill:#00aad4;fill-opacity:1;stroke-width:0.26458332"
         id="path4816" />
      <path
         d="m 83.18938,63.093343 q -0.201538,0 -0.365869,0.136425 -0.16123,0.136426 -0.26355,0.356568 v 2.440161 h -0.548803 v -3.354834 h 0.517797 l 0.0155,0.356567 q 0.319361,-0.418579 0.815454,-0.418579 0.412378,0 0.657325,0.279053 0.244946,0.279053 0.244946,0.939477 v 2.198316 H 83.713379 V 63.82198 q 0,-0.393774 -0.130224,-0.561206 -0.130225,-0.167431 -0.393775,-0.167431 z"
         style="font-style:normal;font-variant:normal;font-weight:normal;font-stretch:normal;font-size:6.3499999px;font-family:'Roboto Condensed';-inkscape-font-specification:'Roboto Condensed, Normal';font-variant-ligatures:normal;font-variant-caps:normal;font-variant-numeric:normal;font-feature-settings:normal;text-align:start;writing-mode:lr-tb;text-anchor:start;fill:#00aad4;fill-opacity:1;stroke-width:0.26458332"
         id="path4818" />
    </g>
    <g
       aria-label="Code si  
la condition
est vraie"
       style="font-style:normal;font-weight:normal;font-size:2.11666656px;line-height:1;font-family:sans-serif;letter-spacing:0px;word-spacing:0px;fill:#008000;fill-opacity:1;stroke:none;stroke-width:0.26458332"
       id="text1056-7-4-8">
      <path
         d="m 166.36361,87.730445 h 0.50711 q -0.0276,0.620117 -0.34726,0.975651 -0.31971,0.355533 -0.94534,0.355533 -0.60358,0 -0.95911,-0.457508 -0.35278,-0.460265 -0.35278,-1.234723 v -0.741384 q 0,-0.771701 0.35829,-1.22921 0.36105,-0.460265 1.00046,-0.460265 0.58429,0 0.90123,0.347266 0.31695,0.347265 0.34451,0.994943 h -0.50711 q -0.0303,-0.474045 -0.19844,-0.689019 -0.16812,-0.21773 -0.54019,-0.21773 -0.44097,0 -0.64768,0.341754 -0.20395,0.341753 -0.20395,0.906749 v 0.746896 q 0,0.526411 0.17914,0.892969 0.18191,0.366558 0.62563,0.366558 0.41617,0 0.58154,-0.209461 0.16536,-0.209462 0.20395,-0.689019 z"
         style="font-style:normal;font-variant:normal;font-weight:normal;font-stretch:normal;font-size:5.64444447px;font-family:'Roboto Condensed';-inkscape-font-specification:'Roboto Condensed, Normal';font-variant-ligatures:normal;font-variant-caps:normal;font-variant-numeric:normal;font-feature-settings:normal;text-align:start;writing-mode:lr-tb;text-anchor:start;fill:#008000;fill-opacity:1;stroke-width:0.26458332"
         id="path4751" />
      <path
         d="m 167.38611,87.374911 q 0,-0.697288 0.33349,-1.050065 0.33348,-0.355534 0.81579,-0.355534 0.48783,0 0.82132,0.355534 0.33624,0.352777 0.33624,1.050065 v 0.283876 q 0,0.697287 -0.33624,1.050065 -0.33349,0.352777 -0.8158,0.352777 -0.48507,0 -0.82131,-0.352777 -0.33349,-0.352778 -0.33349,-1.050065 z m 0.48783,0.283876 q 0,0.493337 0.19017,0.741384 0.19016,0.245291 0.4768,0.245291 0.64492,0 0.66421,-0.931554 v -0.338997 q 0,-0.487826 -0.19292,-0.735873 -0.19017,-0.250803 -0.47681,-0.250803 -0.28387,0 -0.47404,0.250803 -0.18741,0.248047 -0.18741,0.735873 z"
         style="font-style:normal;font-variant:normal;font-weight:normal;font-stretch:normal;font-size:5.64444447px;font-family:'Roboto Condensed';-inkscape-font-specification:'Roboto Condensed, Normal';font-variant-ligatures:normal;font-variant-caps:normal;font-variant-numeric:normal;font-feature-settings:normal;text-align:start;writing-mode:lr-tb;text-anchor:start;fill:#008000;fill-opacity:1;stroke-width:0.26458332"
         id="path4753" />
      <path
         d="m 171.92537,89.006508 -0.022,-0.322461 q -0.23702,0.377582 -0.69178,0.377582 -0.44097,0 -0.71933,-0.347265 -0.27561,-0.347266 -0.27561,-1.055577 v -0.278364 q 0,-0.735873 0.27561,-1.072114 0.27561,-0.338997 0.72485,-0.338997 0.4327,0 0.66697,0.347265 v -1.543402 h 0.48507 v 4.233333 z m -1.22094,-1.347721 q 0,0.498849 0.14882,0.735872 0.14883,0.234266 0.48507,0.234266 0.36381,0 0.54571,-0.369314 v -1.496549 q -0.19017,-0.363802 -0.54019,-0.363802 -0.33624,0 -0.48783,0.237022 -0.14883,0.237023 -0.15158,0.724848 z"
         style="font-style:normal;font-variant:normal;font-weight:normal;font-stretch:normal;font-size:5.64444447px;font-family:'Roboto Condensed';-inkscape-font-specification:'Roboto Condensed, Normal';font-variant-ligatures:normal;font-variant-caps:normal;font-variant-numeric:normal;font-feature-settings:normal;text-align:start;writing-mode:lr-tb;text-anchor:start;fill:#008000;fill-opacity:1;stroke-width:0.26458332"
         id="path4755" />
      <path
         d="m 175.15549,88.612389 q -0.12127,0.170877 -0.35278,0.311437 -0.22875,0.137803 -0.6146,0.137803 -0.53468,0 -0.84612,-0.319704 -0.31143,-0.322461 -0.31419,-0.9977 v -0.350022 q 0,-0.788238 0.34175,-1.105186 0.34176,-0.319705 0.76344,-0.319705 0.55948,0 0.80201,0.361046 0.24254,0.361046 0.24254,1.044553 v 0.283876 h -1.66192 v 0.07166 q 0,0.476801 0.17915,0.697287 0.1819,0.21773 0.5209,0.21773 0.24529,0 0.40239,-0.09371 0.15985,-0.09646 0.28112,-0.245291 z m -1.0225,-2.224154 q -0.25356,0 -0.42168,0.176389 -0.16812,0.173633 -0.19293,0.677995 h 1.17133 v -0.0689 q -0.0193,-0.344509 -0.12953,-0.564996 -0.10749,-0.220486 -0.42719,-0.220486 z"
         style="font-style:normal;font-variant:normal;font-weight:normal;font-stretch:normal;font-size:5.64444447px;font-family:'Roboto Condensed';-inkscape-font-specification:'Roboto Condensed, Normal';font-variant-ligatures:normal;font-variant-caps:normal;font-variant-numeric:normal;font-feature-settings:normal;text-align:start;writing-mode:lr-tb;text-anchor:start;fill:#008000;fill-opacity:1;stroke-width:0.26458332"
         id="path4757" />
      <path
         d="m 178.50963,88.243075 q 0,-0.170877 -0.13229,-0.286632 -0.12953,-0.115755 -0.49885,-0.272852 -0.36931,-0.157096 -0.58153,-0.319705 -0.23978,-0.184657 -0.23978,-0.548459 0,-0.355534 0.25907,-0.600825 0.25907,-0.24529 0.68627,-0.24529 0.45751,0 0.71106,0.259071 0.25356,0.259071 0.25356,0.644922 h -0.48507 q 0,-0.184657 -0.12402,-0.333486 -0.12402,-0.151584 -0.35553,-0.151584 -0.24529,0 -0.35278,0.124024 -0.10473,0.124023 -0.10473,0.286632 0,0.162608 0.10473,0.253559 0.10473,0.08819 0.41617,0.225998 0.45199,0.179145 0.69177,0.37207 0.23978,0.192926 0.23978,0.553972 0,0.394119 -0.2701,0.625629 -0.27009,0.23151 -0.71382,0.23151 -0.50712,0 -0.77446,-0.289388 -0.26734,-0.289388 -0.26734,-0.658702 h 0.48783 q 0.0138,0.316949 0.19017,0.424436 0.17639,0.104731 0.3638,0.104731 0.49609,0 0.49609,-0.399631 z"
         style="font-style:normal;font-variant:normal;font-weight:normal;font-stretch:normal;font-size:5.64444447px;font-family:'Roboto Condensed';-inkscape-font-specification:'Roboto Condensed, Normal';font-variant-ligatures:normal;font-variant-caps:normal;font-variant-numeric:normal;font-feature-settings:normal;text-align:start;writing-mode:lr-tb;text-anchor:start;fill:#008000;fill-opacity:1;stroke-width:0.26458332"
         id="path4759" />
      <path
         d="m 179.64789,85.233439 q 0,-0.124023 0.0689,-0.209462 0.0689,-0.08544 0.2067,-0.08544 0.13505,0 0.20671,0.08544 0.0717,0.08544 0.0717,0.209462 0,0.118512 -0.0717,0.20395 -0.0717,0.08268 -0.20671,0.08268 -0.1378,0 -0.2067,-0.08268 -0.0689,-0.08544 -0.0689,-0.20395 z m 0.51263,0.790994 v 2.982075 h -0.48507 v -2.982075 z"
         style="font-style:normal;font-variant:normal;font-weight:normal;font-stretch:normal;font-size:5.64444447px;font-family:'Roboto Condensed';-inkscape-font-specification:'Roboto Condensed, Normal';font-variant-ligatures:normal;font-variant-caps:normal;font-variant-numeric:normal;font-feature-settings:normal;text-align:start;writing-mode:lr-tb;text-anchor:start;fill:#008000;fill-opacity:1;stroke-width:0.26458332"
         id="path4761" />
      <path
         d="m 164.81194,90.417619 v 4.233333 h -0.48507 v -4.233333 z"
         style="font-style:normal;font-variant:normal;font-weight:normal;font-stretch:normal;font-size:5.64444447px;font-family:'Roboto Condensed';-inkscape-font-specification:'Roboto Condensed, Normal';font-variant-ligatures:normal;font-variant-caps:normal;font-variant-numeric:normal;font-feature-settings:normal;text-align:start;writing-mode:lr-tb;text-anchor:start;fill:#008000;fill-opacity:1;stroke-width:0.26458332"
         id="path4763" />
      <path
         d="m 167.11877,94.650952 q -0.0469,-0.107487 -0.0661,-0.322461 -0.10198,0.151585 -0.2701,0.264584 -0.16812,0.112999 -0.38861,0.112999 -0.39136,0 -0.62838,-0.220486 -0.23427,-0.220486 -0.23427,-0.647678 0,-0.429948 0.2949,-0.711068 0.2949,-0.283876 0.88195,-0.283876 h 0.33624 v -0.319705 q 0,-0.264583 -0.12127,-0.377582 -0.11851,-0.112999 -0.35829,-0.112999 -0.23427,0 -0.36656,0.137804 -0.12953,0.137803 -0.12953,0.325217 h -0.48783 q 0,-0.319705 0.27285,-0.600825 0.27285,-0.28112 0.73587,-0.28112 0.41342,0 0.678,0.206706 0.26458,0.206706 0.26458,0.708312 v 1.422135 q 0,0.42168 0.0909,0.655946 v 0.0441 z m -0.65043,-0.388606 q 0.2067,0 0.35829,-0.107487 0.15158,-0.107487 0.21773,-0.239779 v -0.713824 h -0.25632 q -0.35002,0 -0.55948,0.148828 -0.20946,0.148828 -0.20946,0.427192 0,0.26734 0.11024,0.377583 0.113,0.107487 0.339,0.107487 z"
         style="font-style:normal;font-variant:normal;font-weight:normal;font-stretch:normal;font-size:5.64444447px;font-family:'Roboto Condensed';-inkscape-font-specification:'Roboto Condensed, Normal';font-variant-ligatures:normal;font-variant-caps:normal;font-variant-numeric:normal;font-feature-settings:normal;text-align:start;writing-mode:lr-tb;text-anchor:start;fill:#008000;fill-opacity:1;stroke-width:0.26458332"
         id="path4765" />
      <path
         d="m 170.61623,94.289906 q 0.21773,0 0.37483,-0.135047 0.1571,-0.137804 0.17639,-0.446485 h 0.45751 q -0.0165,0.449241 -0.31144,0.724848 -0.2949,0.272852 -0.69729,0.272852 -0.57602,0 -0.85163,-0.355534 -0.2756,-0.35829 -0.28112,-0.9977 v -0.361046 q 0,-0.650434 0.27561,-1.014236 0.27837,-0.363802 0.85714,-0.363802 0.45475,0 0.72209,0.286632 0.2701,0.283876 0.28664,0.79375 h -0.45751 q -0.0386,-0.661458 -0.55122,-0.661458 -0.38585,0 -0.51538,0.261827 -0.12954,0.261827 -0.12954,0.697287 v 0.336242 q 0,0.438216 0.12678,0.700043 0.12954,0.261827 0.51814,0.261827 z"
         style="font-style:normal;font-variant:normal;font-weight:normal;font-stretch:normal;font-size:5.64444447px;font-family:'Roboto Condensed';-inkscape-font-specification:'Roboto Condensed, Normal';font-variant-ligatures:normal;font-variant-caps:normal;font-variant-numeric:normal;font-feature-settings:normal;text-align:start;writing-mode:lr-tb;text-anchor:start;fill:#008000;fill-opacity:1;stroke-width:0.26458332"
         id="path4767" />
      <path
         d="m 172.08798,93.019355 q 0,-0.697287 0.33348,-1.050065 0.33349,-0.355534 0.8158,-0.355534 0.48783,0 0.82131,0.355534 0.33624,0.352778 0.33624,1.050065 v 0.283876 q 0,0.697287 -0.33624,1.050065 -0.33348,0.352778 -0.8158,0.352778 -0.48507,0 -0.82131,-0.352778 -0.33348,-0.352778 -0.33348,-1.050065 z m 0.48782,0.283876 q 0,0.493338 0.19017,0.741385 0.19017,0.24529 0.4768,0.24529 0.64493,0 0.66422,-0.931553 v -0.338998 q 0,-0.487825 -0.19293,-0.735872 -0.19017,-0.250803 -0.4768,-0.250803 -0.28387,0 -0.47404,0.250803 -0.18742,0.248047 -0.18742,0.735872 z"
         style="font-style:normal;font-variant:normal;font-weight:normal;font-stretch:normal;font-size:5.64444447px;font-family:'Roboto Condensed';-inkscape-font-specification:'Roboto Condensed, Normal';font-variant-ligatures:normal;font-variant-caps:normal;font-variant-numeric:normal;font-feature-settings:normal;text-align:start;writing-mode:lr-tb;text-anchor:start;fill:#008000;fill-opacity:1;stroke-width:0.26458332"
         id="path4769" />
      <path
         d="m 176.07051,92.043704 q -0.17915,0 -0.32522,0.121267 -0.14332,0.121268 -0.23427,0.316949 v 2.169032 h -0.48782 v -2.982074 h 0.46026 l 0.0138,0.316948 q 0.28388,-0.37207 0.72485,-0.37207 0.36656,0 0.58429,0.248047 0.21773,0.248047 0.21773,0.835091 v 1.954058 h -0.48783 v -1.95957 q 0,-0.350022 -0.11575,-0.49885 -0.11576,-0.148828 -0.35002,-0.148828 z"
         style="font-style:normal;font-variant:normal;font-weight:normal;font-stretch:normal;font-size:5.64444447px;font-family:'Roboto Condensed';-inkscape-font-specification:'Roboto Condensed, Normal';font-variant-ligatures:normal;font-variant-caps:normal;font-variant-numeric:normal;font-feature-settings:normal;text-align:start;writing-mode:lr-tb;text-anchor:start;fill:#008000;fill-opacity:1;stroke-width:0.26458332"
         id="path4771" />
      <path
         d="m 179.36126,94.650952 -0.022,-0.322461 q -0.23702,0.377583 -0.69177,0.377583 -0.44097,0 -0.71934,-0.347266 -0.2756,-0.347265 -0.2756,-1.055577 v -0.278364 q 0,-0.735872 0.2756,-1.072113 0.27561,-0.338998 0.72485,-0.338998 0.4327,0 0.66697,0.347266 v -1.543403 h 0.48507 v 4.233333 z m -1.22094,-1.347721 q 0,0.49885 0.14883,0.735872 0.14883,0.234267 0.48507,0.234267 0.3638,0 0.5457,-0.369314 v -1.49655 q -0.19017,-0.363802 -0.54019,-0.363802 -0.33624,0 -0.48783,0.237023 -0.14882,0.237022 -0.15158,0.724848 z"
         style="font-style:normal;font-variant:normal;font-weight:normal;font-stretch:normal;font-size:5.64444447px;font-family:'Roboto Condensed';-inkscape-font-specification:'Roboto Condensed, Normal';font-variant-ligatures:normal;font-variant-caps:normal;font-variant-numeric:normal;font-feature-settings:normal;text-align:start;writing-mode:lr-tb;text-anchor:start;fill:#008000;fill-opacity:1;stroke-width:0.26458332"
         id="path4773" />
      <path
         d="m 180.56842,90.877884 q 0,-0.124024 0.0689,-0.209462 0.0689,-0.08544 0.2067,-0.08544 0.13505,0 0.20671,0.08544 0.0717,0.08544 0.0717,0.209462 0,0.118511 -0.0717,0.203949 -0.0717,0.08268 -0.20671,0.08268 -0.1378,0 -0.2067,-0.08268 -0.0689,-0.08544 -0.0689,-0.203949 z m 0.51263,0.790994 v 2.982074 h -0.48507 v -2.982074 z"
         style="font-style:normal;font-variant:normal;font-weight:normal;font-stretch:normal;font-size:5.64444447px;font-family:'Roboto Condensed';-inkscape-font-specification:'Roboto Condensed, Normal';font-variant-ligatures:normal;font-variant-caps:normal;font-variant-numeric:normal;font-feature-settings:normal;text-align:start;writing-mode:lr-tb;text-anchor:start;fill:#008000;fill-opacity:1;stroke-width:0.26458332"
         id="path4775" />
      <path
         d="m 182.93865,94.650952 q -0.14056,0.05512 -0.34175,0.05512 -0.23703,0 -0.41617,-0.173633 -0.17639,-0.173633 -0.17639,-0.622873 v -1.849327 h -0.45475 v -0.391363 h 0.45475 V 90.94403 h 0.48782 v 0.724848 h 0.44924 v 0.391363 h -0.44924 v 1.852083 q 0,0.228754 0.0772,0.292144 0.0799,0.06339 0.17915,0.06339 0.10473,0 0.19292,-0.03307 z"
         style="font-style:normal;font-variant:normal;font-weight:normal;font-stretch:normal;font-size:5.64444447px;font-family:'Roboto Condensed';-inkscape-font-specification:'Roboto Condensed, Normal';font-variant-ligatures:normal;font-variant-caps:normal;font-variant-numeric:normal;font-feature-settings:normal;text-align:start;writing-mode:lr-tb;text-anchor:start;fill:#008000;fill-opacity:1;stroke-width:0.26458332"
         id="path4777" />
      <path
         d="m 183.53396,90.877884 q 0,-0.124024 0.0689,-0.209462 0.0689,-0.08544 0.20671,-0.08544 0.13505,0 0.20671,0.08544 0.0717,0.08544 0.0717,0.209462 0,0.118511 -0.0717,0.203949 -0.0717,0.08268 -0.20671,0.08268 -0.1378,0 -0.20671,-0.08268 -0.0689,-0.08544 -0.0689,-0.203949 z m 0.51263,0.790994 v 2.982074 h -0.48507 v -2.982074 z"
         style="font-style:normal;font-variant:normal;font-weight:normal;font-stretch:normal;font-size:5.64444447px;font-family:'Roboto Condensed';-inkscape-font-specification:'Roboto Condensed, Normal';font-variant-ligatures:normal;font-variant-caps:normal;font-variant-numeric:normal;font-feature-settings:normal;text-align:start;writing-mode:lr-tb;text-anchor:start;fill:#008000;fill-opacity:1;stroke-width:0.26458332"
         id="path4779" />
      <path
         d="m 184.71632,93.019355 q 0,-0.697287 0.33349,-1.050065 0.33348,-0.355534 0.81579,-0.355534 0.48783,0 0.82131,0.355534 0.33625,0.352778 0.33625,1.050065 v 0.283876 q 0,0.697287 -0.33625,1.050065 -0.33348,0.352778 -0.81579,0.352778 -0.48507,0 -0.82131,-0.352778 -0.33349,-0.352778 -0.33349,-1.050065 z m 0.48783,0.283876 q 0,0.493338 0.19016,0.741385 0.19017,0.24529 0.47681,0.24529 0.64492,0 0.66421,-0.931553 v -0.338998 q 0,-0.487825 -0.19293,-0.735872 -0.19016,-0.250803 -0.4768,-0.250803 -0.28387,0 -0.47404,0.250803 -0.18741,0.248047 -0.18741,0.735872 z"
         style="font-style:normal;font-variant:normal;font-weight:normal;font-stretch:normal;font-size:5.64444447px;font-family:'Roboto Condensed';-inkscape-font-specification:'Roboto Condensed, Normal';font-variant-ligatures:normal;font-variant-caps:normal;font-variant-numeric:normal;font-feature-settings:normal;text-align:start;writing-mode:lr-tb;text-anchor:start;fill:#008000;fill-opacity:1;stroke-width:0.26458332"
         id="path4781" />
      <path
         d="m 188.69885,92.043704 q -0.17915,0 -0.32522,0.121267 -0.14331,0.121268 -0.23426,0.316949 v 2.169032 h -0.48783 v -2.982074 h 0.46027 l 0.0138,0.316948 q 0.28387,-0.37207 0.72484,-0.37207 0.36656,0 0.58429,0.248047 0.21773,0.248047 0.21773,0.835091 v 1.954058 h -0.48782 v -1.95957 q 0,-0.350022 -0.11576,-0.49885 -0.11575,-0.148828 -0.35002,-0.148828 z"
         style="font-style:normal;font-variant:normal;font-weight:normal;font-stretch:normal;font-size:5.64444447px;font-family:'Roboto Condensed';-inkscape-font-specification:'Roboto Condensed, Normal';font-variant-ligatures:normal;font-variant-caps:normal;font-variant-numeric:normal;font-feature-settings:normal;text-align:start;writing-mode:lr-tb;text-anchor:start;fill:#008000;fill-opacity:1;stroke-width:0.26458332"
         id="path4783" />
      <path
         d="m 166.32226,99.901278 q -0.12126,0.170872 -0.35277,0.311432 -0.22876,0.13781 -0.61461,0.13781 -0.53468,0 -0.84611,-0.31971 -0.31144,-0.322457 -0.3142,-0.997696 v -0.350022 q 0,-0.788238 0.34176,-1.105187 0.34175,-0.319704 0.76343,-0.319704 0.55948,0 0.80202,0.361046 0.24253,0.361046 0.24253,1.044553 v 0.283875 h -1.66191 v 0.07166 q 0,0.476802 0.17914,0.697288 0.18191,0.21773 0.5209,0.21773 0.24529,0 0.40239,-0.09371 0.15985,-0.09646 0.28112,-0.245291 z m -1.0225,-2.224154 q -0.25356,0 -0.42168,0.176389 -0.16812,0.173633 -0.19292,0.677995 h 1.17133 v -0.0689 q -0.0193,-0.34451 -0.12954,-0.564996 -0.10748,-0.220486 -0.42719,-0.220486 z"
         style="font-style:normal;font-variant:normal;font-weight:normal;font-stretch:normal;font-size:5.64444447px;font-family:'Roboto Condensed';-inkscape-font-specification:'Roboto Condensed, Normal';font-variant-ligatures:normal;font-variant-caps:normal;font-variant-numeric:normal;font-feature-settings:normal;text-align:start;writing-mode:lr-tb;text-anchor:start;fill:#008000;fill-opacity:1;stroke-width:0.26458332"
         id="path4785" />
      <path
         d="m 168.38105,99.531964 q 0,-0.170877 -0.13229,-0.286632 -0.12953,-0.115756 -0.49885,-0.272852 -0.36931,-0.157096 -0.58153,-0.319705 -0.23978,-0.184657 -0.23978,-0.548459 0,-0.355534 0.25907,-0.600825 0.25907,-0.24529 0.68627,-0.24529 0.4575,0 0.71106,0.259071 0.25356,0.259071 0.25356,0.644922 h -0.48507 q 0,-0.184657 -0.12402,-0.333486 -0.12402,-0.151584 -0.35553,-0.151584 -0.24529,0 -0.35278,0.124024 -0.10473,0.124023 -0.10473,0.286632 0,0.162608 0.10473,0.253559 0.10473,0.08819 0.41617,0.225998 0.45199,0.179145 0.69177,0.37207 0.23978,0.192926 0.23978,0.553972 0,0.394118 -0.2701,0.625631 -0.27009,0.23151 -0.71382,0.23151 -0.50712,0 -0.77446,-0.28939 -0.26734,-0.289388 -0.26734,-0.658702 h 0.48783 q 0.0138,0.316949 0.19017,0.424436 0.17639,0.104731 0.3638,0.104731 0.49609,0 0.49609,-0.399631 z"
         style="font-style:normal;font-variant:normal;font-weight:normal;font-stretch:normal;font-size:5.64444447px;font-family:'Roboto Condensed';-inkscape-font-specification:'Roboto Condensed, Normal';font-variant-ligatures:normal;font-variant-caps:normal;font-variant-numeric:normal;font-feature-settings:normal;text-align:start;writing-mode:lr-tb;text-anchor:start;fill:#008000;fill-opacity:1;stroke-width:0.26458332"
         id="path4787" />
      <path
         d="m 170.59418,100.2954 q -0.14056,0.0551 -0.34175,0.0551 -0.23702,0 -0.41617,-0.17363 -0.17639,-0.17364 -0.17639,-0.622878 v -1.849327 h -0.45475 v -0.391363 h 0.45475 v -0.724848 h 0.48783 v 0.724848 h 0.44924 v 0.391363 h -0.44924 v 1.852083 q 0,0.228755 0.0772,0.292144 0.0799,0.06339 0.17914,0.06339 0.10474,0 0.19293,-0.03307 z"
         style="font-style:normal;font-variant:normal;font-weight:normal;font-stretch:normal;font-size:5.64444447px;font-family:'Roboto Condensed';-inkscape-font-specification:'Roboto Condensed, Normal';font-variant-ligatures:normal;font-variant-caps:normal;font-variant-numeric:normal;font-feature-settings:normal;text-align:start;writing-mode:lr-tb;text-anchor:start;fill:#008000;fill-opacity:1;stroke-width:0.26458332"
         id="path4789" />
      <path
         d="m 174.38103,97.313322 -0.8847,2.982078 h -0.36656 l -0.89572,-2.982078 h 0.49609 l 0.58705,2.235178 0.56775,-2.235178 z"
         style="font-style:normal;font-variant:normal;font-weight:normal;font-stretch:normal;font-size:5.64444447px;font-family:'Roboto Condensed';-inkscape-font-specification:'Roboto Condensed, Normal';font-variant-ligatures:normal;font-variant-caps:normal;font-variant-numeric:normal;font-feature-settings:normal;text-align:start;writing-mode:lr-tb;text-anchor:start;fill:#008000;fill-opacity:1;stroke-width:0.26458332"
         id="path4791" />
      <path
         d="m 175.89963,97.748782 q -0.37483,0 -0.52365,0.4079 v 2.138718 h -0.48783 v -2.982078 h 0.47129 l 0.011,0.300412 q 0.19569,-0.355533 0.55398,-0.355533 0.12953,0 0.19292,0.03858 l 0.003,0.474045 q -0.10749,-0.02205 -0.22049,-0.02205 z"
         style="font-style:normal;font-variant:normal;font-weight:normal;font-stretch:normal;font-size:5.64444447px;font-family:'Roboto Condensed';-inkscape-font-specification:'Roboto Condensed, Normal';font-variant-ligatures:normal;font-variant-caps:normal;font-variant-numeric:normal;font-feature-settings:normal;text-align:start;writing-mode:lr-tb;text-anchor:start;fill:#008000;fill-opacity:1;stroke-width:0.26458332"
         id="path4793" />
      <path
         d="m 178.03283,100.2954 q -0.0468,-0.10749 -0.0661,-0.322464 -0.10198,0.151584 -0.2701,0.264584 -0.16812,0.113 -0.3886,0.113 -0.39137,0 -0.62839,-0.22049 -0.23427,-0.220484 -0.23427,-0.647676 0,-0.429948 0.2949,-0.711067 0.2949,-0.283876 0.88195,-0.283876 h 0.33624 v -0.319705 q 0,-0.264584 -0.12127,-0.377583 -0.11851,-0.112999 -0.35829,-0.112999 -0.23426,0 -0.36656,0.137804 -0.12953,0.137804 -0.12953,0.325217 h -0.48783 q 0,-0.319705 0.27285,-0.600825 0.27286,-0.281119 0.73588,-0.281119 0.41341,0 0.67799,0.206705 0.26458,0.206706 0.26458,0.708312 v 1.422135 q 0,0.421677 0.091,0.655947 v 0.0441 z m -0.65043,-0.38861 q 0.20671,0 0.35829,-0.107487 0.15158,-0.107487 0.21773,-0.239779 v -0.713823 h -0.25632 q -0.35002,0 -0.55948,0.148828 -0.20946,0.148828 -0.20946,0.427192 0,0.267339 0.11024,0.377582 0.113,0.107487 0.339,0.107487 z"
         style="font-style:normal;font-variant:normal;font-weight:normal;font-stretch:normal;font-size:5.64444447px;font-family:'Roboto Condensed';-inkscape-font-specification:'Roboto Condensed, Normal';font-variant-ligatures:normal;font-variant-caps:normal;font-variant-numeric:normal;font-feature-settings:normal;text-align:start;writing-mode:lr-tb;text-anchor:start;fill:#008000;fill-opacity:1;stroke-width:0.26458332"
         id="path4795" />
      <path
         d="m 179.21243,96.522328 q 0,-0.124023 0.0689,-0.209462 0.0689,-0.08544 0.2067,-0.08544 0.13505,0 0.20671,0.08544 0.0717,0.08544 0.0717,0.209462 0,0.118511 -0.0717,0.20395 -0.0717,0.08268 -0.20671,0.08268 -0.1378,0 -0.2067,-0.08268 -0.0689,-0.08544 -0.0689,-0.20395 z m 0.51263,0.790994 V 100.2954 H 179.24 v -2.982078 z"
         style="font-style:normal;font-variant:normal;font-weight:normal;font-stretch:normal;font-size:5.64444447px;font-family:'Roboto Condensed';-inkscape-font-specification:'Roboto Condensed, Normal';font-variant-ligatures:normal;font-variant-caps:normal;font-variant-numeric:normal;font-feature-settings:normal;text-align:start;writing-mode:lr-tb;text-anchor:start;fill:#008000;fill-opacity:1;stroke-width:0.26458332"
         id="path4797" />
      <path
         d="m 182.53075,99.901278 q -0.12127,0.170872 -0.35278,0.311432 -0.22875,0.13781 -0.6146,0.13781 -0.53468,0 -0.84612,-0.31971 -0.31144,-0.322457 -0.31419,-0.997696 v -0.350022 q 0,-0.788238 0.34175,-1.105187 0.34176,-0.319704 0.76344,-0.319704 0.55948,0 0.80201,0.361046 0.24254,0.361046 0.24254,1.044553 v 0.283875 h -1.66192 v 0.07166 q 0,0.476802 0.17915,0.697288 0.1819,0.21773 0.5209,0.21773 0.24529,0 0.40238,-0.09371 0.15986,-0.09646 0.28112,-0.245291 z m -1.0225,-2.224154 q -0.25356,0 -0.42168,0.176389 -0.16813,0.173633 -0.19293,0.677995 h 1.17133 v -0.0689 q -0.0193,-0.34451 -0.12953,-0.564996 -0.10749,-0.220486 -0.42719,-0.220486 z"
         style="font-style:normal;font-variant:normal;font-weight:normal;font-stretch:normal;font-size:5.64444447px;font-family:'Roboto Condensed';-inkscape-font-specification:'Roboto Condensed, Normal';font-variant-ligatures:normal;font-variant-caps:normal;font-variant-numeric:normal;font-feature-settings:normal;text-align:start;writing-mode:lr-tb;text-anchor:start;fill:#008000;fill-opacity:1;stroke-width:0.26458332"
         id="path4799" />
    </g>
  </g>
</svg>
